M48
;Layer_Color=9474304
;FILE_FORMAT=2:5
INCH,LZ
;TYPE=PLATED
T1F00S00C0.01181
T2F00S00C0.04331
;TYPE=NON_PLATED
T3F00S00C0.12598
%
T01
X0173228Y028937
X0175197Y0301181
X01336Y033
X01395Y0368
X01394Y0387992
X0154Y03827
X01659Y03878
X0181102Y0345748
X0179133Y0334645
Y0324802
T02
X0166961Y0228346
Y0246063
X0166858Y0263779
Y0281496
Y0299213
X0190787Y0301024
Y0291024
Y0281024
Y0271024
Y0261024
X0200787
Y0271024
Y0281024
Y0291024
Y0301024
Y0311024
X0190787
X0106858Y0299213
Y0281496
Y0263779
X0106961Y0246063
Y0228346
X0106858Y0316929
X0106961Y0334646
Y0352362
X0166961
Y0334646
X0166858Y0316929
X0190787Y0321024
Y0331024
Y0341024
Y0351024
X0200787
Y0341024
Y0331024
Y0321024
T03
X0200787Y0232283
Y0377953
M30
