G04*
G04 #@! TF.GenerationSoftware,Altium Limited,Altium Designer,18.1.7 (191)*
G04*
G04 Layer_Color=8388736*
%FSLAX44Y44*%
%MOMM*%
G71*
G01*
G75*
%ADD21R,2.4000X1.1000*%
%ADD22R,1.4000X1.0500*%
%ADD23R,1.1000X1.5000*%
%ADD24R,0.3400X1.3400*%
%ADD25R,1.1400X0.6400*%
%ADD26R,1.5000X0.9000*%
%ADD27R,0.5500X1.1400*%
%ADD28R,1.3400X0.3400*%
%ADD29R,2.2000X1.8000*%
%ADD30O,2.2000X1.8000*%
%ADD31O,2.2032X1.8032*%
%ADD32O,2.2040X1.8040*%
%ADD33C,3.4000*%
D21*
X1249136Y1970500D02*
D03*
Y1949500D02*
D03*
Y1820316D02*
D03*
Y1841316D02*
D03*
X1219050D02*
D03*
Y1820316D02*
D03*
X1188772Y1949500D02*
D03*
Y1970500D02*
D03*
Y1841316D02*
D03*
Y1820316D02*
D03*
X1158240Y1949500D02*
D03*
Y1970500D02*
D03*
Y1841316D02*
D03*
Y1820316D02*
D03*
X1219050Y1949500D02*
D03*
Y1970500D02*
D03*
D22*
X1170000Y1780250D02*
D03*
Y1764750D02*
D03*
X1194167Y1780250D02*
D03*
Y1764750D02*
D03*
X1218333Y1780250D02*
D03*
Y1764750D02*
D03*
X1242500Y1780250D02*
D03*
Y1764750D02*
D03*
X1242500Y1652250D02*
D03*
Y1667750D02*
D03*
X1218333D02*
D03*
Y1652250D02*
D03*
X1194167Y1667750D02*
D03*
Y1652250D02*
D03*
X1170000Y1667750D02*
D03*
Y1652250D02*
D03*
D23*
X1288000Y2115000D02*
D03*
X1307000D02*
D03*
X1288000Y2137500D02*
D03*
X1307000D02*
D03*
X1288000Y2160000D02*
D03*
X1307000D02*
D03*
X1288000Y2182500D02*
D03*
X1307000D02*
D03*
X1288000Y2207500D02*
D03*
X1307000D02*
D03*
X1288000Y2230000D02*
D03*
X1307000D02*
D03*
X1288000Y2252500D02*
D03*
X1307000D02*
D03*
X1288000Y2275000D02*
D03*
X1307000D02*
D03*
X1187000Y2115000D02*
D03*
X1168000D02*
D03*
X1187000Y2137500D02*
D03*
X1168000D02*
D03*
X1187000Y2160000D02*
D03*
X1168000D02*
D03*
X1187000Y2182500D02*
D03*
X1168000D02*
D03*
X1187000Y2207500D02*
D03*
X1168000D02*
D03*
X1187000Y2230000D02*
D03*
X1168000D02*
D03*
X1187000Y2252500D02*
D03*
X1168000D02*
D03*
X1187000Y2275000D02*
D03*
X1168000D02*
D03*
D24*
X1227772Y1925142D02*
D03*
X1221272D02*
D03*
X1214772D02*
D03*
X1208272D02*
D03*
X1201772D02*
D03*
X1195272D02*
D03*
X1188772D02*
D03*
X1182272D02*
D03*
X1175772D02*
D03*
X1169272D02*
D03*
X1162772D02*
D03*
X1156272D02*
D03*
X1227772Y1871142D02*
D03*
X1221272D02*
D03*
X1214772D02*
D03*
X1208272D02*
D03*
X1201772D02*
D03*
X1195272D02*
D03*
X1188772D02*
D03*
X1182272D02*
D03*
X1175772D02*
D03*
X1169272D02*
D03*
X1162772D02*
D03*
X1156272D02*
D03*
X1245836Y1743878D02*
D03*
X1239336D02*
D03*
X1232836D02*
D03*
X1226336D02*
D03*
X1219836D02*
D03*
X1213336D02*
D03*
X1206836D02*
D03*
X1200336D02*
D03*
X1193836D02*
D03*
X1187336D02*
D03*
X1180836D02*
D03*
X1174336D02*
D03*
X1245836Y1689878D02*
D03*
X1239336D02*
D03*
X1232836D02*
D03*
X1226336D02*
D03*
X1219836D02*
D03*
X1213336D02*
D03*
X1206836D02*
D03*
X1200336D02*
D03*
X1193836D02*
D03*
X1187336D02*
D03*
X1180836D02*
D03*
X1174336D02*
D03*
D25*
X1311000Y1788000D02*
D03*
Y1797500D02*
D03*
Y1807000D02*
D03*
X1284000Y1788000D02*
D03*
Y1797500D02*
D03*
Y1807000D02*
D03*
D26*
X1252500Y1892350D02*
D03*
Y1876850D02*
D03*
Y1906850D02*
D03*
Y1922350D02*
D03*
D27*
X1155550Y2015000D02*
D03*
X1168250D02*
D03*
X1180950D02*
D03*
X1193650D02*
D03*
X1206350D02*
D03*
X1219050D02*
D03*
X1231750D02*
D03*
X1244450D02*
D03*
X1155550Y2070000D02*
D03*
X1168250D02*
D03*
X1180950D02*
D03*
X1193650D02*
D03*
X1206350D02*
D03*
X1219050D02*
D03*
X1231750D02*
D03*
X1244450D02*
D03*
X1134050Y2215500D02*
D03*
X1121350D02*
D03*
X1108650D02*
D03*
X1095950D02*
D03*
X1134050Y2164500D02*
D03*
X1121350D02*
D03*
X1108650D02*
D03*
X1095950D02*
D03*
D28*
X1210500Y2180750D02*
D03*
Y2174250D02*
D03*
Y2167750D02*
D03*
Y2161250D02*
D03*
Y2154750D02*
D03*
Y2148250D02*
D03*
Y2141750D02*
D03*
Y2135250D02*
D03*
Y2128750D02*
D03*
Y2122250D02*
D03*
Y2115750D02*
D03*
Y2109250D02*
D03*
X1264500Y2180750D02*
D03*
Y2174250D02*
D03*
Y2167750D02*
D03*
Y2161250D02*
D03*
Y2154750D02*
D03*
Y2148250D02*
D03*
Y2141750D02*
D03*
Y2135250D02*
D03*
Y2128750D02*
D03*
Y2122250D02*
D03*
Y2115750D02*
D03*
Y2109250D02*
D03*
X1210500Y2280750D02*
D03*
Y2274250D02*
D03*
Y2267750D02*
D03*
Y2261250D02*
D03*
Y2254750D02*
D03*
Y2248250D02*
D03*
Y2241750D02*
D03*
Y2235250D02*
D03*
Y2228750D02*
D03*
Y2222250D02*
D03*
Y2215750D02*
D03*
Y2209250D02*
D03*
X1264500Y2280750D02*
D03*
Y2274250D02*
D03*
Y2267750D02*
D03*
Y2261250D02*
D03*
Y2254750D02*
D03*
Y2248250D02*
D03*
Y2241750D02*
D03*
Y2235250D02*
D03*
Y2228750D02*
D03*
Y2222250D02*
D03*
Y2215750D02*
D03*
Y2209250D02*
D03*
D29*
X1284600Y1845700D02*
D03*
X1120000Y2137800D02*
D03*
D30*
X1284600Y1871100D02*
D03*
Y1921900D02*
D03*
Y1947300D02*
D03*
Y1972700D02*
D03*
Y1998100D02*
D03*
Y2023500D02*
D03*
Y2048900D02*
D03*
Y2074300D02*
D03*
X1310000Y1845700D02*
D03*
Y1871100D02*
D03*
Y1921900D02*
D03*
Y1947300D02*
D03*
Y1972700D02*
D03*
Y1998100D02*
D03*
Y2023500D02*
D03*
Y2048900D02*
D03*
Y2074300D02*
D03*
X1094600Y2137800D02*
D03*
Y2112400D02*
D03*
Y2087000D02*
D03*
Y2061600D02*
D03*
Y2036200D02*
D03*
Y2010800D02*
D03*
Y1985400D02*
D03*
Y1960000D02*
D03*
Y1934600D02*
D03*
Y1909200D02*
D03*
Y1883800D02*
D03*
Y1858400D02*
D03*
Y1833000D02*
D03*
Y1807600D02*
D03*
Y1782200D02*
D03*
X1120000Y2112400D02*
D03*
Y2087000D02*
D03*
Y2061600D02*
D03*
Y2036200D02*
D03*
Y2010800D02*
D03*
Y1985400D02*
D03*
Y1960000D02*
D03*
Y1934600D02*
D03*
Y1909200D02*
D03*
Y1883800D02*
D03*
Y1858400D02*
D03*
Y1833000D02*
D03*
Y1807600D02*
D03*
Y1782200D02*
D03*
D31*
X1284600Y1896500D02*
D03*
D32*
X1310000D02*
D03*
D33*
X1087500Y1657500D02*
D03*
Y2262886D02*
D03*
M02*
