G04*
G04 #@! TF.GenerationSoftware,Altium Limited,Altium Designer,18.1.7 (191)*
G04*
G04 Layer_Color=32896*
%FSLAX44Y44*%
%MOMM*%
G71*
G01*
G75*
%ADD10C,0.2000*%
D10*
X1184703Y2027399D02*
Y2034064D01*
X1178039Y2027399D01*
X1176373D01*
X1174706Y2029065D01*
Y2032397D01*
X1176373Y2034064D01*
X1184703Y2014070D02*
Y2010738D01*
Y2012404D01*
X1174706D01*
X1176373Y2014070D01*
Y2005739D02*
X1174706Y2004073D01*
Y2000741D01*
X1176373Y1999075D01*
X1183037D01*
X1184703Y2000741D01*
Y2004073D01*
X1183037Y2005739D01*
X1176373D01*
Y1995743D02*
X1174706Y1994077D01*
Y1990744D01*
X1176373Y1989078D01*
X1183037D01*
X1184703Y1990744D01*
Y1994077D01*
X1183037Y1995743D01*
X1176373D01*
X1184703Y1985746D02*
X1174706D01*
X1181371D02*
X1178039Y1980748D01*
X1181371Y1985746D02*
X1184703Y1980748D01*
Y1965752D02*
X1174706D01*
Y1960754D01*
X1176373Y1959088D01*
X1179705D01*
X1181371Y1960754D01*
Y1965752D01*
Y1962420D02*
X1184703Y1959088D01*
Y1950757D02*
Y1954089D01*
X1183037Y1955755D01*
X1179705D01*
X1178039Y1954089D01*
Y1950757D01*
X1179705Y1949091D01*
X1181371D01*
Y1955755D01*
X1184703Y1945759D02*
Y1940760D01*
X1183037Y1939094D01*
X1181371Y1940760D01*
Y1944093D01*
X1179705Y1945759D01*
X1178039Y1944093D01*
Y1939094D01*
X1184703Y1935762D02*
Y1932430D01*
Y1934096D01*
X1178039D01*
Y1935762D01*
X1184703Y1927431D02*
Y1922433D01*
X1183037Y1920767D01*
X1181371Y1922433D01*
Y1925765D01*
X1179705Y1927431D01*
X1178039Y1925765D01*
Y1920767D01*
X1176373Y1915768D02*
X1178039D01*
Y1917435D01*
Y1914102D01*
Y1915768D01*
X1183037D01*
X1184703Y1914102D01*
Y1907438D02*
Y1904106D01*
X1183037Y1902439D01*
X1179705D01*
X1178039Y1904106D01*
Y1907438D01*
X1179705Y1909104D01*
X1183037D01*
X1184703Y1907438D01*
X1178039Y1899107D02*
X1184703D01*
X1181371D01*
X1179705Y1897441D01*
X1178039Y1895775D01*
Y1894109D01*
X1184703Y1889110D02*
Y1884112D01*
X1183037Y1882446D01*
X1181371Y1884112D01*
Y1887444D01*
X1179705Y1889110D01*
X1178039Y1887444D01*
Y1882446D01*
X1201499Y2008239D02*
Y2014903D01*
X1194835Y2008239D01*
X1193169D01*
X1191503Y2009905D01*
Y2013237D01*
X1193169Y2014903D01*
Y1988245D02*
X1191503Y1989911D01*
Y1993243D01*
X1193169Y1994910D01*
X1199833D01*
X1201499Y1993243D01*
Y1989911D01*
X1199833Y1988245D01*
X1194835Y1983247D02*
Y1979914D01*
X1196501Y1978248D01*
X1201499D01*
Y1983247D01*
X1199833Y1984913D01*
X1198167Y1983247D01*
Y1978248D01*
X1204832Y1974916D02*
X1194835D01*
Y1969918D01*
X1196501Y1968251D01*
X1199833D01*
X1201499Y1969918D01*
Y1974916D01*
X1194835Y1963253D02*
Y1959921D01*
X1196501Y1958255D01*
X1201499D01*
Y1963253D01*
X1199833Y1964919D01*
X1198167Y1963253D01*
Y1958255D01*
X1194835Y1948258D02*
Y1953256D01*
X1196501Y1954922D01*
X1199833D01*
X1201499Y1953256D01*
Y1948258D01*
Y1944926D02*
Y1941593D01*
Y1943259D01*
X1194835D01*
Y1944926D01*
X1193169Y1934929D02*
X1194835D01*
Y1936595D01*
Y1933263D01*
Y1934929D01*
X1199833D01*
X1201499Y1933263D01*
Y1926598D02*
Y1923266D01*
X1199833Y1921600D01*
X1196501D01*
X1194835Y1923266D01*
Y1926598D01*
X1196501Y1928264D01*
X1199833D01*
X1201499Y1926598D01*
X1194835Y1918268D02*
X1201499D01*
X1198167D01*
X1196501Y1916602D01*
X1194835Y1914935D01*
Y1913269D01*
X1201499Y1908271D02*
Y1903272D01*
X1199833Y1901606D01*
X1198167Y1903272D01*
Y1906605D01*
X1196501Y1908271D01*
X1194835Y1906605D01*
Y1901606D01*
X1221628Y2003240D02*
Y2009905D01*
X1214963Y2003240D01*
X1213297D01*
X1211631Y2004906D01*
Y2008239D01*
X1213297Y2009905D01*
X1211631Y1989911D02*
Y1986579D01*
Y1988245D01*
X1221628D01*
Y1989911D01*
Y1986579D01*
Y1981581D02*
X1214963D01*
Y1976582D01*
X1216629Y1974916D01*
X1221628D01*
X1211631Y1964919D02*
X1221628D01*
Y1969918D01*
X1219962Y1971584D01*
X1216629D01*
X1214963Y1969918D01*
Y1964919D01*
Y1961587D02*
X1219962D01*
X1221628Y1959921D01*
Y1954922D01*
X1214963D01*
Y1944926D02*
Y1949924D01*
X1216629Y1951590D01*
X1219962D01*
X1221628Y1949924D01*
Y1944926D01*
X1213297Y1939927D02*
X1214963D01*
Y1941593D01*
Y1938261D01*
Y1939927D01*
X1219962D01*
X1221628Y1938261D01*
Y1931597D02*
Y1928264D01*
X1219962Y1926598D01*
X1216629D01*
X1214963Y1928264D01*
Y1931597D01*
X1216629Y1933263D01*
X1219962D01*
X1221628Y1931597D01*
X1214963Y1923266D02*
X1221628D01*
X1218296D01*
X1216629Y1921600D01*
X1214963Y1919934D01*
Y1918268D01*
X1221628Y1913269D02*
Y1908271D01*
X1219962Y1906605D01*
X1218296Y1908271D01*
Y1911603D01*
X1216629Y1913269D01*
X1214963Y1911603D01*
Y1906605D01*
X1238424Y1980748D02*
Y1977415D01*
Y1979081D01*
X1228427D01*
X1230093Y1980748D01*
X1228427Y1962420D02*
X1238424D01*
Y1957422D01*
X1236758Y1955755D01*
X1230093D01*
X1228427Y1957422D01*
Y1962420D01*
X1238424Y1952423D02*
X1231759D01*
X1228427Y1949091D01*
X1231759Y1945759D01*
X1238424D01*
X1233426D01*
Y1952423D01*
X1230093Y1935762D02*
X1228427Y1937428D01*
Y1940760D01*
X1230093Y1942426D01*
X1236758D01*
X1238424Y1940760D01*
Y1937428D01*
X1236758Y1935762D01*
X1255220Y1980748D02*
Y1977415D01*
Y1979081D01*
X1245223D01*
X1246889Y1980748D01*
X1255220Y1962420D02*
X1248556D01*
X1245223Y1959088D01*
X1248556Y1955755D01*
X1255220D01*
X1250222D01*
Y1962420D01*
X1245223Y1952423D02*
X1255220D01*
Y1947425D01*
X1253554Y1945759D01*
X1246889D01*
X1245223Y1947425D01*
Y1952423D01*
X1246889Y1935762D02*
X1245223Y1937428D01*
Y1940760D01*
X1246889Y1942426D01*
X1253554D01*
X1255220Y1940760D01*
Y1937428D01*
X1253554Y1935762D01*
X1143624Y2191180D02*
X1151621D01*
X1155620Y2187181D01*
X1151621Y2183183D01*
X1143624D01*
X1155620Y2179184D02*
Y2175185D01*
Y2177184D01*
X1147623D01*
Y2179184D01*
Y2169187D02*
X1155620D01*
X1151621D01*
X1149622Y2167188D01*
X1147623Y2165188D01*
Y2163189D01*
X1145623Y2155192D02*
X1147623D01*
Y2157191D01*
Y2153192D01*
Y2155192D01*
X1153621D01*
X1155620Y2153192D01*
X1147623Y2147194D02*
X1153621D01*
X1155620Y2145195D01*
Y2139197D01*
X1147623D01*
Y2133199D02*
Y2129200D01*
X1149622Y2127201D01*
X1155620D01*
Y2133199D01*
X1153621Y2135198D01*
X1151621Y2133199D01*
Y2127201D01*
X1155620Y2123202D02*
Y2119203D01*
Y2121203D01*
X1143624D01*
Y2123202D01*
X1145623Y2093212D02*
X1143624Y2095211D01*
Y2099210D01*
X1145623Y2101209D01*
X1153621D01*
X1155620Y2099210D01*
Y2095211D01*
X1153621Y2093212D01*
X1155620Y2087214D02*
Y2083215D01*
X1153621Y2081216D01*
X1149622D01*
X1147623Y2083215D01*
Y2087214D01*
X1149622Y2089213D01*
X1153621D01*
X1155620Y2087214D01*
Y2077217D02*
X1147623D01*
Y2075217D01*
X1149622Y2073218D01*
X1155620D01*
X1149622D01*
X1147623Y2071219D01*
X1149622Y2069219D01*
X1155620D01*
X1159619Y2065221D02*
X1147623D01*
Y2059223D01*
X1149622Y2057223D01*
X1153621D01*
X1155620Y2059223D01*
Y2065221D01*
Y2051225D02*
Y2047227D01*
X1153621Y2045227D01*
X1149622D01*
X1147623Y2047227D01*
Y2051225D01*
X1149622Y2053225D01*
X1153621D01*
X1155620Y2051225D01*
Y2041228D02*
X1147623D01*
Y2035230D01*
X1149622Y2033231D01*
X1155620D01*
Y2023234D02*
Y2027233D01*
X1153621Y2029232D01*
X1149622D01*
X1147623Y2027233D01*
Y2023234D01*
X1149622Y2021235D01*
X1151621D01*
Y2029232D01*
X1155620Y2017236D02*
X1147623D01*
Y2011238D01*
X1149622Y2009239D01*
X1155620D01*
X1145623Y2003241D02*
X1147623D01*
Y2005240D01*
Y2001241D01*
Y2003241D01*
X1153621D01*
X1155620Y2001241D01*
X1143624Y1983247D02*
X1155620D01*
Y1977249D01*
X1153621Y1975250D01*
X1145623D01*
X1143624Y1977249D01*
Y1983247D01*
X1147623Y1971251D02*
X1153621D01*
X1155620Y1969252D01*
Y1963254D01*
X1157619D01*
X1159619Y1965253D01*
Y1967253D01*
X1155620Y1963254D02*
X1147623D01*
X1155620Y1959255D02*
X1147623D01*
Y1953257D01*
X1149622Y1951258D01*
X1155620D01*
X1147623Y1945260D02*
Y1941261D01*
X1149622Y1939261D01*
X1155620D01*
Y1945260D01*
X1153621Y1947259D01*
X1151621Y1945260D01*
Y1939261D01*
X1155620Y1935263D02*
X1147623D01*
Y1933263D01*
X1149622Y1931264D01*
X1155620D01*
X1149622D01*
X1147623Y1929265D01*
X1149622Y1927265D01*
X1155620D01*
Y1923267D02*
Y1919268D01*
Y1921267D01*
X1147623D01*
Y1923267D01*
Y1905273D02*
Y1911270D01*
X1149622Y1913270D01*
X1153621D01*
X1155620Y1911270D01*
Y1905273D01*
X1145623Y1881280D02*
X1143624Y1883280D01*
Y1887278D01*
X1145623Y1889278D01*
X1153621D01*
X1155620Y1887278D01*
Y1883280D01*
X1153621Y1881280D01*
X1155620Y1875282D02*
Y1871284D01*
X1153621Y1869284D01*
X1149622D01*
X1147623Y1871284D01*
Y1875282D01*
X1149622Y1877282D01*
X1153621D01*
X1155620Y1875282D01*
Y1865285D02*
X1147623D01*
Y1863286D01*
X1149622Y1861287D01*
X1155620D01*
X1149622D01*
X1147623Y1859287D01*
X1149622Y1857288D01*
X1155620D01*
X1159619Y1853289D02*
X1147623D01*
Y1847291D01*
X1149622Y1845292D01*
X1153621D01*
X1155620Y1847291D01*
Y1853289D01*
Y1841293D02*
Y1837294D01*
Y1839294D01*
X1143624D01*
Y1841293D01*
X1155620Y1825298D02*
Y1829297D01*
X1153621Y1831296D01*
X1149622D01*
X1147623Y1829297D01*
Y1825298D01*
X1149622Y1823299D01*
X1151621D01*
Y1831296D01*
X1147623Y1819300D02*
X1155620Y1811303D01*
X1151621Y1815302D01*
X1147623Y1811303D01*
X1155620Y1819300D01*
Y1795308D02*
X1143624D01*
X1147623Y1791309D01*
X1143624Y1787311D01*
X1155620D01*
Y1781313D02*
Y1777314D01*
X1153621Y1775315D01*
X1149622D01*
X1147623Y1777314D01*
Y1781313D01*
X1149622Y1783312D01*
X1153621D01*
X1155620Y1781313D01*
X1143624Y1763318D02*
X1155620D01*
Y1769317D01*
X1153621Y1771316D01*
X1149622D01*
X1147623Y1769317D01*
Y1763318D01*
Y1759320D02*
X1153621D01*
X1155620Y1757320D01*
Y1751322D01*
X1147623D01*
X1155620Y1747324D02*
Y1743325D01*
Y1745324D01*
X1143624D01*
Y1747324D01*
X1155620Y1735327D02*
Y1731329D01*
X1153621Y1729329D01*
X1149622D01*
X1147623Y1731329D01*
Y1735327D01*
X1149622Y1737327D01*
X1153621D01*
X1155620Y1735327D01*
M02*
