G04*
G04 #@! TF.GenerationSoftware,Altium Limited,Altium Designer,18.1.7 (191)*
G04*
G04 Layer_Color=8421504*
%FSLAX44Y44*%
%MOMM*%
G71*
G01*
G75*
%ADD13R,2.2000X0.9000*%
%ADD14R,1.2000X0.8500*%
%ADD15R,0.9000X1.3000*%
%ADD16R,0.3000X1.3000*%
%ADD17R,1.1000X0.6000*%
%ADD18R,1.3000X0.7000*%
%ADD19R,0.5100X1.1000*%
%ADD20R,1.3000X0.3000*%
D13*
X1249136Y1970500D02*
D03*
Y1949500D02*
D03*
Y1820316D02*
D03*
Y1841316D02*
D03*
X1219050D02*
D03*
Y1820316D02*
D03*
X1188772Y1949500D02*
D03*
Y1970500D02*
D03*
Y1841316D02*
D03*
Y1820316D02*
D03*
X1158240Y1949500D02*
D03*
Y1970500D02*
D03*
Y1841316D02*
D03*
Y1820316D02*
D03*
X1219050Y1949500D02*
D03*
Y1970500D02*
D03*
D14*
X1170000Y1780250D02*
D03*
Y1764750D02*
D03*
X1194167Y1780250D02*
D03*
Y1764750D02*
D03*
X1218333Y1780250D02*
D03*
Y1764750D02*
D03*
X1242500Y1780250D02*
D03*
Y1764750D02*
D03*
X1242500Y1652250D02*
D03*
Y1667750D02*
D03*
X1218333D02*
D03*
Y1652250D02*
D03*
X1194167Y1667750D02*
D03*
Y1652250D02*
D03*
X1170000Y1667750D02*
D03*
Y1652250D02*
D03*
D15*
X1288000Y2115000D02*
D03*
X1307000D02*
D03*
X1288000Y2137500D02*
D03*
X1307000D02*
D03*
X1288000Y2160000D02*
D03*
X1307000D02*
D03*
X1288000Y2182500D02*
D03*
X1307000D02*
D03*
X1288000Y2207500D02*
D03*
X1307000D02*
D03*
X1288000Y2230000D02*
D03*
X1307000D02*
D03*
X1288000Y2252500D02*
D03*
X1307000D02*
D03*
X1288000Y2275000D02*
D03*
X1307000D02*
D03*
X1187000Y2115000D02*
D03*
X1168000D02*
D03*
X1187000Y2137500D02*
D03*
X1168000D02*
D03*
X1187000Y2160000D02*
D03*
X1168000D02*
D03*
X1187000Y2182500D02*
D03*
X1168000D02*
D03*
X1187000Y2207500D02*
D03*
X1168000D02*
D03*
X1187000Y2230000D02*
D03*
X1168000D02*
D03*
X1187000Y2252500D02*
D03*
X1168000D02*
D03*
X1187000Y2275000D02*
D03*
X1168000D02*
D03*
D16*
X1227772Y1925142D02*
D03*
X1221272D02*
D03*
X1214772D02*
D03*
X1208272D02*
D03*
X1201772D02*
D03*
X1195272D02*
D03*
X1188772D02*
D03*
X1182272D02*
D03*
X1175772D02*
D03*
X1169272D02*
D03*
X1162772D02*
D03*
X1156272D02*
D03*
X1227772Y1871142D02*
D03*
X1221272D02*
D03*
X1214772D02*
D03*
X1208272D02*
D03*
X1201772D02*
D03*
X1195272D02*
D03*
X1188772D02*
D03*
X1182272D02*
D03*
X1175772D02*
D03*
X1169272D02*
D03*
X1162772D02*
D03*
X1156272D02*
D03*
X1245836Y1743878D02*
D03*
X1239336D02*
D03*
X1232836D02*
D03*
X1226336D02*
D03*
X1219836D02*
D03*
X1213336D02*
D03*
X1206836D02*
D03*
X1200336D02*
D03*
X1193836D02*
D03*
X1187336D02*
D03*
X1180836D02*
D03*
X1174336D02*
D03*
X1245836Y1689878D02*
D03*
X1239336D02*
D03*
X1232836D02*
D03*
X1226336D02*
D03*
X1219836D02*
D03*
X1213336D02*
D03*
X1206836D02*
D03*
X1200336D02*
D03*
X1193836D02*
D03*
X1187336D02*
D03*
X1180836D02*
D03*
X1174336D02*
D03*
D17*
X1311000Y1788000D02*
D03*
Y1797500D02*
D03*
Y1807000D02*
D03*
X1284000Y1788000D02*
D03*
Y1797500D02*
D03*
Y1807000D02*
D03*
D18*
X1252500Y1892350D02*
D03*
Y1876850D02*
D03*
Y1906850D02*
D03*
Y1922350D02*
D03*
D19*
X1155550Y2015000D02*
D03*
X1168250D02*
D03*
X1180950D02*
D03*
X1193650D02*
D03*
X1206350D02*
D03*
X1219050D02*
D03*
X1231750D02*
D03*
X1244450D02*
D03*
X1155550Y2070000D02*
D03*
X1168250D02*
D03*
X1180950D02*
D03*
X1193650D02*
D03*
X1206350D02*
D03*
X1219050D02*
D03*
X1231750D02*
D03*
X1244450D02*
D03*
X1134050Y2215500D02*
D03*
X1121350D02*
D03*
X1108650D02*
D03*
X1095950D02*
D03*
X1134050Y2164500D02*
D03*
X1121350D02*
D03*
X1108650D02*
D03*
X1095950D02*
D03*
D20*
X1210500Y2180750D02*
D03*
Y2174250D02*
D03*
Y2167750D02*
D03*
Y2161250D02*
D03*
Y2154750D02*
D03*
Y2148250D02*
D03*
Y2141750D02*
D03*
Y2135250D02*
D03*
Y2128750D02*
D03*
Y2122250D02*
D03*
Y2115750D02*
D03*
Y2109250D02*
D03*
X1264500Y2180750D02*
D03*
Y2174250D02*
D03*
Y2167750D02*
D03*
Y2161250D02*
D03*
Y2154750D02*
D03*
Y2148250D02*
D03*
Y2141750D02*
D03*
Y2135250D02*
D03*
Y2128750D02*
D03*
Y2122250D02*
D03*
Y2115750D02*
D03*
Y2109250D02*
D03*
X1210500Y2280750D02*
D03*
Y2274250D02*
D03*
Y2267750D02*
D03*
Y2261250D02*
D03*
Y2254750D02*
D03*
Y2248250D02*
D03*
Y2241750D02*
D03*
Y2235250D02*
D03*
Y2228750D02*
D03*
Y2222250D02*
D03*
Y2215750D02*
D03*
Y2209250D02*
D03*
X1264500Y2280750D02*
D03*
Y2274250D02*
D03*
Y2267750D02*
D03*
Y2261250D02*
D03*
Y2254750D02*
D03*
Y2248250D02*
D03*
Y2241750D02*
D03*
Y2235250D02*
D03*
Y2228750D02*
D03*
Y2222250D02*
D03*
Y2215750D02*
D03*
Y2209250D02*
D03*
M02*
