G04*
G04 #@! TF.GenerationSoftware,Altium Limited,Altium Designer,18.1.7 (191)*
G04*
G04 Layer_Physical_Order=2*
G04 Layer_Color=32768*
%FSLAX44Y44*%
%MOMM*%
G71*
G01*
G75*
%ADD33C,3.4000*%
%ADD40C,1.0160*%
%ADD41C,1.3000*%
%ADD42C,0.5000*%
D33*
X1087500Y1657500D02*
D03*
Y2262886D02*
D03*
D40*
X1050000Y1620000D02*
X1350000Y1620000D01*
X1350000Y2300000D01*
X1050000D02*
X1350000D01*
X1050000Y1620000D02*
X1050000Y2300000D01*
D41*
X1284600Y1845700D02*
D03*
Y1896500D02*
D03*
Y1921900D02*
D03*
Y1947300D02*
D03*
Y1972700D02*
D03*
Y1998100D02*
D03*
Y2023500D02*
D03*
Y2048900D02*
D03*
Y2074300D02*
D03*
X1310000Y1845700D02*
D03*
Y1871100D02*
D03*
Y1896500D02*
D03*
Y1921900D02*
D03*
Y1947300D02*
D03*
Y1972700D02*
D03*
Y1998100D02*
D03*
Y2023500D02*
D03*
Y2048900D02*
D03*
Y2074300D02*
D03*
X1094600Y2137800D02*
D03*
Y2112400D02*
D03*
Y2087000D02*
D03*
Y2061600D02*
D03*
Y2036200D02*
D03*
Y2010800D02*
D03*
Y1985400D02*
D03*
Y1960000D02*
D03*
Y1934600D02*
D03*
Y1909200D02*
D03*
Y1883800D02*
D03*
Y1858400D02*
D03*
Y1833000D02*
D03*
Y1807600D02*
D03*
Y1782200D02*
D03*
X1120000Y2137800D02*
D03*
Y2112400D02*
D03*
Y2087000D02*
D03*
Y2061600D02*
D03*
Y2036200D02*
D03*
Y2010800D02*
D03*
Y1985400D02*
D03*
Y1960000D02*
D03*
Y1934600D02*
D03*
Y1909200D02*
D03*
Y1883800D02*
D03*
Y1858400D02*
D03*
Y1833000D02*
D03*
Y1807600D02*
D03*
Y1782200D02*
D03*
D42*
X1162154Y1851152D02*
D03*
X1201100Y1637500D02*
D03*
X1233932Y1917446D02*
D03*
X1232836Y1897126D02*
D03*
X1247140Y2184000D02*
D03*
X1235710Y2267204D02*
D03*
X1224534Y2181352D02*
D03*
X1225550Y2281428D02*
D03*
X1242314Y2204466D02*
D03*
X1256792Y1766824D02*
D03*
X1275080Y1797500D02*
D03*
X1283970Y1814068D02*
D03*
X1322832Y1806956D02*
D03*
X1220978Y1884172D02*
D03*
X1244346Y2028444D02*
D03*
X1231646D02*
D03*
X1235710Y2166874D02*
D03*
X1133856Y2227834D02*
D03*
X1121156D02*
D03*
X1264412Y2061718D02*
D03*
X1267206Y1935226D02*
D03*
X1264746Y1858264D02*
D03*
X1200150Y1884492D02*
D03*
X1182116Y1883918D02*
D03*
X1248156Y1851660D02*
D03*
X1162772Y1904452D02*
D03*
X1255000Y1690000D02*
D03*
X1215728Y1707500D02*
D03*
X1200000Y1680000D02*
D03*
X1266444Y1907032D02*
D03*
X1206246Y2028850D02*
D03*
X1085000Y2215750D02*
D03*
X1200000Y2274250D02*
D03*
M02*
