G04*
G04 #@! TF.GenerationSoftware,Altium Limited,Altium Designer,18.1.6 (161)*
G04*
G04 Layer_Physical_Order=3*
G04 Layer_Color=128*
%FSLAX44Y44*%
%MOMM*%
G71*
G01*
G75*
%ADD21C,3.4000*%
%ADD31C,1.0160*%
%ADD32C,1.3000*%
%ADD33C,0.5000*%
D21*
X510000Y590000D02*
D03*
Y960000D02*
D03*
D31*
X250000Y550000D02*
X550000D01*
Y1000000D01*
X250000D02*
X550000D01*
X250000Y550000D02*
Y1000000D01*
D32*
X271680Y580000D02*
D03*
X424080D02*
D03*
Y625000D02*
D03*
X271680D02*
D03*
X423820Y670000D02*
D03*
X271420D02*
D03*
Y715000D02*
D03*
X423820D02*
D03*
Y760000D02*
D03*
X271420D02*
D03*
Y805000D02*
D03*
X423820D02*
D03*
X271680Y850000D02*
D03*
X424080D02*
D03*
Y895000D02*
D03*
X271680D02*
D03*
X484600Y688400D02*
D03*
Y713800D02*
D03*
Y739200D02*
D03*
Y764600D02*
D03*
Y790000D02*
D03*
Y815400D02*
D03*
Y840800D02*
D03*
Y866200D02*
D03*
Y891600D02*
D03*
X510000Y663000D02*
D03*
Y688400D02*
D03*
Y713800D02*
D03*
Y739200D02*
D03*
Y764600D02*
D03*
Y790000D02*
D03*
Y815400D02*
D03*
Y840800D02*
D03*
Y866200D02*
D03*
Y891600D02*
D03*
D33*
X391160Y972058D02*
D03*
X421386Y985012D02*
D03*
X354330Y934720D02*
D03*
X339344Y838200D02*
D03*
X460000Y878200D02*
D03*
X454999Y849998D02*
D03*
Y824998D02*
D03*
X445000Y765000D02*
D03*
X440000Y735000D02*
D03*
M02*
