G04*
G04 #@! TF.GenerationSoftware,Altium Limited,Altium Designer,18.1.9 (240)*
G04*
G04 Layer_Physical_Order=4*
G04 Layer_Color=16711680*
%FSLAX44Y44*%
%MOMM*%
G71*
G01*
G75*
%ADD24C,0.4000*%
%ADD26C,1.6000*%
%ADD27R,2.0000X1.6000*%
%ADD28O,2.0000X1.6000*%
%ADD29C,3.2000*%
%ADD30C,0.6000*%
D24*
X440000Y735000D02*
X448300Y726700D01*
X517500D01*
X424082Y849998D02*
X454999D01*
X424080Y850000D02*
X424082Y849998D01*
X347980Y970280D02*
X375920D01*
X315976Y938276D02*
X347980Y970280D01*
X322580Y934439D02*
X348260Y960120D01*
X322580Y831342D02*
Y934439D01*
Y831342D02*
X409702Y744220D01*
X416814Y980440D02*
X421386Y985012D01*
X386080Y980440D02*
X416814D01*
X375920Y970280D02*
X386080Y980440D01*
X348260Y960120D02*
X379222D01*
X315976Y828754D02*
Y938276D01*
X379222Y960120D02*
X391160Y972058D01*
X315976Y828754D02*
X407010Y737720D01*
X419250D01*
X409702Y744220D02*
X479580D01*
X419250Y737720D02*
X443170Y713800D01*
X479580Y744220D02*
X484600Y739200D01*
X445000Y765000D02*
X484200D01*
X423820Y760000D02*
X470600Y806780D01*
X484200Y765000D02*
X484600Y764600D01*
X443170Y713800D02*
X484600D01*
X510000Y815400D02*
X524500Y800900D01*
Y734022D02*
Y800900D01*
X438420Y700400D02*
X515000D01*
X423820Y715000D02*
X438420Y700400D01*
X352546Y824998D02*
X454999D01*
X339344Y838200D02*
X352546Y824998D01*
X531000Y715829D02*
Y819800D01*
X516970Y701800D02*
X531000Y715829D01*
X510000Y840800D02*
X531000Y819800D01*
X518500Y728022D02*
X524500Y734022D01*
X518500Y727700D02*
Y728022D01*
X517500Y726700D02*
X518500Y727700D01*
X516400Y701800D02*
X516970D01*
X460000Y878200D02*
X464600Y873600D01*
Y819400D02*
Y873600D01*
X470600Y806780D02*
Y871171D01*
X477629Y878200D01*
X450200Y805000D02*
X464600Y819400D01*
X423820Y805000D02*
X450200D01*
X477629Y878200D02*
X496600D01*
X510000Y891600D01*
X515000Y700400D02*
X516400Y701800D01*
D26*
X271680Y580000D02*
D03*
X424080D02*
D03*
Y625000D02*
D03*
X271680D02*
D03*
X423820Y670000D02*
D03*
X271420D02*
D03*
Y715000D02*
D03*
X423820D02*
D03*
Y760000D02*
D03*
X271420D02*
D03*
Y805000D02*
D03*
X423820D02*
D03*
X271680Y850000D02*
D03*
X424080D02*
D03*
Y895000D02*
D03*
X271680D02*
D03*
D27*
X484600Y663000D02*
D03*
D28*
Y688400D02*
D03*
Y713800D02*
D03*
Y739200D02*
D03*
Y764600D02*
D03*
Y790000D02*
D03*
Y815400D02*
D03*
Y840800D02*
D03*
Y866200D02*
D03*
Y891600D02*
D03*
X510000Y663000D02*
D03*
Y688400D02*
D03*
Y713800D02*
D03*
Y739200D02*
D03*
Y764600D02*
D03*
Y790000D02*
D03*
Y815400D02*
D03*
Y840800D02*
D03*
Y866200D02*
D03*
Y891600D02*
D03*
D29*
Y590000D02*
D03*
Y960000D02*
D03*
D30*
X391160Y972058D02*
D03*
X421386Y985012D02*
D03*
X354076Y985500D02*
D03*
X354330Y934720D02*
D03*
X339344Y838200D02*
D03*
X460000Y878200D02*
D03*
X454999Y849998D02*
D03*
Y824998D02*
D03*
X445000Y765000D02*
D03*
X440000Y735000D02*
D03*
M02*
