G04*
G04 #@! TF.GenerationSoftware,Altium Limited,Altium Designer,18.1.9 (240)*
G04*
G04 Layer_Color=32896*
%FSLAX44Y44*%
%MOMM*%
G71*
G01*
G75*
%ADD10C,0.2000*%
D10*
X353955Y834452D02*
X360619D01*
X363952Y831120D01*
X360619Y827788D01*
X353955D01*
X363952Y824455D02*
Y821123D01*
Y822789D01*
X357287D01*
Y824455D01*
Y816125D02*
X363952D01*
X360619D01*
X358953Y814459D01*
X357287Y812793D01*
Y811126D01*
X355621Y804462D02*
X357287D01*
Y806128D01*
Y802796D01*
Y804462D01*
X362285D01*
X363952Y802796D01*
X357287Y797797D02*
X362285D01*
X363952Y796131D01*
Y791133D01*
X357287D01*
Y786134D02*
Y782802D01*
X358953Y781136D01*
X363952D01*
Y786134D01*
X362285Y787801D01*
X360619Y786134D01*
Y781136D01*
X363952Y777804D02*
Y774472D01*
Y776138D01*
X353955D01*
Y777804D01*
X355621Y752812D02*
X353955Y754478D01*
Y757810D01*
X355621Y759476D01*
X362285D01*
X363952Y757810D01*
Y754478D01*
X362285Y752812D01*
X363952Y747813D02*
Y744481D01*
X362285Y742815D01*
X358953D01*
X357287Y744481D01*
Y747813D01*
X358953Y749480D01*
X362285D01*
X363952Y747813D01*
Y739483D02*
X357287D01*
Y737817D01*
X358953Y736151D01*
X363952D01*
X358953D01*
X357287Y734484D01*
X358953Y732818D01*
X363952D01*
X367284Y729486D02*
X357287D01*
Y724488D01*
X358953Y722822D01*
X362285D01*
X363952Y724488D01*
Y729486D01*
Y717823D02*
Y714491D01*
X362285Y712825D01*
X358953D01*
X357287Y714491D01*
Y717823D01*
X358953Y719489D01*
X362285D01*
X363952Y717823D01*
Y709492D02*
X357287D01*
Y704494D01*
X358953Y702828D01*
X363952D01*
Y694497D02*
Y697830D01*
X362285Y699496D01*
X358953D01*
X357287Y697830D01*
Y694497D01*
X358953Y692831D01*
X360619D01*
Y699496D01*
X363952Y689499D02*
X357287D01*
Y684501D01*
X358953Y682834D01*
X363952D01*
X355621Y677836D02*
X357287D01*
Y679502D01*
Y676170D01*
Y677836D01*
X362285D01*
X363952Y676170D01*
X375749Y831953D02*
X374083Y833619D01*
Y836951D01*
X375749Y838618D01*
X377416D01*
X379082Y836951D01*
Y833619D01*
X380748Y831953D01*
X382414D01*
X384080Y833619D01*
Y836951D01*
X382414Y838618D01*
X375749Y826955D02*
X377416D01*
Y828621D01*
Y825288D01*
Y826955D01*
X382414D01*
X384080Y825288D01*
X377416Y818624D02*
Y815292D01*
X379082Y813626D01*
X384080D01*
Y818624D01*
X382414Y820290D01*
X380748Y818624D01*
Y813626D01*
X375749Y808627D02*
X377416D01*
Y810293D01*
Y806961D01*
Y808627D01*
X382414D01*
X384080Y806961D01*
Y801963D02*
Y798631D01*
Y800297D01*
X377416D01*
Y801963D01*
Y786968D02*
Y791966D01*
X379082Y793632D01*
X382414D01*
X384080Y791966D01*
Y786968D01*
Y773639D02*
X374083D01*
X377416Y770306D01*
X374083Y766974D01*
X384080D01*
Y761976D02*
Y758643D01*
X382414Y756977D01*
X379082D01*
X377416Y758643D01*
Y761976D01*
X379082Y763642D01*
X382414D01*
X384080Y761976D01*
X374083Y746981D02*
X384080D01*
Y751979D01*
X382414Y753645D01*
X379082D01*
X377416Y751979D01*
Y746981D01*
Y743648D02*
X382414D01*
X384080Y741982D01*
Y736984D01*
X377416D01*
X384080Y733651D02*
Y730319D01*
Y731985D01*
X374083D01*
Y733651D01*
X384080Y723655D02*
Y720322D01*
X382414Y718656D01*
X379082D01*
X377416Y720322D01*
Y723655D01*
X379082Y725321D01*
X382414D01*
X384080Y723655D01*
X377416Y705327D02*
X384080Y701995D01*
X377416Y698663D01*
X384080Y695330D02*
Y691998D01*
Y693664D01*
X374083D01*
X375749Y695330D01*
X384080Y687000D02*
Y683668D01*
Y685334D01*
X377416D01*
Y687000D01*
X384080Y672005D02*
Y678669D01*
X377416Y672005D01*
X375749D01*
X374083Y673671D01*
Y677003D01*
X375749Y678669D01*
M02*
