M48
;Layer_Color=9474304
;FILE_FORMAT=2:5
INCH,LZ
;TYPE=PLATED
T1F00S00C0.01181
T2F00S00C0.03543
T3F00S00C0.04331
T5F00S00C0.07087
;TYPE=NON_PLATED
T6F00S00C0.12598
%
T01
X02166Y00466
X01158Y01866
X01044Y0187
X00323Y01965
X00325Y0203
X0024Y01895
X00238Y01193
X0128Y01905
X02252Y00871
X02256Y00769
X02194Y00669
X0233675Y00646
X023715Y006052
X02406Y00679
X02441Y00726
X0247575Y00821
X025105Y00915
X02269Y00567
X02035Y00611
X0315Y0075
Y0083
X0322Y0079
X0329Y0083
Y0075
X0375Y0178
X0389
X03817Y01861
X0375Y0195
X0389
X037Y0246
X03615
X037Y0258
X03635Y02695
X03585
X0353
X03391Y0257
X03465Y02325
X02714Y02482
X02287Y02332
X02256Y02305
X02189Y0208
X02161Y02107
X01538Y02032
X01432Y02278
X01425Y02405
X0167Y02385
X0126509Y0277
X0124009Y02745
X0124Y02865
X01195
X01155
X01054Y02863
X00773Y02813
X0039Y0281
X00395Y02645
X0034Y02565
X00387Y025
X00415Y02525
X003553Y0230518
X0033709Y02247
X00342Y02203
X0036Y0215
X00325Y0209
X00565Y0206
X0095Y025
T02
X01255Y0215991
Y0225991
Y0235991
Y0245991
Y0255991
Y0265991
X0151Y02659
Y02559
Y02459
Y02359
Y02259
Y02159
X0161
Y02059
X0171
X0181
X0191
X0201
X0211
Y02159
X0201
X0191
X0181
X0171
X0161Y02259
Y02359
Y02459
Y02559
Y02659
X0171
X0181
X0191
X0201
X0211
Y02559
Y02459
Y02359
Y02259
X0221
Y02159
Y02359
Y02459
Y02559
Y02659
X0211Y02759
X0201
X0191
X0181
X0171
X0161
X01155Y0275991
Y0265991
Y0255991
Y0245991
Y0235991
Y0225991
Y0215991
Y0205991
X01055
Y0215991
X00955
Y0205991
X00855
Y0215991
X00755
Y0205991
X00655
Y0215991
Y0225991
Y0235991
Y0245991
Y0255991
Y0265991
X00755
X00855
X00955
X01055
Y0275991
X00955
X00855
X00755
X00655
X00555Y0265991
Y0255991
Y0245991
Y0235991
Y0225991
Y0215991
T03
X0121Y0021878
Y0031878
Y0041878
X0151
X0161
X0171
X0181
X0191
Y0031878
Y0021878
X0181
X0171
X0161
X0151
Y0031878
X0161
X0171
X0181
X0211
Y0041878
X0111
X0101
X0091
X0081
Y0031878
Y0021878
X0091
X0101
X0111
Y0031878
X0101
X0091
X0061
Y0041878
Y0051878
Y0061878
Y0071878
Y0081878
Y0091878
Y0101878
Y0111878
Y0121878
Y0131878
Y0141878
Y0151878
Y0161878
Y0171878
X0081
Y0181878
X0091
X0101
X0111
Y0171878
X0101
X0091
Y0161878
X0081
Y0151878
X0091
X0101
Y0161878
X0111
Y0151878
Y0141878
X0101
X0091
X0081
Y0131878
X0091
X0101
X0111
Y0121878
X0101
X0091
X0081
Y0111878
X0091
X0101
X0111
Y0101878
X0101
X0091
X0081
Y0091878
X0091
X0101
X0111
Y0081878
X0101
X0091
X0081
Y0071878
X0091
X0101
X0111
Y0061878
X0101
X0091
X0081
Y0051878
X0091
X0101
X0111
X00165Y01192
Y01292
Y01392
Y01492
Y01592
Y01692
Y01792
Y01892
Y01992
X00065
Y01892
Y01792
Y01692
Y01592
Y01492
Y01392
Y01292
Y01192
X0121Y0121878
Y0131878
Y0141878
Y0151878
Y0161878
Y0171878
Y0181878
X0151
X0161
X0171
X0181
X0191
Y0171878
X0181
X0171
X0161
X0151
Y0161878
X0161
X0171
X0181
X0191
Y0151878
X0181
X0171
X0161
X0151
Y0141878
X0161
X0171
X0181
X0191
Y0131878
X0181
X0171
X0161
X0151
Y0121878
X0161
X0171
X0181
X0191
Y0111878
X0181
X0171
X0161
X0151
Y0101878
X0161
X0171
X0181
X0191
Y0091878
X0181
X0171
X0161
X0151
Y0081878
X0161
X0171
X0181
X0191
Y0071878
X0181
X0171
X0161
X0151
Y0061878
X0161
X0171
X0181
X0191
Y0051878
X0181
X0171
X0161
X0151
X0121
Y0061878
Y0071878
Y0081878
Y0091878
Y0101878
Y0111878
X0211
Y0101878
Y0091878
Y0081878
Y0071878
Y0061878
Y0051878
Y0121878
Y0131878
Y0141878
Y0151878
Y0161878
Y0171878
X0265Y0173
Y0183
Y0193
Y0203
Y0163
Y0153
Y0143
X0325
Y0153
Y0163
Y0173
Y0183
Y0193
Y0203
Y0213
Y0223
Y0233
Y0243
Y0253
Y0263
Y0273
Y0283
Y0293
X03475Y02235
Y02135
X03575
X03675
X03775
Y02235
X03675
X03575
X0265Y0223
Y0233
Y0243
Y0253
Y0263
Y0273
Y0283
Y0293
Y0213
X00165Y02092
X00065
T05
X035308Y005888
Y0077384
Y0095888
X03906Y0103368
Y00514
T06
X0385Y0015
X0015Y0015
X0385Y0295
X0015Y0295
M30
