G04*
G04 #@! TF.GenerationSoftware,Altium Limited,Altium Designer,18.1.9 (240)*
G04*
G04 Layer_Color=8421504*
%FSLAX44Y44*%
%MOMM*%
G71*
G01*
G75*
%ADD14R,1.0000X1.4000*%
%ADD15R,0.5000X1.2000*%
%ADD16R,1.3000X0.7000*%
%ADD17R,0.7000X1.3000*%
%ADD18R,7.0000X8.0000*%
%ADD19R,3.5000X1.6000*%
%ADD20R,0.9000X1.3000*%
%ADD21R,1.3000X0.9000*%
%ADD22R,0.9500X2.6000*%
%ADD23R,5.5000X7.1000*%
D14*
X960780Y601140D02*
D03*
X979780D02*
D03*
X970280Y623140D02*
D03*
X880516Y602664D02*
D03*
X899516D02*
D03*
X890016Y624664D02*
D03*
D15*
X919124Y111506D02*
D03*
X938124D02*
D03*
X798830Y313182D02*
D03*
X779830D02*
D03*
D16*
X922020Y670820D02*
D03*
Y655320D02*
D03*
X897890Y670820D02*
D03*
Y655320D02*
D03*
X917702Y616334D02*
D03*
Y600834D02*
D03*
X940054Y616080D02*
D03*
Y600580D02*
D03*
D17*
X853180Y666750D02*
D03*
X868680D02*
D03*
X832364Y313182D02*
D03*
X816864D02*
D03*
X885692Y111506D02*
D03*
X901192D02*
D03*
D18*
X969518Y472694D02*
D03*
D19*
X866518Y447694D02*
D03*
Y497694D02*
D03*
D20*
X292710Y742950D02*
D03*
X273710D02*
D03*
X330810D02*
D03*
X311810D02*
D03*
X923036Y408178D02*
D03*
X904036D02*
D03*
X944778D02*
D03*
X963778D02*
D03*
D21*
X604520Y589280D02*
D03*
Y608280D02*
D03*
X865632Y216052D02*
D03*
Y235052D02*
D03*
X770382Y215290D02*
D03*
Y234290D02*
D03*
X604520Y547420D02*
D03*
Y566420D02*
D03*
D22*
X841442Y274876D02*
D03*
X795842D02*
D03*
D23*
X818642Y214376D02*
D03*
M02*
