G04*
G04 #@! TF.GenerationSoftware,Altium Limited,Altium Designer,18.1.9 (240)*
G04*
G04 Layer_Physical_Order=1*
G04 Layer_Color=255*
%FSLAX44Y44*%
%MOMM*%
G71*
G01*
G75*
%ADD14R,1.0000X1.4000*%
%ADD15R,0.5000X1.2000*%
%ADD16R,1.3000X0.7000*%
%ADD17R,0.7000X1.3000*%
%ADD18R,7.0000X8.0000*%
%ADD19R,3.5000X1.6000*%
%ADD20R,0.9000X1.3000*%
%ADD21R,1.3000X0.9000*%
%ADD22R,0.9500X2.6000*%
%ADD23R,5.5000X7.1000*%
%ADD42C,1.7000*%
%ADD44C,1.0000*%
%ADD45C,0.4000*%
%ADD46C,0.5000*%
%ADD47C,0.8000*%
%ADD48C,1.6000*%
%ADD49R,3.2000X1.3000*%
%ADD50R,1.3000X3.2000*%
%ADD51R,1.3000X3.7000*%
%ADD52R,2.0000X1.6000*%
%ADD53O,2.0000X1.6000*%
%ADD54C,3.6000*%
%ADD55C,1.5000*%
%ADD56C,3.2000*%
%ADD57C,0.6000*%
G36*
X321310Y718820D02*
X313690Y711200D01*
X296222D01*
X296111Y711246D01*
X293370Y711607D01*
X290629Y711246D01*
X290518Y711200D01*
X285750D01*
Y749282D01*
X321310D01*
Y718820D01*
D02*
G37*
G36*
X929640Y662940D02*
X890270D01*
Y690880D01*
X929640D01*
Y662940D01*
D02*
G37*
G36*
X551180Y657842D02*
X579120D01*
Y618490D01*
X570230Y609600D01*
X562681D01*
X561340Y609776D01*
X560000Y609600D01*
X549910D01*
Y562610D01*
X570230Y562610D01*
X594360Y586740D01*
X594360Y595630D01*
X610852Y595630D01*
Y558800D01*
X595630D01*
X579120Y542290D01*
X571371Y542290D01*
X570706Y543560D01*
X571570Y545645D01*
X571931Y548386D01*
X571570Y551127D01*
X570512Y553681D01*
X568829Y555875D01*
X566636Y557558D01*
X564081Y558616D01*
X561340Y558977D01*
X558599Y558616D01*
X556045Y557558D01*
X553852Y555875D01*
X552169Y553681D01*
X551301Y551586D01*
X549937Y551153D01*
X539750Y561340D01*
X522868Y561340D01*
X521970Y562238D01*
Y657860D01*
X527146D01*
X527773Y656590D01*
X526768Y655281D01*
X525710Y652727D01*
X525350Y649986D01*
X525710Y647245D01*
X526768Y644691D01*
X528452Y642497D01*
X530645Y640814D01*
X533199Y639756D01*
X535940Y639395D01*
X538681Y639756D01*
X541236Y640814D01*
X543429Y642497D01*
X545112Y644691D01*
X546170Y647245D01*
X546531Y649986D01*
X546170Y652727D01*
X545112Y655281D01*
X544108Y656590D01*
X544734Y657860D01*
X551090Y657860D01*
X551180Y657842D01*
D02*
G37*
G36*
X890952Y560752D02*
X889000Y558800D01*
X878840Y558800D01*
X868680Y548640D01*
Y505460D01*
X883920Y505460D01*
X929640Y459740D01*
Y419100D01*
X953770D01*
Y368300D01*
X915670D01*
Y435610D01*
X862330Y488950D01*
X848360D01*
Y505460D01*
X855980D01*
Y566420D01*
X866140Y576580D01*
X890952D01*
Y560752D01*
D02*
G37*
G36*
X988060Y401320D02*
X957580D01*
Y434340D01*
X988060D01*
Y401320D01*
D02*
G37*
G36*
X64770Y293370D02*
X30480D01*
Y312420D01*
X39551D01*
X39804Y311150D01*
X38891Y310772D01*
X37220Y309490D01*
X36204Y308474D01*
X34922Y306803D01*
X34116Y304856D01*
X33841Y302768D01*
X34116Y300680D01*
X34922Y298734D01*
X36204Y297062D01*
X37875Y295780D01*
X39822Y294974D01*
X41910Y294699D01*
X43998Y294974D01*
X44069Y295003D01*
X45776Y295228D01*
X47723Y296034D01*
X49394Y297316D01*
X50676Y298988D01*
X51482Y300934D01*
X51757Y303022D01*
X51482Y305110D01*
X50676Y307057D01*
X49394Y308728D01*
X48632Y309489D01*
X48632Y309490D01*
X46961Y310772D01*
X46048Y311150D01*
X46301Y312420D01*
X64770D01*
Y293370D01*
D02*
G37*
G36*
X787400Y322580D02*
X787400Y309880D01*
X795020Y302260D01*
X817880Y302260D01*
X828040Y292100D01*
Y251460D01*
X848360D01*
Y220980D01*
X856969Y220980D01*
X857349Y220726D01*
X858520Y220493D01*
X874824D01*
X874824Y187443D01*
X889547Y172720D01*
X942340D01*
Y104140D01*
X932180D01*
Y121920D01*
X927100Y127000D01*
X822960D01*
X762519Y187441D01*
X762519Y220980D01*
X789940D01*
Y251460D01*
X807720Y251460D01*
Y294640D01*
X787400Y294640D01*
X774700Y307340D01*
Y322580D01*
X787400Y322580D01*
D02*
G37*
G36*
X910590Y430530D02*
Y396240D01*
X889508D01*
Y278892D01*
X916178Y252222D01*
Y223520D01*
X875132D01*
Y223552D01*
X858520D01*
Y259080D01*
X833120D01*
Y289560D01*
X848360D01*
Y457200D01*
X883920D01*
X910590Y430530D01*
D02*
G37*
G36*
X786384Y289560D02*
X801624D01*
Y260604D01*
X789178D01*
X778002Y249428D01*
X778002Y229108D01*
X761492Y229108D01*
X759460Y227076D01*
X759460Y179324D01*
X816864Y121920D01*
X890270D01*
Y99060D01*
X734060Y99060D01*
X662940Y170180D01*
X662940Y370840D01*
X705104D01*
X786384Y289560D01*
D02*
G37*
%LPC*%
G36*
X561340Y635177D02*
X558599Y634816D01*
X556045Y633758D01*
X553852Y632075D01*
X552169Y629881D01*
X551110Y627327D01*
X550750Y624586D01*
X551110Y621845D01*
X552169Y619291D01*
X553852Y617097D01*
X556045Y615414D01*
X558599Y614356D01*
X561340Y613995D01*
X564081Y614356D01*
X566636Y615414D01*
X568829Y617097D01*
X570512Y619291D01*
X571570Y621845D01*
X571931Y624586D01*
X571570Y627327D01*
X570512Y629881D01*
X568829Y632075D01*
X566636Y633758D01*
X564081Y634816D01*
X561340Y635177D01*
D02*
G37*
G36*
X535940D02*
X533199Y634816D01*
X530645Y633758D01*
X528452Y632075D01*
X526768Y629881D01*
X525710Y627327D01*
X525350Y624586D01*
X525710Y621845D01*
X526768Y619291D01*
X528452Y617097D01*
X530645Y615414D01*
X533199Y614356D01*
X535940Y613995D01*
X538681Y614356D01*
X541236Y615414D01*
X543429Y617097D01*
X545112Y619291D01*
X546170Y621845D01*
X546531Y624586D01*
X546170Y627327D01*
X545112Y629881D01*
X543429Y632075D01*
X541236Y633758D01*
X538681Y634816D01*
X535940Y635177D01*
D02*
G37*
G36*
Y609776D02*
X533199Y609416D01*
X530645Y608358D01*
X528452Y606675D01*
X526768Y604481D01*
X525710Y601927D01*
X525350Y599186D01*
X525710Y596445D01*
X526768Y593891D01*
X528452Y591697D01*
X530645Y590014D01*
X533199Y588956D01*
X535940Y588595D01*
X538681Y588956D01*
X541236Y590014D01*
X543429Y591697D01*
X545112Y593891D01*
X546170Y596445D01*
X546531Y599186D01*
X546170Y601927D01*
X545112Y604481D01*
X543429Y606675D01*
X541236Y608358D01*
X538681Y609416D01*
X535940Y609776D01*
D02*
G37*
G36*
X896824Y170658D02*
X892707Y170252D01*
X888749Y169051D01*
X885101Y167101D01*
X881903Y164477D01*
X879279Y161279D01*
X877329Y157631D01*
X876128Y153673D01*
X875722Y149556D01*
X876128Y145439D01*
X877329Y141481D01*
X879279Y137833D01*
X881903Y134635D01*
X885101Y132011D01*
X888749Y130061D01*
X892707Y128860D01*
X896824Y128454D01*
X900941Y128860D01*
X904899Y130061D01*
X908547Y132011D01*
X911745Y134635D01*
X914369Y137833D01*
X916319Y141481D01*
X917520Y145439D01*
X917926Y149556D01*
X917520Y153673D01*
X916319Y157631D01*
X914369Y161279D01*
X911745Y164477D01*
X908547Y167101D01*
X904899Y169051D01*
X900941Y170252D01*
X896824Y170658D01*
D02*
G37*
%LPD*%
D14*
X960780Y601140D02*
D03*
X979780D02*
D03*
X970280Y623140D02*
D03*
X880516Y602664D02*
D03*
X899516D02*
D03*
X890016Y624664D02*
D03*
D15*
X919124Y111506D02*
D03*
X938124D02*
D03*
X798830Y313182D02*
D03*
X779830D02*
D03*
D16*
X922020Y670820D02*
D03*
Y655320D02*
D03*
X897890Y670820D02*
D03*
Y655320D02*
D03*
X917702Y616334D02*
D03*
Y600834D02*
D03*
X940054Y616080D02*
D03*
Y600580D02*
D03*
D17*
X853180Y666750D02*
D03*
X868680D02*
D03*
X832364Y313182D02*
D03*
X816864D02*
D03*
X885692Y111506D02*
D03*
X901192D02*
D03*
D18*
X969518Y472694D02*
D03*
D19*
X866518Y447694D02*
D03*
Y497694D02*
D03*
D20*
X292710Y742950D02*
D03*
X273710D02*
D03*
X330810D02*
D03*
X311810D02*
D03*
X923036Y408178D02*
D03*
X904036D02*
D03*
X944778D02*
D03*
X963778D02*
D03*
D21*
X604520Y589280D02*
D03*
Y608280D02*
D03*
X865632Y216052D02*
D03*
Y235052D02*
D03*
X770382Y215290D02*
D03*
Y234290D02*
D03*
X604520Y547420D02*
D03*
Y566420D02*
D03*
D22*
X841442Y274876D02*
D03*
X795842D02*
D03*
D23*
X818642Y214376D02*
D03*
D42*
X205740Y55570D02*
D03*
X231140D02*
D03*
X256540D02*
D03*
X281940D02*
D03*
X307340D02*
D03*
X383540D02*
D03*
X408940D02*
D03*
X434340D02*
D03*
X459740D02*
D03*
X485140D02*
D03*
Y461970D02*
D03*
X459740D02*
D03*
X434340D02*
D03*
X408940D02*
D03*
X383540D02*
D03*
X307340D02*
D03*
X281940D02*
D03*
X256540D02*
D03*
X231140D02*
D03*
X205740D02*
D03*
Y436570D02*
D03*
X231140D02*
D03*
X256540D02*
D03*
X281940D02*
D03*
X307340D02*
D03*
X205740Y411170D02*
D03*
X231140D02*
D03*
X256540D02*
D03*
X281940D02*
D03*
X307340D02*
D03*
X205740Y385770D02*
D03*
X231140D02*
D03*
X256540D02*
D03*
X281940D02*
D03*
X307340D02*
D03*
X205740Y360370D02*
D03*
X231140D02*
D03*
X256540D02*
D03*
X281940D02*
D03*
X307340D02*
D03*
X205740Y334970D02*
D03*
X231140D02*
D03*
X256540D02*
D03*
X281940D02*
D03*
X307340D02*
D03*
X205740Y309570D02*
D03*
X231140D02*
D03*
X256540D02*
D03*
X281940D02*
D03*
X307340D02*
D03*
X205740Y284170D02*
D03*
X231140D02*
D03*
X256540D02*
D03*
X281940D02*
D03*
X307340D02*
D03*
X205740Y258770D02*
D03*
X231140D02*
D03*
X256540D02*
D03*
X281940D02*
D03*
X307340D02*
D03*
X205740Y233370D02*
D03*
X231140D02*
D03*
X256540D02*
D03*
X281940D02*
D03*
X307340D02*
D03*
X205740Y207970D02*
D03*
X231140D02*
D03*
X256540D02*
D03*
X281940D02*
D03*
X307340D02*
D03*
X205740Y182570D02*
D03*
X231140D02*
D03*
X256540D02*
D03*
X281940D02*
D03*
X307340D02*
D03*
X205740Y157170D02*
D03*
X231140D02*
D03*
X256540D02*
D03*
X281940D02*
D03*
X307340D02*
D03*
X205740Y131770D02*
D03*
X231140D02*
D03*
X256540D02*
D03*
X281940D02*
D03*
X307340D02*
D03*
X205740Y106370D02*
D03*
X231140D02*
D03*
X256540D02*
D03*
X281940D02*
D03*
X307340D02*
D03*
X205740Y80970D02*
D03*
X231140D02*
D03*
X256540D02*
D03*
X281940D02*
D03*
X307340D02*
D03*
X383540Y436570D02*
D03*
X408940D02*
D03*
X434340D02*
D03*
X459740D02*
D03*
X485140D02*
D03*
X383540Y411170D02*
D03*
X408940D02*
D03*
X434340D02*
D03*
X459740D02*
D03*
X485140D02*
D03*
X383540Y385770D02*
D03*
X408940D02*
D03*
X434340D02*
D03*
X459740D02*
D03*
X485140D02*
D03*
X383540Y360370D02*
D03*
X408940D02*
D03*
X434340D02*
D03*
X459740D02*
D03*
X485140D02*
D03*
X383540Y334970D02*
D03*
X408940D02*
D03*
X434340D02*
D03*
X459740D02*
D03*
X485140D02*
D03*
X383540Y309570D02*
D03*
X408940D02*
D03*
X434340D02*
D03*
X459740D02*
D03*
X485140D02*
D03*
X383540Y284170D02*
D03*
X408940D02*
D03*
X434340D02*
D03*
X459740D02*
D03*
X485140D02*
D03*
X383540Y258770D02*
D03*
X408940D02*
D03*
X434340D02*
D03*
X459740D02*
D03*
X485140D02*
D03*
X383540Y233370D02*
D03*
X408940D02*
D03*
X434340D02*
D03*
X459740D02*
D03*
X485140D02*
D03*
X383540Y207970D02*
D03*
X408940D02*
D03*
X434340D02*
D03*
X459740D02*
D03*
X485140D02*
D03*
X383540Y182570D02*
D03*
X408940D02*
D03*
X434340D02*
D03*
X459740D02*
D03*
X485140D02*
D03*
X383540Y157170D02*
D03*
X408940D02*
D03*
X434340D02*
D03*
X459740D02*
D03*
X485140D02*
D03*
X383540Y131770D02*
D03*
X408940D02*
D03*
X434340D02*
D03*
X459740D02*
D03*
X485140D02*
D03*
X383540Y106370D02*
D03*
X408940D02*
D03*
X434340D02*
D03*
X459740D02*
D03*
X485140D02*
D03*
X383540Y80970D02*
D03*
X408940D02*
D03*
X434340D02*
D03*
X459740D02*
D03*
X485140D02*
D03*
D44*
X447040Y436570D02*
X459740D01*
X434340D02*
X447040D01*
X459740D02*
X485140D01*
X408940D02*
X434340D01*
X383540D02*
X408940D01*
X459740Y411170D02*
X485140D01*
X434340D02*
X459740D01*
X408940D02*
X434340D01*
X383540D02*
X408940D01*
X459740Y385770D02*
X485140D01*
X434340D02*
X459740D01*
X408940D02*
X434340D01*
X383540D02*
X408940D01*
X459740Y360370D02*
X485140D01*
X434340D02*
X459740D01*
X408940D02*
X434340D01*
X383540D02*
X408940D01*
X459740Y334970D02*
X485140D01*
X434340D02*
X459740D01*
X408940D02*
X434340D01*
X383540D02*
X408940D01*
X459740Y309570D02*
X485140D01*
X434340D02*
X459740D01*
X408940D02*
X434340D01*
X383540D02*
X408940D01*
X459740Y284170D02*
X485140D01*
X434340D02*
X459740D01*
X408940D02*
X434340D01*
X383540D02*
X408940D01*
X459740Y258770D02*
X485140D01*
X434340D02*
X459740D01*
X408940D02*
X434340D01*
X383540D02*
X408940D01*
X459740Y233370D02*
X485140D01*
X434340D02*
X459740D01*
X408940D02*
X434340D01*
X383540D02*
X408940D01*
X459740Y207970D02*
X485140D01*
X434340D02*
X459740D01*
X408940D02*
X434340D01*
X383540D02*
X408940D01*
X459740Y182570D02*
X485140D01*
X434340D02*
X459740D01*
X408940D02*
X434340D01*
X383540D02*
X408940D01*
X459740Y157170D02*
X485140D01*
X434340D02*
X459740D01*
X408940D02*
X434340D01*
X383540D02*
X408940D01*
X459740Y131770D02*
X485140D01*
X434340D02*
X459740D01*
X408940D02*
X434340D01*
X383540D02*
X408940D01*
X459740Y106370D02*
X485140D01*
X434340D02*
X459740D01*
X408940D02*
X434340D01*
X383540D02*
X408940D01*
X459740Y80970D02*
X485140D01*
X434340D02*
X459740D01*
X408940D02*
X434340D01*
X383540D02*
X408940D01*
X205740Y436570D02*
X231140D01*
X281940D02*
X307340D01*
X256540D02*
X281940D01*
X231140D02*
X256540D01*
X205740Y411170D02*
X231140D01*
X281940D02*
X307340D01*
X256540D02*
X281940D01*
X231140D02*
X256540D01*
X281940Y385770D02*
X307340D01*
X256540D02*
X281940D01*
X231140D02*
X256540D01*
X205740D02*
X231140D01*
X281940Y360370D02*
X307340D01*
X256540D02*
X281940D01*
X231140D02*
X256540D01*
X205740D02*
X231140D01*
X281940Y334970D02*
X307340D01*
X256540D02*
X281940D01*
X231140D02*
X256540D01*
X205740D02*
X231140D01*
X281940Y309570D02*
X307340D01*
X256540D02*
X281940D01*
X231140D02*
X256540D01*
X205740D02*
X231140D01*
X281940Y284170D02*
X307340D01*
X256540D02*
X281940D01*
X231140D02*
X256540D01*
X205740D02*
X231140D01*
X281940Y258770D02*
X307340D01*
X256540D02*
X281940D01*
X231140D02*
X256540D01*
X205740D02*
X231140D01*
X281940Y233370D02*
X307340D01*
X256540D02*
X281940D01*
X231140D02*
X256540D01*
X205740D02*
X231140D01*
X281940Y207970D02*
X307340D01*
X256540D02*
X281940D01*
X231140D02*
X256540D01*
X205740D02*
X231140D01*
X281940Y182570D02*
X307340D01*
X256540D02*
X281940D01*
X231140D02*
X256540D01*
X205740D02*
X231140D01*
X281940Y157170D02*
X307340D01*
X256540D02*
X281940D01*
X231140D02*
X256540D01*
X205740D02*
X231140D01*
X281940Y131770D02*
X307340D01*
X256540D02*
X281940D01*
X231140D02*
X256540D01*
X205740D02*
X231140D01*
X281940Y106370D02*
X307340D01*
X256540D02*
X281940D01*
X231140D02*
X256540D01*
X205740D02*
X231140D01*
X281940Y80970D02*
X307340D01*
X256540D02*
X281940D01*
X231140D02*
X256540D01*
X205740D02*
X231140D01*
X949830Y616080D02*
X960780Y605130D01*
Y601140D02*
Y605130D01*
X940054Y616080D02*
X949830D01*
X963778Y466954D02*
X969518Y472694D01*
X917702Y616334D02*
X939800D01*
X940054Y616080D01*
X939800Y616334D02*
Y624840D01*
X917702Y616334D02*
X918210Y616842D01*
Y624840D01*
X880110Y602258D02*
X880516Y602664D01*
X880110Y590550D02*
Y602258D01*
X42926Y303784D02*
X43688Y303022D01*
X41910Y302768D02*
X42926Y303784D01*
X321334Y703580D02*
X330810Y713056D01*
X314984Y697230D02*
X321334Y703580D01*
X585420Y528320D02*
X604520Y547420D01*
X556006Y528320D02*
X585420D01*
X535940Y548386D02*
X556006Y528320D01*
X590500Y608280D02*
X604520D01*
X581660Y599440D02*
X590500Y608280D01*
X581660Y594106D02*
Y599440D01*
X561340Y573786D02*
X581660Y594106D01*
X330810Y713056D02*
Y742950D01*
X267970Y737210D02*
X273710Y742950D01*
X267970Y701016D02*
Y737210D01*
X825500Y439420D02*
X828040Y436880D01*
D45*
X447240Y436770D02*
Y489950D01*
X434340Y502850D02*
X447240Y489950D01*
X447040Y436570D02*
X447240Y436770D01*
X434340Y502850D02*
Y522986D01*
X512826Y390776D02*
Y466852D01*
X520836Y373460D02*
Y471288D01*
X507746Y360370D02*
X520836Y373460D01*
X503174Y488950D02*
X520836Y471288D01*
X507622Y385572D02*
X512826Y390776D01*
X500380Y479298D02*
X512826Y466852D01*
X371658Y411170D02*
X383540D01*
X485140Y385572D02*
X507622D01*
X485140Y360370D02*
X507746D01*
X485140Y334970D02*
X507238D01*
X485140Y309570D02*
X507436D01*
X485140Y283718D02*
X507238D01*
X485140Y258318D02*
X506984D01*
X485140Y233370D02*
X506024D01*
X485140Y207970D02*
X508310D01*
X485140Y182570D02*
X506848D01*
X485140Y155194D02*
X516890D01*
X485140Y131770D02*
X509722D01*
X485140Y106370D02*
X507182D01*
X485140Y80970D02*
X506730D01*
X307340Y437134D02*
X322834D01*
X254848D02*
X256540D01*
X339090Y397510D02*
Y579096D01*
X346710Y353220D02*
Y596876D01*
X327914Y386334D02*
X339090Y397510D01*
X318770Y599416D02*
X339090Y579096D01*
X329024Y335534D02*
X346710Y353220D01*
X318770Y624816D02*
X346710Y596876D01*
X354330Y305054D02*
Y614656D01*
X334010Y284734D02*
X354330Y305054D01*
X361696Y421132D02*
X371658Y411170D01*
X361696Y421132D02*
Y480314D01*
X185674Y411170D02*
X205740D01*
X169672Y375666D02*
Y469900D01*
Y375666D02*
X184968Y360370D01*
X169672Y469900D02*
X191008Y491236D01*
X307340Y386334D02*
X327914D01*
X254848D02*
X256540D01*
X184968Y360370D02*
X205740D01*
X307340Y335534D02*
X329024D01*
X254848D02*
X256540D01*
X184150Y310134D02*
X205740D01*
X307340Y284734D02*
X334010D01*
X185166Y258770D02*
X205740D01*
X185166Y233370D02*
X205740D01*
X185166Y207970D02*
X205740D01*
X185420Y182570D02*
X205740D01*
X185166Y157170D02*
X205740D01*
X186492Y131770D02*
X205740D01*
X185928Y106370D02*
X205740D01*
X185420Y80772D02*
X205740D01*
X515032Y40560D02*
X646494Y172022D01*
X517652Y30480D02*
X655320Y168148D01*
X174070Y40560D02*
X515032D01*
X646494Y172022D02*
Y489013D01*
X166116Y30480D02*
X517652D01*
X655320Y168148D02*
Y471170D01*
X81280Y133350D02*
X174070Y40560D01*
X73406Y123190D02*
X166116Y30480D01*
X567055Y313055D02*
Y461899D01*
X510540Y518414D02*
X567055Y461899D01*
X510540Y518414D02*
Y522986D01*
X558228Y328358D02*
Y458279D01*
X497078Y519430D02*
X558228Y458279D01*
X497078Y519430D02*
Y539242D01*
X549402Y353320D02*
Y454660D01*
X501272Y502790D02*
X549402Y454660D01*
X491620Y502790D02*
X501272D01*
X482600Y488950D02*
X503174D01*
X487934Y548386D02*
X497078Y539242D01*
X363728Y579882D02*
X370840Y586994D01*
X363728Y578612D02*
Y579882D01*
X573574Y721614D02*
X636524Y658664D01*
X500888Y721614D02*
X573574D01*
X485140Y705866D02*
X500888Y721614D01*
X583523Y730504D02*
X643636Y670391D01*
X495046Y730504D02*
X583523D01*
X473640Y709098D02*
X495046Y730504D01*
X489839Y738505D02*
X594995D01*
X459740Y708406D02*
X489839Y738505D01*
X594995D02*
X650494Y683006D01*
X603504Y747776D02*
X657860Y693420D01*
X483870Y747776D02*
X603504D01*
X448240Y712146D02*
X483870Y747776D01*
X459740Y700786D02*
Y708406D01*
X485140Y700786D02*
Y705866D01*
X522224Y712470D02*
X567690D01*
X510540Y700786D02*
X522224Y712470D01*
X473640Y686886D02*
Y709098D01*
X636524Y527050D02*
Y658664D01*
X629920Y532130D02*
Y650240D01*
X567690Y712470D02*
X629920Y650240D01*
X643636Y522478D02*
Y670391D01*
X650494Y518414D02*
Y683006D01*
X657860Y513080D02*
Y693420D01*
X637667Y492887D02*
X657860Y513080D01*
X459740Y700786D02*
Y704850D01*
X619548Y755862D02*
X656590Y718820D01*
X389678Y755862D02*
X619548D01*
X378460Y767080D02*
X389678Y755862D01*
X243586Y499618D02*
X255270Y511302D01*
X174498Y499618D02*
X243586D01*
X141098Y466218D02*
X174498Y499618D01*
X265176Y491236D02*
X280416Y506476D01*
X191008Y491236D02*
X265176D01*
X283464Y482854D02*
X306070Y505460D01*
X198628Y482854D02*
X283464D01*
X178054Y462280D02*
X198628Y482854D01*
X628840Y496760D02*
X650494Y518414D01*
X620014Y498856D02*
X643636Y522478D01*
X611124Y501650D02*
X636524Y527050D01*
X593954Y507594D02*
X623570Y537210D01*
X593535Y507594D02*
X593954D01*
X584708Y508508D02*
X615950Y539750D01*
X602361Y504571D02*
X629920Y532130D01*
X611124Y172466D02*
Y501650D01*
X584708Y132490D02*
Y508508D01*
X602361Y504571D02*
X602361Y153720D01*
X620014Y498856D02*
X620014Y184404D01*
X628840Y208534D02*
Y496760D01*
X584708Y132490D02*
X584708Y132490D01*
X575882Y293941D02*
Y466130D01*
X552710Y270770D02*
X575882Y293941D01*
X551570Y297570D02*
X567055Y313055D01*
X521090Y297570D02*
X551570D01*
X552840Y322970D02*
X558228Y328358D01*
X520836Y322970D02*
X552840D01*
X543052Y346970D02*
X549402Y353320D01*
X519238Y346970D02*
X543052D01*
X518024Y221370D02*
X571618D01*
X637667Y232410D02*
Y492887D01*
X646494Y489013D02*
X673100Y515620D01*
X655320Y471170D02*
X661670Y477520D01*
X557022Y169926D02*
X557276D01*
X572516Y195834D02*
X573024Y195326D01*
X522040Y519971D02*
X575882Y466130D01*
X593535Y164084D02*
Y507594D01*
X545436Y93218D02*
X584708Y132490D01*
X361696Y480314D02*
X377190Y495808D01*
X413004D02*
X421640Y504444D01*
X377190Y495808D02*
X413004D01*
X129470Y503866D02*
Y592004D01*
X121786Y496182D02*
X129470Y503866D01*
X121786Y239996D02*
Y496182D01*
X123470Y509550D02*
Y598180D01*
X115349Y501429D02*
X123470Y509550D01*
X115349Y221033D02*
Y501429D01*
X105410Y530098D02*
Y618236D01*
X96037Y520725D02*
X105410Y530098D01*
X96037Y164144D02*
Y520725D01*
X111410Y522128D02*
Y611520D01*
X102474Y513192D02*
X111410Y522128D01*
X102474Y183107D02*
Y513192D01*
X108912Y507946D02*
X117410Y516444D01*
X108912Y202070D02*
Y507946D01*
X117410Y516444D02*
Y603074D01*
X98440Y536052D02*
Y622882D01*
Y536052D02*
X98846Y535646D01*
X89600Y526400D02*
X98846Y535646D01*
X89600Y145182D02*
Y526400D01*
X115349Y221033D02*
X141098Y195284D01*
X59690Y378460D02*
X81280Y356870D01*
Y133350D02*
Y356870D01*
X41910Y353568D02*
X73406Y322072D01*
Y123190D02*
Y322072D01*
X121786Y239996D02*
X141288Y220493D01*
X128223Y485746D02*
X153670Y511193D01*
X128223Y258958D02*
Y485746D01*
Y258958D02*
X141312Y245870D01*
X134660Y471210D02*
X171450Y508000D01*
X134660Y277921D02*
Y471210D01*
Y277921D02*
X141310Y271272D01*
X172664D01*
X96037Y164144D02*
X141521Y118661D01*
X102474Y183107D02*
X141394Y144188D01*
X108912Y202070D02*
X141310Y169672D01*
X141098Y326516D02*
X145796Y321818D01*
X141098Y326516D02*
Y466218D01*
X255270Y511302D02*
Y586716D01*
X280416Y506476D02*
Y583106D01*
X178054Y418790D02*
Y462280D01*
Y418790D02*
X185674Y411170D01*
X521970Y144018D02*
X575818D01*
X509722Y131770D02*
X521970Y144018D01*
X519182Y118370D02*
X550158D01*
X518922Y93218D02*
X545436D01*
X471424Y500126D02*
X482600Y488950D01*
X475742Y479298D02*
X500380D01*
X459740Y495300D02*
X475742Y479298D01*
X421640Y504444D02*
Y535686D01*
X172664Y271272D02*
X185166Y258770D01*
X518922Y93162D02*
Y93218D01*
X506730Y80970D02*
X518922Y93162D01*
X507182Y106370D02*
X519182Y118370D01*
X550158D02*
X550164Y118364D01*
X556768Y169672D02*
X557022Y169926D01*
X519746Y169672D02*
X556768D01*
X506848Y182570D02*
X519746Y169672D01*
X520446Y195834D02*
X572516D01*
X508310Y207970D02*
X520446Y195834D01*
X571754Y221234D02*
X572008D01*
X571618Y221370D02*
X571754Y221234D01*
X506024Y233370D02*
X518024Y221370D01*
X506984Y258318D02*
X519436Y270770D01*
X552710D01*
X507238Y283718D02*
X521090Y297570D01*
X507436Y309570D02*
X520836Y322970D01*
X507238Y334970D02*
X519238Y346970D01*
X318770Y650216D02*
X354330Y614656D01*
X145796Y321818D02*
X172466D01*
X184150Y310134D01*
X141312Y245870D02*
X172666D01*
X185166Y233370D01*
X141288Y220493D02*
X172643D01*
X185166Y207970D01*
X141098Y195284D02*
X172706D01*
X185420Y182570D01*
X141310Y169672D02*
X172664D01*
X185166Y157170D01*
X141824Y92970D02*
X173222D01*
X185420Y80772D01*
X141818Y92964D02*
X141824Y92970D01*
X141521Y118661D02*
X173637D01*
X185928Y106370D01*
X174074Y144188D02*
X186492Y131770D01*
X141394Y144188D02*
X174074D01*
X89600Y145182D02*
X141818Y92964D01*
X929894Y221742D02*
Y321310D01*
X904708Y196556D02*
X929894Y221742D01*
X896824Y196556D02*
X904708D01*
X921004Y330200D02*
X929894Y321310D01*
X815594Y515620D02*
X825500D01*
X808736Y508762D02*
X815594Y515620D01*
X808736Y350774D02*
Y508762D01*
Y350774D02*
X824364Y335146D01*
X948260Y645160D02*
X970280Y623140D01*
X939800Y645160D02*
X948260D01*
X932180D02*
X939800D01*
X922020Y655320D02*
Y655320D01*
Y655320D02*
X932180Y645160D01*
X959104Y588010D02*
X976630D01*
X942848D02*
X959104D01*
X979780Y591160D02*
Y601140D01*
X976630Y588010D02*
X979780Y591160D01*
X896050Y557468D02*
Y589280D01*
X899516Y592746D01*
Y602664D01*
X882650Y544068D02*
X896050Y557468D01*
X855804Y624664D02*
X890016D01*
X844550Y613410D02*
X855804Y624664D01*
X844550Y509270D02*
Y613410D01*
X901192Y111506D02*
X901954Y112268D01*
X919378D01*
X868680Y658622D02*
Y666750D01*
X862838Y652780D02*
X868680Y658622D01*
X861314Y652780D02*
X862838D01*
X905200Y330200D02*
X921004D01*
X940054Y590804D02*
Y600580D01*
Y590804D02*
X942848Y588010D01*
X958850Y587756D02*
X959104Y588010D01*
X958850Y567690D02*
Y587756D01*
X824364Y321182D02*
Y335146D01*
Y321182D02*
X832364Y313182D01*
X844550Y509270D02*
X844550D01*
X825500Y490220D02*
X844550Y509270D01*
X882650Y542290D02*
Y544068D01*
X901346Y600834D02*
X917702D01*
X897890Y632538D02*
Y655320D01*
X890016Y624664D02*
X897890Y632538D01*
X939800Y645160D02*
Y655320D01*
X798830Y313182D02*
X816864D01*
X67960Y563230D02*
X90246Y585516D01*
X171450Y508000D02*
X222250D01*
X459740Y495300D02*
Y522986D01*
X485140Y509270D02*
X491620Y502790D01*
X522040Y519971D02*
Y536886D01*
X510540Y548386D02*
X522040Y536886D01*
X74930Y421640D02*
Y560046D01*
X57150Y403860D02*
X74930Y421640D01*
X67960Y443880D02*
Y563230D01*
X53848Y429768D02*
X67960Y443880D01*
X41910Y429768D02*
X53848D01*
X28702Y441960D02*
X49530D01*
X74930Y560046D02*
X85622Y570738D01*
X689356Y658876D02*
X723900Y693420D01*
X689356Y630428D02*
Y658876D01*
X390652Y530098D02*
X408940Y548386D01*
X390652Y516128D02*
Y530098D01*
X370840Y586994D02*
X396748D01*
X92710Y661670D02*
X98298Y656082D01*
Y635000D02*
Y656082D01*
X98259Y623769D02*
X138607Y664116D01*
X98259Y623062D02*
Y623769D01*
X154870Y613316D02*
X166370Y624816D01*
X154870Y638716D02*
X166370Y650216D01*
X154870Y664116D02*
X166370Y675616D01*
X138607Y664116D02*
X154870D01*
X138607Y638716D02*
X154870D01*
X111410Y611520D02*
X138607Y638716D01*
Y613316D02*
X154870D01*
X123470Y598180D02*
X138607Y613316D01*
X117410Y603074D02*
X139152Y624816D01*
X137390Y650216D02*
X140970D01*
X105410Y618236D02*
X137390Y650216D01*
X98259Y623062D02*
X98440Y622882D01*
X85622Y570738D02*
X85646D01*
X129470Y592004D02*
X136882Y599416D01*
X153670Y511193D02*
Y589280D01*
X139152Y624816D02*
X140970D01*
X136882Y599416D02*
X140970D01*
X280416Y583106D02*
X293370Y596060D01*
Y574016D02*
X306070Y561316D01*
Y505460D02*
Y561316D01*
X318770Y574016D02*
X332486Y560300D01*
Y446786D02*
Y560300D01*
X322834Y437134D02*
X332486Y446786D01*
X461264Y548386D02*
X471424Y538226D01*
Y500126D02*
Y538226D01*
X396748Y586994D02*
X408940Y599186D01*
X397440Y613086D02*
X408940Y624586D01*
X372164Y613086D02*
X397440D01*
X287782Y662432D02*
X322818D01*
X372164Y613086D01*
X219860Y594510D02*
X287782Y662432D01*
X280670Y683260D02*
X284988Y687578D01*
X280670Y668020D02*
Y683260D01*
X247650Y635000D02*
X280670Y668020D01*
X334772Y687578D02*
X370840Y651510D01*
X284988Y687578D02*
X334772D01*
X196342Y729996D02*
X239950Y773604D01*
X196342Y714502D02*
Y729996D01*
X205670Y687116D02*
X217170Y675616D01*
X205670Y687116D02*
Y727640D01*
X245110Y767080D01*
X229362Y738632D02*
X251460Y760730D01*
X229362Y670892D02*
Y738632D01*
X191770Y633300D02*
X229362Y670892D01*
X255778Y747348D02*
X262810Y754380D01*
X255778Y671068D02*
Y747348D01*
X204470Y619760D02*
X255778Y671068D01*
X245110Y767080D02*
X378460D01*
X473640Y686886D02*
X485140Y675386D01*
X448240Y686886D02*
Y712146D01*
Y686886D02*
X459740Y675386D01*
X57150Y622300D02*
X86360Y651510D01*
X57150Y495808D02*
Y622300D01*
X41910Y480568D02*
X57150Y495808D01*
X689610Y483870D02*
Y532892D01*
X683260Y477520D02*
X689610Y483870D01*
X661670Y477520D02*
X683260D01*
X681482Y541020D02*
X689610Y532892D01*
X239950Y773604D02*
X382096D01*
X391160Y764540D01*
X525780Y688340D02*
X575310D01*
X512826Y675386D02*
X525780Y688340D01*
X510540Y675386D02*
X512826D01*
X673100Y541020D02*
X681482D01*
X99060Y673100D02*
Y713740D01*
Y673100D02*
X100330Y671830D01*
X851910Y668020D02*
X853180Y666750D01*
X825500Y668020D02*
X851910D01*
X359410Y754380D02*
X397150Y716640D01*
X262810Y754380D02*
X359410D01*
X251460Y760730D02*
X370840D01*
X391160Y764540D02*
X698500D01*
X370840Y760730D02*
X421640Y709930D01*
Y662686D02*
Y709930D01*
X397150Y638195D02*
Y716640D01*
X623570Y537210D02*
Y640080D01*
X615950Y539750D02*
Y631190D01*
X485140Y509270D02*
Y522986D01*
X575310Y688340D02*
X623570Y640080D01*
X584200Y662940D02*
X615950Y631190D01*
X698500Y764540D02*
X744220Y718820D01*
X656590D02*
X673100D01*
X744220D02*
X825500D01*
X241300Y635000D02*
X247650D01*
X204470Y534670D02*
Y619760D01*
Y534670D02*
X215924Y523216D01*
X219860Y551306D02*
Y594510D01*
X217170Y548616D02*
X219860Y551306D01*
X191770Y548616D02*
Y633300D01*
X215924Y523216D02*
X217170D01*
X222250Y508000D02*
X229870Y515620D01*
X538734Y675386D02*
X551180Y662940D01*
X584200D01*
X535940Y675386D02*
X538734D01*
X723900Y693420D02*
X825500D01*
X16510Y429768D02*
X28702Y441960D01*
X60960Y453390D02*
Y481330D01*
X49530Y441960D02*
X60960Y453390D01*
X229870Y586716D02*
X293370Y650216D01*
X229870Y515620D02*
Y586716D01*
X71120Y661670D02*
X92710D01*
X16510Y531368D02*
Y607060D01*
X71120Y661670D01*
X41910Y378968D02*
X42418Y378460D01*
X59690D01*
X383540Y624586D02*
X397150Y638195D01*
X382016Y651510D02*
X383540Y649986D01*
X370840Y651510D02*
X382016D01*
X41910Y404368D02*
X42418Y403860D01*
X57150D01*
X408940Y649986D02*
X421640Y662686D01*
X163806Y599416D02*
X166370D01*
X153670Y589280D02*
X163806Y599416D01*
X255270Y586716D02*
X293370Y624816D01*
Y596060D02*
Y599416D01*
X485140Y548386D02*
X487934D01*
X459740D02*
X461264D01*
X421640Y535686D02*
X434340Y548386D01*
D46*
X383540Y80772D02*
Y80970D01*
X254848Y335534D02*
X254848D01*
X254848D02*
X254848Y335534D01*
D47*
X330810Y713056D02*
X331470Y713716D01*
X330810Y742950D02*
X331470Y742290D01*
Y713716D02*
Y742290D01*
D48*
X154940Y436570D02*
D03*
Y411170D02*
D03*
Y385770D02*
D03*
Y360370D02*
D03*
Y334970D02*
D03*
Y309570D02*
D03*
Y284170D02*
D03*
Y258770D02*
D03*
Y233370D02*
D03*
Y207970D02*
D03*
Y182570D02*
D03*
Y157170D02*
D03*
Y131770D02*
D03*
Y106370D02*
D03*
Y80970D02*
D03*
X535940D02*
D03*
Y106370D02*
D03*
Y131770D02*
D03*
Y157170D02*
D03*
Y182570D02*
D03*
Y207970D02*
D03*
Y233370D02*
D03*
Y258770D02*
D03*
Y284170D02*
D03*
Y309570D02*
D03*
Y334970D02*
D03*
Y360370D02*
D03*
Y385770D02*
D03*
Y411170D02*
D03*
Y436570D02*
D03*
X882650Y542290D02*
D03*
X908050D02*
D03*
X933450D02*
D03*
X958850D02*
D03*
Y567690D02*
D03*
X933450D02*
D03*
X908050D02*
D03*
X882650D02*
D03*
D49*
X935200Y377200D02*
D03*
D50*
X965200Y330200D02*
D03*
D51*
X905200D02*
D03*
D52*
X41910Y302768D02*
D03*
X825500Y363220D02*
D03*
D53*
X41910Y328168D02*
D03*
Y353568D02*
D03*
Y378968D02*
D03*
Y404368D02*
D03*
Y429768D02*
D03*
Y455168D02*
D03*
Y480568D02*
D03*
Y505968D02*
D03*
Y531368D02*
D03*
X16510Y302768D02*
D03*
Y328168D02*
D03*
Y353568D02*
D03*
Y378968D02*
D03*
Y404368D02*
D03*
Y429768D02*
D03*
Y455168D02*
D03*
Y480568D02*
D03*
Y505968D02*
D03*
Y531368D02*
D03*
X825500Y744220D02*
D03*
X673100D02*
D03*
Y718820D02*
D03*
Y693420D02*
D03*
Y668020D02*
D03*
Y642620D02*
D03*
Y617220D02*
D03*
Y591820D02*
D03*
Y566420D02*
D03*
Y541020D02*
D03*
Y515620D02*
D03*
Y490220D02*
D03*
Y464820D02*
D03*
Y439420D02*
D03*
Y414020D02*
D03*
Y388620D02*
D03*
Y363220D02*
D03*
X825500Y718820D02*
D03*
Y693420D02*
D03*
Y668020D02*
D03*
Y642620D02*
D03*
Y617220D02*
D03*
Y591820D02*
D03*
Y566420D02*
D03*
Y541020D02*
D03*
Y515620D02*
D03*
Y490220D02*
D03*
Y464820D02*
D03*
Y439420D02*
D03*
Y414020D02*
D03*
Y388620D02*
D03*
D54*
X896824Y243556D02*
D03*
Y149556D02*
D03*
X992124Y262556D02*
D03*
Y130556D02*
D03*
X896824Y196556D02*
D03*
D55*
X318770Y548616D02*
D03*
Y574016D02*
D03*
Y599416D02*
D03*
Y624816D02*
D03*
Y650216D02*
D03*
Y675616D02*
D03*
X293370Y523216D02*
D03*
Y548616D02*
D03*
Y574016D02*
D03*
Y599416D02*
D03*
Y624816D02*
D03*
Y650216D02*
D03*
Y675616D02*
D03*
Y701016D02*
D03*
X267970Y523216D02*
D03*
Y548616D02*
D03*
Y675616D02*
D03*
Y701016D02*
D03*
X242570Y523216D02*
D03*
Y548616D02*
D03*
Y675616D02*
D03*
Y701016D02*
D03*
X217170Y523216D02*
D03*
Y548616D02*
D03*
Y675616D02*
D03*
Y701016D02*
D03*
X191770Y523216D02*
D03*
Y548616D02*
D03*
Y675616D02*
D03*
Y701016D02*
D03*
X166370Y523216D02*
D03*
Y548616D02*
D03*
Y574016D02*
D03*
Y599416D02*
D03*
Y624816D02*
D03*
Y650216D02*
D03*
Y675616D02*
D03*
Y701016D02*
D03*
X140970Y548616D02*
D03*
Y574016D02*
D03*
Y599416D02*
D03*
Y624816D02*
D03*
Y650216D02*
D03*
Y675616D02*
D03*
X408940Y522986D02*
D03*
X434340D02*
D03*
X459740D02*
D03*
X485140D02*
D03*
X510540D02*
D03*
X535940D02*
D03*
X383540Y548386D02*
D03*
X408940D02*
D03*
X434340D02*
D03*
X459740D02*
D03*
X485140D02*
D03*
X510540D02*
D03*
X535940D02*
D03*
X561340D02*
D03*
X383540Y573786D02*
D03*
X408940D02*
D03*
X535940D02*
D03*
X561340D02*
D03*
X383540Y599186D02*
D03*
X408940D02*
D03*
X535940D02*
D03*
X561340D02*
D03*
X383540Y624586D02*
D03*
X408940D02*
D03*
X535940D02*
D03*
X561340D02*
D03*
X383540Y649986D02*
D03*
X408940D02*
D03*
X535940D02*
D03*
X561340D02*
D03*
X383540Y675386D02*
D03*
X408940D02*
D03*
X434340D02*
D03*
X459740D02*
D03*
X485140D02*
D03*
X510540D02*
D03*
X535940D02*
D03*
X561340D02*
D03*
X408940Y700786D02*
D03*
X434340D02*
D03*
X459740D02*
D03*
X485140D02*
D03*
X510540D02*
D03*
X535940D02*
D03*
D56*
X38100Y749300D02*
D03*
Y38100D02*
D03*
X977900Y749300D02*
D03*
Y38100D02*
D03*
D57*
X363728Y578612D02*
D03*
X86868Y559562D02*
D03*
X611124Y172466D02*
D03*
X628840Y208534D02*
D03*
X620014Y184404D02*
D03*
X637667Y232410D02*
D03*
X557276Y169926D02*
D03*
X573024Y195326D02*
D03*
X593535Y164084D02*
D03*
X602361Y153720D02*
D03*
X516890Y155194D02*
D03*
X576326Y144018D02*
D03*
X550164Y118364D02*
D03*
X572008Y221234D02*
D03*
X969518Y472694D02*
D03*
X952500Y452120D02*
D03*
X988060D02*
D03*
Y495300D02*
D03*
X952500D02*
D03*
X918210Y624840D02*
D03*
X939800D02*
D03*
X880110Y590550D02*
D03*
X817880Y200660D02*
D03*
X835660Y210820D02*
D03*
X800100D02*
D03*
Y190500D02*
D03*
X835660D02*
D03*
X861314Y652780D02*
D03*
X82042Y499110D02*
D03*
X90246Y585516D02*
D03*
X265176Y474980D02*
D03*
X294132Y473964D02*
D03*
X689356Y630428D02*
D03*
X390652Y516128D02*
D03*
X267716Y727202D02*
D03*
X98298Y635000D02*
D03*
X85622Y570738D02*
D03*
X91440Y546100D02*
D03*
X196342Y714502D02*
D03*
X939800Y655320D02*
D03*
X60452Y303022D02*
D03*
X580898Y592328D02*
D03*
X573024Y585470D02*
D03*
X548894Y535178D02*
D03*
X556006Y528320D02*
D03*
X896620Y684530D02*
D03*
X910590D02*
D03*
X923290D02*
D03*
X99060Y713740D02*
D03*
X100330Y671830D02*
D03*
X241300Y635000D02*
D03*
X424180Y605790D02*
D03*
X321334Y703580D02*
D03*
X314984Y697230D02*
D03*
X314960Y727710D02*
D03*
X303530D02*
D03*
X293370D02*
D03*
X60960Y481330D02*
D03*
X105410Y641350D02*
D03*
X325120Y483870D02*
D03*
X361950Y610870D02*
D03*
X143510Y523240D02*
D03*
X82550Y530860D02*
D03*
X86360Y651510D02*
D03*
X82550Y515620D02*
D03*
M02*
