G04*
G04 #@! TF.GenerationSoftware,Altium Limited,Altium Designer,18.1.9 (240)*
G04*
G04 Layer_Color=32896*
%FSLAX44Y44*%
%MOMM*%
G71*
G01*
G75*
G36*
X685252Y62326D02*
X683965D01*
Y62142D01*
X684057D01*
Y62050D01*
X683965D01*
Y61406D01*
X684057D01*
Y61315D01*
X683965D01*
Y60671D01*
X684057D01*
Y60579D01*
X683965D01*
Y59935D01*
X684057D01*
Y59843D01*
X683965D01*
Y59659D01*
X685344D01*
Y59475D01*
X685252D01*
Y49448D01*
X685344D01*
Y48988D01*
X685252D01*
Y48896D01*
X685160D01*
Y48804D01*
X685252D01*
Y48712D01*
X685160D01*
Y48620D01*
X685252D01*
Y48344D01*
X685160D01*
Y48160D01*
X684977D01*
Y48068D01*
X684700D01*
Y48160D01*
X684609D01*
Y47976D01*
X684425D01*
Y48068D01*
X684333D01*
Y47976D01*
X684240D01*
Y48068D01*
X684333D01*
Y48160D01*
X684240D01*
Y48068D01*
X684149D01*
Y47976D01*
X683873D01*
Y45309D01*
X683965D01*
Y45217D01*
X684057D01*
Y45309D01*
X684149D01*
Y45217D01*
X684240D01*
Y45309D01*
X684333D01*
Y45217D01*
X684425D01*
Y45309D01*
X684517D01*
Y45217D01*
X684609D01*
Y45309D01*
X684700D01*
Y45217D01*
X684792D01*
Y45309D01*
X684884D01*
Y45217D01*
X684977D01*
Y45309D01*
X685069D01*
Y45217D01*
X685160D01*
Y45309D01*
X685252D01*
Y45217D01*
X685344D01*
Y45309D01*
X685436D01*
Y45217D01*
X685528D01*
Y45309D01*
X685620D01*
Y45217D01*
X685712D01*
Y45309D01*
X685804D01*
Y45217D01*
X685896D01*
Y45309D01*
X685988D01*
Y45217D01*
X686080D01*
Y45309D01*
X686172D01*
Y45217D01*
X686264D01*
Y45309D01*
X686356D01*
Y45217D01*
X686448D01*
Y45309D01*
X686816D01*
Y45401D01*
X686908D01*
Y45309D01*
X687368D01*
Y45401D01*
X687460D01*
Y45309D01*
X687644D01*
Y45401D01*
X687920D01*
Y45309D01*
X688012D01*
Y45493D01*
X688288D01*
Y45585D01*
X688564D01*
Y45677D01*
X688748D01*
Y45769D01*
X688840D01*
Y45861D01*
X689024D01*
Y45953D01*
X689116D01*
Y46045D01*
X689208D01*
Y46136D01*
X689300D01*
Y46228D01*
X689392D01*
Y46321D01*
X689576D01*
Y46413D01*
X689668D01*
Y46505D01*
X689576D01*
Y46596D01*
X689668D01*
Y46780D01*
X689760D01*
Y46964D01*
X689852D01*
Y47332D01*
X690036D01*
Y47424D01*
X689944D01*
Y47516D01*
X690036D01*
Y47608D01*
X689944D01*
Y47884D01*
X690036D01*
Y47976D01*
X689944D01*
Y51104D01*
X690036D01*
Y51656D01*
X690128D01*
Y51748D01*
X690036D01*
Y52392D01*
X690128D01*
Y52484D01*
X690036D01*
Y53128D01*
X690128D01*
Y53220D01*
X690036D01*
Y53864D01*
X690128D01*
Y53955D01*
X690036D01*
Y57819D01*
X690128D01*
Y58187D01*
X690036D01*
Y58279D01*
X690128D01*
Y58923D01*
X690036D01*
Y59015D01*
X690128D01*
Y59107D01*
X690220D01*
Y59199D01*
X690128D01*
Y59475D01*
X690036D01*
Y59659D01*
X691140D01*
Y59751D01*
X691048D01*
Y59843D01*
X691140D01*
Y59935D01*
X691048D01*
Y60027D01*
X691140D01*
Y60119D01*
X691048D01*
Y60211D01*
X691140D01*
Y60303D01*
X691048D01*
Y60395D01*
X691140D01*
Y60487D01*
X691048D01*
Y60579D01*
X691140D01*
Y60671D01*
X691048D01*
Y60763D01*
X691140D01*
Y60855D01*
X691048D01*
Y60947D01*
X691140D01*
Y61038D01*
X691048D01*
Y61130D01*
X691140D01*
Y61223D01*
X691048D01*
Y61315D01*
X691140D01*
Y61406D01*
X691048D01*
Y61498D01*
X691140D01*
Y61590D01*
X691048D01*
Y61683D01*
X691140D01*
Y61775D01*
X691048D01*
Y61866D01*
X691140D01*
Y61958D01*
X691048D01*
Y62050D01*
X691140D01*
Y62142D01*
X691048D01*
Y62234D01*
X691140D01*
Y62326D01*
X690128D01*
Y62418D01*
X690036D01*
Y62510D01*
X690128D01*
Y62602D01*
X690036D01*
Y62694D01*
X690128D01*
Y63338D01*
X690036D01*
Y63430D01*
X690128D01*
Y63522D01*
X690220D01*
Y63614D01*
X690128D01*
Y64074D01*
X690036D01*
Y64166D01*
X690128D01*
Y64810D01*
X690036D01*
Y64902D01*
X690128D01*
Y64994D01*
X690220D01*
Y65086D01*
X690036D01*
Y64994D01*
X689944D01*
Y65086D01*
X689852D01*
Y64994D01*
X689760D01*
Y65086D01*
X689668D01*
Y64994D01*
X689576D01*
Y65086D01*
X689484D01*
Y64994D01*
X689392D01*
Y65086D01*
X689300D01*
Y64994D01*
X689208D01*
Y65086D01*
X689116D01*
Y64994D01*
X689024D01*
Y65086D01*
X688932D01*
Y64994D01*
X688840D01*
Y65086D01*
X688748D01*
Y64994D01*
X688656D01*
Y65086D01*
X688564D01*
Y64994D01*
X688472D01*
Y65086D01*
X688380D01*
Y64994D01*
X688288D01*
Y65086D01*
X688196D01*
Y64994D01*
X688104D01*
Y65086D01*
X688012D01*
Y64994D01*
X687920D01*
Y65086D01*
X687828D01*
Y64994D01*
X687736D01*
Y65086D01*
X687644D01*
Y64994D01*
X687552D01*
Y65086D01*
X687460D01*
Y64994D01*
X687368D01*
Y65086D01*
X687276D01*
Y64994D01*
X687184D01*
Y65086D01*
X687092D01*
Y64994D01*
X687000D01*
Y65086D01*
X686908D01*
Y64994D01*
X686816D01*
Y65086D01*
X686724D01*
Y64994D01*
X686632D01*
Y65086D01*
X686540D01*
Y64994D01*
X686448D01*
Y65086D01*
X686356D01*
Y64994D01*
X686264D01*
Y65086D01*
X686172D01*
Y64994D01*
X686080D01*
Y65086D01*
X685988D01*
Y64994D01*
X685896D01*
Y65086D01*
X685804D01*
Y64994D01*
X685712D01*
Y65086D01*
X685620D01*
Y64994D01*
X685528D01*
Y65086D01*
X685436D01*
Y64994D01*
X685344D01*
Y65086D01*
X685252D01*
Y62326D01*
D02*
G37*
G36*
X697211Y62694D02*
X697027D01*
Y62602D01*
X696935D01*
Y62694D01*
X696659D01*
Y62602D01*
X696567D01*
Y62694D01*
X696475D01*
Y62602D01*
X696015D01*
Y62510D01*
X695923D01*
Y62418D01*
X695831D01*
Y62510D01*
X695739D01*
Y62418D01*
X695463D01*
Y62326D01*
X695187D01*
Y62234D01*
X695095D01*
Y62142D01*
X694819D01*
Y62050D01*
X694727D01*
Y61958D01*
X694635D01*
Y61866D01*
X694359D01*
Y61775D01*
X694267D01*
Y61683D01*
X694175D01*
Y61590D01*
X694083D01*
Y61498D01*
X693991D01*
Y61406D01*
X693899D01*
Y61223D01*
X693807D01*
Y61130D01*
X693715D01*
Y61038D01*
X693623D01*
Y60855D01*
X693531D01*
Y60763D01*
X693439D01*
Y60579D01*
X693347D01*
Y60395D01*
X693255D01*
Y60303D01*
X693163D01*
Y60119D01*
X693071D01*
Y59935D01*
X693163D01*
Y59843D01*
X692979D01*
Y59659D01*
X693071D01*
Y59567D01*
X692979D01*
Y59383D01*
X692887D01*
Y59199D01*
X692979D01*
Y59107D01*
X692887D01*
Y59015D01*
X692795D01*
Y58739D01*
X692887D01*
Y58555D01*
X692795D01*
Y58463D01*
X692703D01*
Y58371D01*
X692795D01*
Y58279D01*
X692703D01*
Y58187D01*
X692795D01*
Y58095D01*
X692703D01*
Y58003D01*
X692795D01*
Y57635D01*
X692611D01*
Y57543D01*
X692703D01*
Y57451D01*
X692611D01*
Y57359D01*
X692795D01*
Y57267D01*
X692703D01*
Y57175D01*
X692795D01*
Y57083D01*
X692703D01*
Y56991D01*
X692795D01*
Y56899D01*
X692703D01*
Y56807D01*
X692795D01*
Y56715D01*
X692703D01*
Y56623D01*
X692611D01*
Y56439D01*
X692703D01*
Y56347D01*
X692611D01*
Y56255D01*
X692703D01*
Y56163D01*
X697027D01*
Y56439D01*
X696935D01*
Y56531D01*
X697027D01*
Y56623D01*
X696935D01*
Y56715D01*
X697027D01*
Y56807D01*
X696935D01*
Y56899D01*
X697027D01*
Y56991D01*
X696935D01*
Y57083D01*
X697027D01*
Y57175D01*
X696935D01*
Y57267D01*
X697027D01*
Y57359D01*
X696935D01*
Y57451D01*
X697027D01*
Y57543D01*
X696935D01*
Y57635D01*
X697027D01*
Y57727D01*
X696935D01*
Y57819D01*
X697027D01*
Y57911D01*
X696935D01*
Y58003D01*
X697027D01*
Y58095D01*
X696935D01*
Y58187D01*
X697027D01*
Y58279D01*
X696935D01*
Y58371D01*
X697027D01*
Y58463D01*
X696935D01*
Y58555D01*
X697027D01*
Y58647D01*
X696935D01*
Y58739D01*
X697027D01*
Y58831D01*
X696935D01*
Y59199D01*
X697027D01*
Y59291D01*
X696935D01*
Y59383D01*
X697119D01*
Y59475D01*
X697027D01*
Y59659D01*
X697119D01*
Y59751D01*
X697211D01*
Y59843D01*
X697303D01*
Y59935D01*
X697487D01*
Y60027D01*
X697671D01*
Y60119D01*
X697763D01*
Y60027D01*
X697947D01*
Y59935D01*
X698131D01*
Y59843D01*
X698223D01*
Y59751D01*
X698315D01*
Y59567D01*
X698223D01*
Y59475D01*
X698407D01*
Y58739D01*
X698499D01*
Y58647D01*
X698407D01*
Y58555D01*
X698499D01*
Y58095D01*
X698407D01*
Y58003D01*
X698499D01*
Y57911D01*
X698407D01*
Y57819D01*
X698499D01*
Y57727D01*
X698407D01*
Y57635D01*
X698499D01*
Y57543D01*
X698407D01*
Y57451D01*
X698499D01*
Y57359D01*
X698407D01*
Y57267D01*
X698499D01*
Y57175D01*
X698407D01*
Y57083D01*
X698499D01*
Y56991D01*
X698407D01*
Y56899D01*
X698499D01*
Y56807D01*
X698407D01*
Y56715D01*
X698499D01*
Y56623D01*
X698407D01*
Y56531D01*
X698499D01*
Y56439D01*
X698407D01*
Y56347D01*
X698499D01*
Y56255D01*
X698407D01*
Y56163D01*
X698499D01*
Y56071D01*
X698407D01*
Y55979D01*
X698499D01*
Y55887D01*
X698407D01*
Y55795D01*
X698499D01*
Y55703D01*
X698407D01*
Y55611D01*
X698499D01*
Y55519D01*
X698407D01*
Y55427D01*
X698499D01*
Y55335D01*
X698407D01*
Y55243D01*
X698499D01*
Y55151D01*
X698407D01*
Y55059D01*
X698499D01*
Y54967D01*
X698407D01*
Y54875D01*
X698499D01*
Y54783D01*
X698407D01*
Y54691D01*
X698499D01*
Y54599D01*
X698407D01*
Y54507D01*
X698499D01*
Y54415D01*
X698407D01*
Y54323D01*
X698499D01*
Y54232D01*
X698407D01*
Y54139D01*
X698499D01*
Y54047D01*
X698407D01*
Y53955D01*
X698499D01*
Y53864D01*
X698407D01*
Y53772D01*
X698499D01*
Y53679D01*
X698407D01*
Y53587D01*
X698499D01*
Y53495D01*
X698407D01*
Y53404D01*
X698499D01*
Y53312D01*
X698407D01*
Y53220D01*
X698499D01*
Y53128D01*
X698407D01*
Y53036D01*
X698499D01*
Y52944D01*
X698407D01*
Y52852D01*
X698499D01*
Y52760D01*
X698407D01*
Y52668D01*
X698499D01*
Y52576D01*
X698407D01*
Y52484D01*
X698499D01*
Y52392D01*
X698407D01*
Y52300D01*
X698499D01*
Y52208D01*
X698407D01*
Y52116D01*
X698499D01*
Y52024D01*
X698407D01*
Y51932D01*
X698499D01*
Y51840D01*
X698407D01*
Y51748D01*
X698499D01*
Y51656D01*
X698407D01*
Y51564D01*
X698499D01*
Y51472D01*
X698407D01*
Y51380D01*
X698499D01*
Y51288D01*
X698407D01*
Y51196D01*
X698499D01*
Y51104D01*
X698407D01*
Y51012D01*
X698499D01*
Y50920D01*
X698407D01*
Y50828D01*
X698499D01*
Y50736D01*
X698407D01*
Y50644D01*
X698499D01*
Y50552D01*
X698407D01*
Y50460D01*
X698499D01*
Y50368D01*
X698407D01*
Y50276D01*
X698499D01*
Y50184D01*
X698407D01*
Y50092D01*
X698499D01*
Y50000D01*
X698407D01*
Y49908D01*
X698499D01*
Y49816D01*
X698407D01*
Y49724D01*
X698499D01*
Y49172D01*
X698407D01*
Y48712D01*
X698315D01*
Y48528D01*
X698223D01*
Y48252D01*
X698131D01*
Y48160D01*
X697947D01*
Y48068D01*
X697855D01*
Y47976D01*
X697303D01*
Y48068D01*
X697119D01*
Y48252D01*
X696935D01*
Y48804D01*
X696751D01*
Y48988D01*
X696843D01*
Y49264D01*
X696751D01*
Y49356D01*
X696843D01*
Y49540D01*
X696751D01*
Y49632D01*
X696659D01*
Y49724D01*
X696751D01*
Y49816D01*
X696659D01*
Y49908D01*
X696751D01*
Y50000D01*
X696659D01*
Y50092D01*
X696751D01*
Y50276D01*
X696843D01*
Y50368D01*
X696751D01*
Y50460D01*
X696843D01*
Y50552D01*
X696751D01*
Y50644D01*
X696843D01*
Y50736D01*
X696751D01*
Y50828D01*
X696843D01*
Y50920D01*
X696751D01*
Y51012D01*
X696843D01*
Y51104D01*
X696751D01*
Y51196D01*
X696843D01*
Y51288D01*
X696751D01*
Y51380D01*
X696843D01*
Y51472D01*
X696751D01*
Y51748D01*
X696843D01*
Y51840D01*
X696751D01*
Y51932D01*
X696843D01*
Y52024D01*
X696751D01*
Y52116D01*
X696843D01*
Y52208D01*
X696751D01*
Y52300D01*
X696843D01*
Y52392D01*
X692611D01*
Y52024D01*
X692703D01*
Y51932D01*
X692611D01*
Y51288D01*
X692703D01*
Y51196D01*
X692611D01*
Y50920D01*
X692795D01*
Y50828D01*
X692703D01*
Y50736D01*
X692795D01*
Y50644D01*
X692703D01*
Y50552D01*
X692795D01*
Y50460D01*
X692703D01*
Y50368D01*
X692795D01*
Y50276D01*
X692611D01*
Y50184D01*
X692703D01*
Y50092D01*
X692611D01*
Y50000D01*
X692795D01*
Y49632D01*
X692703D01*
Y49540D01*
X692795D01*
Y49448D01*
X692703D01*
Y49356D01*
X692795D01*
Y49264D01*
X692703D01*
Y49172D01*
X692887D01*
Y48988D01*
X692795D01*
Y48712D01*
X692979D01*
Y48620D01*
X692887D01*
Y48436D01*
X692979D01*
Y48252D01*
X693071D01*
Y48160D01*
X692979D01*
Y48068D01*
X693071D01*
Y47884D01*
X693163D01*
Y47608D01*
X693255D01*
Y47424D01*
X693347D01*
Y47332D01*
X693439D01*
Y47240D01*
X693531D01*
Y47056D01*
X693623D01*
Y46964D01*
X693715D01*
Y46780D01*
X693807D01*
Y46688D01*
X693899D01*
Y46596D01*
X693991D01*
Y46505D01*
X694083D01*
Y46413D01*
X694175D01*
Y46321D01*
X694267D01*
Y46228D01*
X694359D01*
Y46136D01*
X694451D01*
Y46045D01*
X694543D01*
Y45953D01*
X694635D01*
Y45861D01*
X694911D01*
Y45769D01*
X695003D01*
Y45677D01*
X695187D01*
Y45585D01*
X695371D01*
Y45493D01*
X695647D01*
Y45401D01*
X695831D01*
Y45309D01*
X695923D01*
Y45401D01*
X696107D01*
Y45309D01*
X696199D01*
Y45401D01*
X696291D01*
Y45309D01*
X696843D01*
Y45217D01*
X696935D01*
Y45309D01*
X697119D01*
Y45401D01*
X697211D01*
Y45309D01*
X697487D01*
Y45401D01*
X697579D01*
Y45309D01*
X697763D01*
Y45217D01*
X697947D01*
Y45309D01*
X698223D01*
Y45401D01*
X698315D01*
Y45309D01*
X698683D01*
Y45217D01*
X698775D01*
Y45309D01*
X699143D01*
Y45401D01*
X699235D01*
Y45309D01*
X699327D01*
Y45401D01*
X699787D01*
Y45493D01*
X700062D01*
Y45585D01*
X700338D01*
Y45677D01*
X700614D01*
Y45769D01*
X700890D01*
Y45861D01*
X700982D01*
Y45953D01*
X701166D01*
Y46045D01*
X701350D01*
Y46136D01*
X701442D01*
Y46228D01*
X701534D01*
Y46321D01*
X701718D01*
Y46413D01*
X701902D01*
Y46596D01*
X702086D01*
Y46688D01*
X701994D01*
Y46780D01*
X702086D01*
Y46872D01*
X702178D01*
Y46964D01*
X702270D01*
Y47056D01*
X702362D01*
Y47148D01*
X702546D01*
Y47240D01*
X702454D01*
Y47424D01*
X702546D01*
Y47516D01*
X702638D01*
Y47792D01*
X702730D01*
Y47976D01*
X702822D01*
Y48528D01*
X702914D01*
Y48712D01*
X703006D01*
Y49172D01*
X703098D01*
Y49264D01*
X703006D01*
Y49356D01*
X703098D01*
Y49540D01*
X703006D01*
Y50000D01*
X703190D01*
Y50920D01*
X703098D01*
Y51288D01*
X703190D01*
Y51380D01*
X703282D01*
Y51472D01*
X703190D01*
Y51656D01*
X703098D01*
Y51748D01*
X703190D01*
Y51840D01*
X703098D01*
Y51932D01*
X703190D01*
Y52024D01*
X703098D01*
Y52116D01*
X703190D01*
Y52208D01*
X703098D01*
Y52300D01*
X703190D01*
Y52392D01*
X703098D01*
Y52484D01*
X703190D01*
Y52576D01*
X703098D01*
Y52668D01*
X703190D01*
Y52760D01*
X703098D01*
Y52852D01*
X703190D01*
Y53036D01*
X703282D01*
Y53128D01*
X703190D01*
Y53220D01*
X703282D01*
Y53312D01*
X703190D01*
Y53404D01*
X703282D01*
Y53495D01*
X703190D01*
Y53587D01*
X703282D01*
Y53679D01*
X703190D01*
Y53772D01*
X703282D01*
Y53864D01*
X703190D01*
Y53955D01*
X703282D01*
Y54047D01*
X703190D01*
Y54139D01*
X703282D01*
Y54232D01*
X703190D01*
Y54323D01*
X703282D01*
Y54415D01*
X703190D01*
Y54599D01*
X703098D01*
Y56347D01*
X703190D01*
Y59107D01*
X703006D01*
Y59383D01*
X703098D01*
Y59475D01*
X703006D01*
Y59843D01*
X702914D01*
Y60027D01*
X702822D01*
Y60211D01*
X702730D01*
Y60395D01*
X702638D01*
Y60579D01*
X702546D01*
Y60763D01*
X702454D01*
Y60855D01*
X702362D01*
Y60947D01*
X702270D01*
Y61223D01*
X702086D01*
Y61406D01*
X701902D01*
Y61498D01*
X701810D01*
Y61590D01*
X701626D01*
Y61775D01*
X701442D01*
Y61866D01*
X701258D01*
Y61958D01*
X701166D01*
Y62050D01*
X700982D01*
Y62142D01*
X700706D01*
Y62234D01*
X700614D01*
Y62326D01*
X700338D01*
Y62418D01*
X700062D01*
Y62510D01*
X699787D01*
Y62602D01*
X699327D01*
Y62694D01*
X699235D01*
Y62602D01*
X699143D01*
Y62694D01*
X698867D01*
Y62602D01*
X698775D01*
Y62694D01*
X698591D01*
Y62786D01*
X698499D01*
Y62694D01*
X698315D01*
Y62786D01*
X698131D01*
Y62694D01*
X697947D01*
Y62786D01*
X697763D01*
Y62694D01*
X697579D01*
Y62786D01*
X697395D01*
Y62694D01*
X697303D01*
Y62786D01*
X697211D01*
Y62694D01*
D02*
G37*
G36*
X708709Y62510D02*
X708065D01*
Y62418D01*
X707606D01*
Y62326D01*
X707237D01*
Y62234D01*
X706962D01*
Y62142D01*
X706778D01*
Y62050D01*
X706594D01*
Y61958D01*
X706410D01*
Y61866D01*
X706318D01*
Y61775D01*
X706226D01*
Y61683D01*
X706134D01*
Y61590D01*
X706042D01*
Y61498D01*
X705858D01*
Y61315D01*
X705674D01*
Y61223D01*
X705582D01*
Y61038D01*
X705490D01*
Y60855D01*
X705398D01*
Y60763D01*
X705306D01*
Y60671D01*
X705398D01*
Y60579D01*
X705306D01*
Y60303D01*
X705122D01*
Y60119D01*
X705214D01*
Y60027D01*
X705122D01*
Y59751D01*
X705030D01*
Y59659D01*
X704938D01*
Y59567D01*
X705030D01*
Y59291D01*
X704938D01*
Y59199D01*
X705030D01*
Y59107D01*
X704938D01*
Y58647D01*
X704846D01*
Y58555D01*
X704938D01*
Y58463D01*
X704846D01*
Y58371D01*
X704938D01*
Y58279D01*
X704846D01*
Y58187D01*
X704938D01*
Y58095D01*
X704846D01*
Y58003D01*
X704938D01*
Y57083D01*
X704754D01*
Y56991D01*
X704846D01*
Y56899D01*
X704754D01*
Y56807D01*
X704846D01*
Y56531D01*
X704754D01*
Y56439D01*
X704846D01*
Y55611D01*
X704754D01*
Y55335D01*
X704846D01*
Y55243D01*
X704754D01*
Y55151D01*
X704846D01*
Y55059D01*
X704754D01*
Y54967D01*
X704846D01*
Y54047D01*
X704662D01*
Y53955D01*
X704754D01*
Y53864D01*
X704662D01*
Y53772D01*
X704754D01*
Y53679D01*
X704662D01*
Y53587D01*
X704754D01*
Y53495D01*
X704662D01*
Y53404D01*
X704754D01*
Y53312D01*
X704662D01*
Y53220D01*
X704754D01*
Y53128D01*
X704662D01*
Y53036D01*
X704754D01*
Y52944D01*
X704662D01*
Y52852D01*
X704754D01*
Y52760D01*
X704662D01*
Y52668D01*
X704754D01*
Y52576D01*
X704662D01*
Y52484D01*
X704754D01*
Y52392D01*
X704662D01*
Y52300D01*
X704754D01*
Y52208D01*
X704662D01*
Y52116D01*
X704754D01*
Y52024D01*
X704662D01*
Y51932D01*
X704754D01*
Y51840D01*
X704662D01*
Y51748D01*
X704754D01*
Y51656D01*
X704662D01*
Y51564D01*
X704754D01*
Y51472D01*
X704662D01*
Y51380D01*
X704754D01*
Y51288D01*
X704662D01*
Y51196D01*
X704754D01*
Y51104D01*
X704662D01*
Y51012D01*
X704754D01*
Y50920D01*
X704662D01*
Y50828D01*
X704754D01*
Y50736D01*
X704662D01*
Y50644D01*
X704754D01*
Y50552D01*
X704662D01*
Y50460D01*
X704754D01*
Y50368D01*
X704662D01*
Y50276D01*
X704754D01*
Y50184D01*
X704662D01*
Y50092D01*
X704754D01*
Y50000D01*
X704662D01*
Y49908D01*
X704754D01*
Y49816D01*
X704662D01*
Y49724D01*
X704754D01*
Y49632D01*
X704662D01*
Y49540D01*
X704754D01*
Y49448D01*
X704662D01*
Y49356D01*
X704754D01*
Y49264D01*
X704662D01*
Y49172D01*
X704754D01*
Y49080D01*
X704662D01*
Y48988D01*
X704754D01*
Y48896D01*
X704662D01*
Y48804D01*
X704754D01*
Y48712D01*
X704662D01*
Y48620D01*
X704754D01*
Y48528D01*
X704662D01*
Y48436D01*
X704754D01*
Y48344D01*
X704662D01*
Y48252D01*
X704754D01*
Y48160D01*
X704662D01*
Y48068D01*
X704754D01*
Y47976D01*
X704662D01*
Y47884D01*
X704754D01*
Y47792D01*
X704662D01*
Y47700D01*
X704754D01*
Y47608D01*
X704662D01*
Y47516D01*
X704754D01*
Y47424D01*
X704662D01*
Y47332D01*
X704754D01*
Y47240D01*
X704662D01*
Y47148D01*
X704754D01*
Y47056D01*
X704662D01*
Y46964D01*
X704754D01*
Y46872D01*
X704662D01*
Y46780D01*
X704754D01*
Y46688D01*
X704662D01*
Y46596D01*
X704754D01*
Y46505D01*
X704662D01*
Y46413D01*
X704754D01*
Y46321D01*
X704662D01*
Y46228D01*
X704754D01*
Y46136D01*
X704662D01*
Y46045D01*
X704754D01*
Y45953D01*
X704662D01*
Y45861D01*
X704754D01*
Y45769D01*
X704662D01*
Y45677D01*
X704754D01*
Y45585D01*
X704662D01*
Y45493D01*
X704754D01*
Y45401D01*
X704662D01*
Y45309D01*
X704754D01*
Y45217D01*
X704846D01*
Y45309D01*
X704938D01*
Y45217D01*
X705030D01*
Y45309D01*
X705122D01*
Y45217D01*
X705214D01*
Y45309D01*
X705306D01*
Y45217D01*
X705398D01*
Y45309D01*
X705490D01*
Y45217D01*
X705582D01*
Y45309D01*
X705674D01*
Y45217D01*
X705766D01*
Y45309D01*
X705858D01*
Y45217D01*
X705950D01*
Y45309D01*
X706042D01*
Y45217D01*
X706134D01*
Y45309D01*
X706226D01*
Y45217D01*
X706318D01*
Y45309D01*
X706410D01*
Y45217D01*
X706502D01*
Y45309D01*
X706594D01*
Y45217D01*
X706686D01*
Y45309D01*
X706778D01*
Y45217D01*
X706870D01*
Y45309D01*
X706962D01*
Y45217D01*
X707054D01*
Y45309D01*
X707146D01*
Y45217D01*
X707237D01*
Y45309D01*
X707329D01*
Y45217D01*
X707421D01*
Y45309D01*
X707514D01*
Y45217D01*
X707606D01*
Y45309D01*
X707698D01*
Y45217D01*
X707790D01*
Y45309D01*
X707881D01*
Y45217D01*
X707973D01*
Y45309D01*
X708065D01*
Y45217D01*
X708157D01*
Y45309D01*
X708249D01*
Y45217D01*
X708341D01*
Y45309D01*
X708433D01*
Y45217D01*
X708525D01*
Y45309D01*
X708617D01*
Y45217D01*
X708709D01*
Y45309D01*
X708801D01*
Y45217D01*
X708893D01*
Y45309D01*
X708985D01*
Y45217D01*
X709077D01*
Y45309D01*
X709169D01*
Y45217D01*
X709261D01*
Y45309D01*
X709353D01*
Y45217D01*
X709445D01*
Y46780D01*
X709537D01*
Y46596D01*
X709629D01*
Y46505D01*
X709721D01*
Y46321D01*
X709905D01*
Y46045D01*
X709997D01*
Y45953D01*
X710273D01*
Y45677D01*
X710457D01*
Y45585D01*
X710641D01*
Y45493D01*
X710917D01*
Y45309D01*
X711009D01*
Y45401D01*
X711193D01*
Y45309D01*
X711469D01*
Y45401D01*
X711561D01*
Y45309D01*
X711837D01*
Y45401D01*
X711929D01*
Y45309D01*
X712205D01*
Y45217D01*
X712297D01*
Y45309D01*
X712573D01*
Y45401D01*
X712665D01*
Y45309D01*
X712849D01*
Y45217D01*
X712941D01*
Y45309D01*
X713401D01*
Y45401D01*
X713677D01*
Y45309D01*
X713769D01*
Y45493D01*
X713953D01*
Y45585D01*
X714229D01*
Y45677D01*
X714413D01*
Y45769D01*
X714505D01*
Y45861D01*
X714597D01*
Y45953D01*
X714689D01*
Y46045D01*
X714781D01*
Y46136D01*
X714873D01*
Y46321D01*
X715057D01*
Y46596D01*
X715148D01*
Y46780D01*
X715240D01*
Y47056D01*
X715332D01*
Y47332D01*
X715424D01*
Y47516D01*
X715332D01*
Y47700D01*
X715424D01*
Y47792D01*
X715517D01*
Y47884D01*
X715424D01*
Y47976D01*
X715517D01*
Y48068D01*
X715332D01*
Y48160D01*
X715424D01*
Y48252D01*
X715332D01*
Y48344D01*
X715424D01*
Y48436D01*
X715332D01*
Y48528D01*
X715424D01*
Y48620D01*
X715517D01*
Y49264D01*
X715424D01*
Y49356D01*
X715517D01*
Y49540D01*
X715608D01*
Y49632D01*
X715517D01*
Y49724D01*
X715608D01*
Y49816D01*
X715424D01*
Y49908D01*
X715517D01*
Y50000D01*
X715424D01*
Y50276D01*
X715608D01*
Y50368D01*
X715517D01*
Y50460D01*
X715608D01*
Y50552D01*
X715517D01*
Y50644D01*
X715608D01*
Y50736D01*
X715517D01*
Y50828D01*
X715608D01*
Y50920D01*
X715517D01*
Y51012D01*
X715608D01*
Y51104D01*
X715517D01*
Y51288D01*
X715424D01*
Y51380D01*
X715517D01*
Y51472D01*
X715424D01*
Y51564D01*
X715608D01*
Y51656D01*
X715517D01*
Y52024D01*
X715424D01*
Y52116D01*
X715332D01*
Y52208D01*
X715424D01*
Y52300D01*
X715332D01*
Y52760D01*
X715240D01*
Y52944D01*
X715148D01*
Y53128D01*
X715057D01*
Y53220D01*
X714965D01*
Y53312D01*
X714873D01*
Y53404D01*
X714781D01*
Y53495D01*
X714689D01*
Y53587D01*
X714597D01*
Y53679D01*
X714505D01*
Y53772D01*
X714413D01*
Y53955D01*
X714321D01*
Y53864D01*
X714229D01*
Y53955D01*
X714045D01*
Y54047D01*
X713953D01*
Y54139D01*
X713677D01*
Y54232D01*
X713585D01*
Y54323D01*
X713493D01*
Y54415D01*
X713217D01*
Y54507D01*
X713033D01*
Y54599D01*
X712849D01*
Y54691D01*
X712665D01*
Y54783D01*
X712481D01*
Y54875D01*
X712205D01*
Y54967D01*
X712021D01*
Y55059D01*
X711837D01*
Y55151D01*
X711745D01*
Y55059D01*
X711653D01*
Y55243D01*
X711561D01*
Y55335D01*
X711377D01*
Y55243D01*
X711285D01*
Y55427D01*
X711193D01*
Y55519D01*
X711009D01*
Y55427D01*
X710917D01*
Y55519D01*
X710825D01*
Y55611D01*
X710549D01*
Y55703D01*
X710457D01*
Y55795D01*
X710273D01*
Y55887D01*
X710089D01*
Y55979D01*
X709997D01*
Y56071D01*
X709905D01*
Y56163D01*
X709813D01*
Y56347D01*
X709629D01*
Y56715D01*
X709537D01*
Y56899D01*
X709629D01*
Y56991D01*
X709537D01*
Y57175D01*
X709629D01*
Y57359D01*
X709537D01*
Y57451D01*
X709445D01*
Y58279D01*
X709537D01*
Y58371D01*
X709629D01*
Y58647D01*
X709537D01*
Y58739D01*
X709629D01*
Y58923D01*
X709537D01*
Y59015D01*
X709629D01*
Y59107D01*
X709721D01*
Y59199D01*
X709629D01*
Y59383D01*
X709813D01*
Y59475D01*
X709721D01*
Y59659D01*
X709813D01*
Y59751D01*
X709905D01*
Y59843D01*
X709997D01*
Y59935D01*
X710089D01*
Y60027D01*
X710181D01*
Y60119D01*
X710273D01*
Y60027D01*
X710457D01*
Y59935D01*
X710641D01*
Y60027D01*
X710733D01*
Y59935D01*
X710825D01*
Y59751D01*
X711009D01*
Y59567D01*
X711101D01*
Y59107D01*
X711193D01*
Y58647D01*
X711101D01*
Y58555D01*
X711193D01*
Y58463D01*
X711101D01*
Y58371D01*
X711193D01*
Y58279D01*
X711101D01*
Y58187D01*
X711193D01*
Y58095D01*
X711101D01*
Y58003D01*
X711193D01*
Y57911D01*
X711101D01*
Y57819D01*
X711193D01*
Y57727D01*
X711101D01*
Y57635D01*
X711193D01*
Y57543D01*
X711101D01*
Y57451D01*
X711193D01*
Y57359D01*
X711101D01*
Y57267D01*
X711193D01*
Y57175D01*
X711101D01*
Y57083D01*
X711193D01*
Y56991D01*
X711101D01*
Y56899D01*
X711193D01*
Y56807D01*
X711101D01*
Y56715D01*
X711193D01*
Y56623D01*
X715517D01*
Y56715D01*
X715608D01*
Y56807D01*
X715517D01*
Y56899D01*
X715608D01*
Y56991D01*
X715517D01*
Y57083D01*
X715608D01*
Y57175D01*
X715517D01*
Y57267D01*
X715608D01*
Y57359D01*
X715517D01*
Y57451D01*
X715608D01*
Y57543D01*
X715517D01*
Y57635D01*
X715608D01*
Y57727D01*
X715517D01*
Y57911D01*
X715424D01*
Y58003D01*
X715517D01*
Y58095D01*
X715424D01*
Y58187D01*
X715517D01*
Y58371D01*
X715608D01*
Y58463D01*
X715517D01*
Y58831D01*
X715424D01*
Y58923D01*
X715332D01*
Y59015D01*
X715424D01*
Y59107D01*
X715332D01*
Y59199D01*
X715424D01*
Y59383D01*
X715332D01*
Y59659D01*
X715424D01*
Y59751D01*
X715332D01*
Y59843D01*
X715240D01*
Y60119D01*
X715148D01*
Y60303D01*
X715057D01*
Y60395D01*
X714965D01*
Y60579D01*
X714873D01*
Y60763D01*
X714781D01*
Y61038D01*
X714597D01*
Y61130D01*
X714505D01*
Y61315D01*
X714413D01*
Y61406D01*
X714321D01*
Y61498D01*
X714229D01*
Y61590D01*
X714137D01*
Y61683D01*
X714045D01*
Y61775D01*
X713953D01*
Y61866D01*
X713769D01*
Y61958D01*
X713677D01*
Y62050D01*
X713493D01*
Y62142D01*
X713401D01*
Y62234D01*
X713125D01*
Y62326D01*
X712849D01*
Y62418D01*
X712481D01*
Y62510D01*
X712113D01*
Y62418D01*
X712021D01*
Y62510D01*
X711837D01*
Y62602D01*
X711745D01*
Y62694D01*
X711653D01*
Y62602D01*
X711377D01*
Y62694D01*
X711285D01*
Y62602D01*
X710917D01*
Y62510D01*
X710825D01*
Y62602D01*
X710733D01*
Y62510D01*
X710641D01*
Y62602D01*
X710549D01*
Y62510D01*
X710457D01*
Y62602D01*
X710365D01*
Y62510D01*
X710273D01*
Y62602D01*
X710181D01*
Y62510D01*
X710089D01*
Y62602D01*
X709997D01*
Y62510D01*
X709905D01*
Y62602D01*
X709813D01*
Y62510D01*
X709721D01*
Y62602D01*
X709629D01*
Y62510D01*
X709537D01*
Y62602D01*
X709169D01*
Y62694D01*
X709077D01*
Y62602D01*
X708801D01*
Y62694D01*
X708709D01*
Y62510D01*
D02*
G37*
G36*
X716988Y56991D02*
X717632D01*
Y56899D01*
X718184D01*
Y56807D01*
X718460D01*
Y56715D01*
X718736D01*
Y56623D01*
X718828D01*
Y56531D01*
X719012D01*
Y56439D01*
X719104D01*
Y56347D01*
X719196D01*
Y56255D01*
X719288D01*
Y56163D01*
X719380D01*
Y56071D01*
X719472D01*
Y55887D01*
X719564D01*
Y55611D01*
X719656D01*
Y55243D01*
X719748D01*
Y55059D01*
X719656D01*
Y54967D01*
X719748D01*
Y54507D01*
X719656D01*
Y54415D01*
X719748D01*
Y54139D01*
X719656D01*
Y54047D01*
X719840D01*
Y53312D01*
X719748D01*
Y53220D01*
X719840D01*
Y53128D01*
X719748D01*
Y53036D01*
X719840D01*
Y52944D01*
X719748D01*
Y52852D01*
X719840D01*
Y52760D01*
X719748D01*
Y52668D01*
X719840D01*
Y52576D01*
X719748D01*
Y52484D01*
X719840D01*
Y52392D01*
X719748D01*
Y52300D01*
X719840D01*
Y52208D01*
X719748D01*
Y52116D01*
X719840D01*
Y52024D01*
X719748D01*
Y51932D01*
X719840D01*
Y51840D01*
X719748D01*
Y51748D01*
X719840D01*
Y51656D01*
X719748D01*
Y51564D01*
X719840D01*
Y51472D01*
X719748D01*
Y51380D01*
X719840D01*
Y51288D01*
X719748D01*
Y51196D01*
X719840D01*
Y51104D01*
X719748D01*
Y51012D01*
X719840D01*
Y50920D01*
X719748D01*
Y50828D01*
X719840D01*
Y50736D01*
X719748D01*
Y50644D01*
X719840D01*
Y50552D01*
X719748D01*
Y50460D01*
X719840D01*
Y50368D01*
X719748D01*
Y50276D01*
X719840D01*
Y50184D01*
X719748D01*
Y50092D01*
X719840D01*
Y50000D01*
X719748D01*
Y49908D01*
X719840D01*
Y49816D01*
X719748D01*
Y49724D01*
X719840D01*
Y49632D01*
X719748D01*
Y49540D01*
X719840D01*
Y49448D01*
X719748D01*
Y49356D01*
X719840D01*
Y49264D01*
X719748D01*
Y49172D01*
X719840D01*
Y49080D01*
X719748D01*
Y48988D01*
X719840D01*
Y48896D01*
X719748D01*
Y48804D01*
X719840D01*
Y48712D01*
X719748D01*
Y48620D01*
X719840D01*
Y48528D01*
X719748D01*
Y48436D01*
X719840D01*
Y48344D01*
X719748D01*
Y48252D01*
X719840D01*
Y48160D01*
X719748D01*
Y48068D01*
X719840D01*
Y47976D01*
X719748D01*
Y47884D01*
X719840D01*
Y47792D01*
X719748D01*
Y47700D01*
X719840D01*
Y47608D01*
X719748D01*
Y47516D01*
X719840D01*
Y47424D01*
X719748D01*
Y47332D01*
X719840D01*
Y47240D01*
X719748D01*
Y47148D01*
X719840D01*
Y47056D01*
X719748D01*
Y46964D01*
X719840D01*
Y46872D01*
X719748D01*
Y46780D01*
X719840D01*
Y46688D01*
X719748D01*
Y46596D01*
X719840D01*
Y46505D01*
X719748D01*
Y46413D01*
X719840D01*
Y46321D01*
X719748D01*
Y46228D01*
X719840D01*
Y46136D01*
X719748D01*
Y46045D01*
X719840D01*
Y45953D01*
X719748D01*
Y45861D01*
X719840D01*
Y45769D01*
X719748D01*
Y45677D01*
X719840D01*
Y45585D01*
X719748D01*
Y45493D01*
X719840D01*
Y45401D01*
X719748D01*
Y45309D01*
X719840D01*
Y45217D01*
X719932D01*
Y45309D01*
X720024D01*
Y45217D01*
X720116D01*
Y45309D01*
X720208D01*
Y45217D01*
X720300D01*
Y45309D01*
X720392D01*
Y45217D01*
X720484D01*
Y45309D01*
X720576D01*
Y45217D01*
X720668D01*
Y45309D01*
X720760D01*
Y45217D01*
X720852D01*
Y45309D01*
X720944D01*
Y45217D01*
X721036D01*
Y45309D01*
X721128D01*
Y45217D01*
X721220D01*
Y45309D01*
X721312D01*
Y45217D01*
X721404D01*
Y45309D01*
X721496D01*
Y45217D01*
X721588D01*
Y45309D01*
X721680D01*
Y45217D01*
X721772D01*
Y45309D01*
X721864D01*
Y45217D01*
X721956D01*
Y45309D01*
X722048D01*
Y45217D01*
X722140D01*
Y45309D01*
X722232D01*
Y45217D01*
X722324D01*
Y45309D01*
X722415D01*
Y45217D01*
X722507D01*
Y45309D01*
X722599D01*
Y45217D01*
X722691D01*
Y45309D01*
X722784D01*
Y45217D01*
X722876D01*
Y45309D01*
X722968D01*
Y45217D01*
X723059D01*
Y45309D01*
X723151D01*
Y45217D01*
X723243D01*
Y45309D01*
X723335D01*
Y45217D01*
X723427D01*
Y45309D01*
X723519D01*
Y45217D01*
X723611D01*
Y45309D01*
X723703D01*
Y45217D01*
X723795D01*
Y45309D01*
X723887D01*
Y45217D01*
X723979D01*
Y45309D01*
X724071D01*
Y45217D01*
X724163D01*
Y45309D01*
X724255D01*
Y45217D01*
X724347D01*
Y45309D01*
X724439D01*
Y45217D01*
X724531D01*
Y62786D01*
X724439D01*
Y62694D01*
X724347D01*
Y62786D01*
X724255D01*
Y62694D01*
X724163D01*
Y62786D01*
X724071D01*
Y62694D01*
X723979D01*
Y62786D01*
X723887D01*
Y62694D01*
X723795D01*
Y62786D01*
X723703D01*
Y62694D01*
X723611D01*
Y62786D01*
X723519D01*
Y62694D01*
X723427D01*
Y62786D01*
X723151D01*
Y62694D01*
X723059D01*
Y62786D01*
X722968D01*
Y62694D01*
X722876D01*
Y62786D01*
X722784D01*
Y62694D01*
X722691D01*
Y62786D01*
X722599D01*
Y62694D01*
X722507D01*
Y62786D01*
X722415D01*
Y62694D01*
X722324D01*
Y62786D01*
X722232D01*
Y62694D01*
X722140D01*
Y62786D01*
X722048D01*
Y62694D01*
X721956D01*
Y62786D01*
X721680D01*
Y62694D01*
X721588D01*
Y62786D01*
X721496D01*
Y62694D01*
X721404D01*
Y62786D01*
X721312D01*
Y62694D01*
X721220D01*
Y62786D01*
X721128D01*
Y62694D01*
X721036D01*
Y62786D01*
X720944D01*
Y62694D01*
X720852D01*
Y62786D01*
X720760D01*
Y62694D01*
X720668D01*
Y62786D01*
X720576D01*
Y62694D01*
X720484D01*
Y62786D01*
X720208D01*
Y62694D01*
X720116D01*
Y62786D01*
X720024D01*
Y62694D01*
X719932D01*
Y62786D01*
X719840D01*
Y62694D01*
X719748D01*
Y62602D01*
X719840D01*
Y62510D01*
X719748D01*
Y62418D01*
X719932D01*
Y62142D01*
X719840D01*
Y62050D01*
X719932D01*
Y61683D01*
X719840D01*
Y61590D01*
X720024D01*
Y60671D01*
X720116D01*
Y60487D01*
X719932D01*
Y60763D01*
X719748D01*
Y60947D01*
X719656D01*
Y61130D01*
X719564D01*
Y61223D01*
X719472D01*
Y61498D01*
X719380D01*
Y61590D01*
X719288D01*
Y61683D01*
X719196D01*
Y61866D01*
X719104D01*
Y61958D01*
X719012D01*
Y62142D01*
X718920D01*
Y62234D01*
X718736D01*
Y62326D01*
X718644D01*
Y62418D01*
X718460D01*
Y62510D01*
X718368D01*
Y62602D01*
X718276D01*
Y62694D01*
X718184D01*
Y62602D01*
X718092D01*
Y62786D01*
X717908D01*
Y62878D01*
X717816D01*
Y62786D01*
X717724D01*
Y62970D01*
X717540D01*
Y62878D01*
X717448D01*
Y62970D01*
X716988D01*
Y56991D01*
D02*
G37*
G36*
X731430Y62602D02*
X731338D01*
Y62694D01*
X731246D01*
Y62602D01*
X731154D01*
Y62694D01*
X730878D01*
Y62602D01*
X730786D01*
Y62694D01*
X730510D01*
Y62602D01*
X730143D01*
Y62694D01*
X730051D01*
Y62510D01*
X729775D01*
Y62418D01*
X729499D01*
Y62326D01*
X729223D01*
Y62234D01*
X729039D01*
Y62142D01*
X728855D01*
Y62050D01*
X728763D01*
Y61958D01*
X728487D01*
Y61866D01*
X728395D01*
Y61775D01*
X728303D01*
Y61683D01*
X728211D01*
Y61590D01*
X728119D01*
Y61498D01*
X728027D01*
Y61406D01*
X727935D01*
Y61315D01*
X727751D01*
Y61130D01*
X727659D01*
Y60947D01*
X727567D01*
Y60763D01*
X727475D01*
Y60671D01*
X727291D01*
Y60395D01*
X727199D01*
Y60211D01*
X727015D01*
Y60119D01*
X726923D01*
Y60027D01*
X727015D01*
Y59843D01*
X726923D01*
Y59659D01*
X726831D01*
Y59199D01*
X726739D01*
Y59015D01*
X726831D01*
Y58923D01*
X726739D01*
Y58831D01*
X726647D01*
Y58555D01*
X726739D01*
Y58463D01*
X726647D01*
Y58095D01*
X726555D01*
Y57911D01*
X726647D01*
Y57819D01*
X726555D01*
Y57635D01*
X726463D01*
Y57543D01*
X726647D01*
Y57451D01*
X726555D01*
Y57359D01*
X726647D01*
Y57267D01*
X726555D01*
Y57175D01*
X726463D01*
Y56715D01*
X726555D01*
Y56623D01*
X726463D01*
Y56347D01*
X726555D01*
Y56255D01*
X726463D01*
Y55979D01*
X726555D01*
Y55887D01*
X726463D01*
Y55611D01*
X726555D01*
Y55519D01*
X726463D01*
Y55243D01*
X726555D01*
Y55151D01*
X726463D01*
Y54875D01*
X726555D01*
Y54783D01*
X726463D01*
Y54507D01*
X726555D01*
Y54415D01*
X726463D01*
Y54139D01*
X726555D01*
Y54047D01*
X726463D01*
Y53772D01*
X726647D01*
Y53679D01*
X726555D01*
Y53587D01*
X726647D01*
Y53679D01*
X726739D01*
Y53587D01*
X726831D01*
Y53679D01*
X726923D01*
Y53772D01*
X727015D01*
Y53679D01*
X726923D01*
Y53587D01*
X727015D01*
Y53679D01*
X727107D01*
Y53587D01*
X727199D01*
Y53679D01*
X727291D01*
Y53587D01*
X727383D01*
Y53679D01*
X727475D01*
Y53587D01*
X727567D01*
Y53679D01*
X727659D01*
Y53772D01*
X727751D01*
Y53679D01*
X727659D01*
Y53587D01*
X727751D01*
Y53679D01*
X727843D01*
Y53587D01*
X727935D01*
Y53679D01*
X728027D01*
Y53772D01*
X728119D01*
Y53679D01*
X728027D01*
Y53587D01*
X728119D01*
Y53679D01*
X728211D01*
Y53587D01*
X728303D01*
Y53679D01*
X728395D01*
Y53772D01*
X728487D01*
Y53679D01*
X728395D01*
Y53587D01*
X728487D01*
Y53679D01*
X728579D01*
Y53587D01*
X728671D01*
Y53679D01*
X728763D01*
Y53587D01*
X728855D01*
Y53679D01*
X728947D01*
Y53587D01*
X729039D01*
Y53679D01*
X729131D01*
Y53772D01*
X729223D01*
Y53679D01*
X729131D01*
Y53587D01*
X729223D01*
Y53679D01*
X729315D01*
Y53587D01*
X729407D01*
Y53679D01*
X729499D01*
Y53772D01*
X729591D01*
Y53679D01*
X729499D01*
Y53587D01*
X729591D01*
Y53679D01*
X729683D01*
Y53587D01*
X729775D01*
Y53679D01*
X729867D01*
Y53772D01*
X729958D01*
Y53679D01*
X729867D01*
Y53587D01*
X729958D01*
Y53679D01*
X730051D01*
Y53587D01*
X730143D01*
Y53679D01*
X730235D01*
Y53587D01*
X730327D01*
Y53679D01*
X730418D01*
Y53587D01*
X730510D01*
Y53679D01*
X730602D01*
Y53772D01*
X730694D01*
Y53679D01*
X730602D01*
Y53587D01*
X730694D01*
Y53679D01*
X730786D01*
Y53587D01*
X730878D01*
Y53679D01*
X730970D01*
Y53772D01*
X731062D01*
Y53679D01*
X730970D01*
Y53587D01*
X731062D01*
Y53679D01*
X731154D01*
Y53587D01*
X731246D01*
Y53679D01*
X731338D01*
Y53772D01*
X731430D01*
Y53679D01*
X731338D01*
Y53587D01*
X731430D01*
Y53679D01*
X731522D01*
Y53587D01*
X731614D01*
Y53679D01*
X731706D01*
Y53587D01*
X731798D01*
Y53679D01*
X731890D01*
Y53587D01*
X731982D01*
Y53679D01*
X732074D01*
Y53772D01*
X732166D01*
Y53679D01*
X732074D01*
Y53587D01*
X732166D01*
Y53679D01*
X732350D01*
Y53587D01*
X732442D01*
Y53312D01*
X732350D01*
Y53220D01*
X732442D01*
Y52944D01*
X732350D01*
Y52852D01*
X732442D01*
Y52576D01*
X732350D01*
Y51012D01*
X732442D01*
Y49448D01*
X732258D01*
Y49356D01*
X732350D01*
Y49264D01*
X732258D01*
Y49172D01*
X732350D01*
Y49080D01*
X732258D01*
Y48988D01*
X732350D01*
Y48896D01*
X732258D01*
Y48804D01*
X732350D01*
Y48712D01*
X732258D01*
Y48620D01*
X732350D01*
Y48252D01*
X732258D01*
Y48160D01*
X732166D01*
Y48068D01*
X732074D01*
Y48160D01*
X731982D01*
Y47976D01*
X731338D01*
Y48160D01*
X731246D01*
Y48068D01*
X731154D01*
Y48160D01*
X731062D01*
Y48252D01*
X730970D01*
Y48344D01*
X730878D01*
Y48620D01*
X730786D01*
Y48896D01*
X730694D01*
Y49080D01*
X730786D01*
Y49172D01*
X730694D01*
Y49264D01*
X730786D01*
Y49448D01*
X730602D01*
Y51932D01*
X730510D01*
Y52024D01*
X730235D01*
Y51932D01*
X730143D01*
Y52024D01*
X729867D01*
Y51932D01*
X729775D01*
Y52024D01*
X729499D01*
Y51932D01*
X729407D01*
Y52024D01*
X729131D01*
Y51932D01*
X729039D01*
Y52024D01*
X728763D01*
Y51932D01*
X728671D01*
Y52024D01*
X728395D01*
Y51932D01*
X728303D01*
Y52024D01*
X728027D01*
Y51932D01*
X727935D01*
Y52024D01*
X727659D01*
Y51932D01*
X727567D01*
Y52024D01*
X727291D01*
Y51932D01*
X727199D01*
Y52024D01*
X726923D01*
Y51932D01*
X726831D01*
Y52024D01*
X726555D01*
Y51840D01*
X726463D01*
Y51564D01*
X726555D01*
Y51472D01*
X726463D01*
Y51196D01*
X726555D01*
Y51104D01*
X726463D01*
Y50828D01*
X726555D01*
Y50736D01*
X726463D01*
Y50460D01*
X726555D01*
Y50368D01*
X726463D01*
Y49816D01*
X726647D01*
Y49724D01*
X726555D01*
Y49632D01*
X726647D01*
Y49540D01*
X726555D01*
Y49264D01*
X726647D01*
Y49172D01*
X726555D01*
Y49080D01*
X726647D01*
Y48804D01*
X726739D01*
Y48712D01*
X726647D01*
Y48620D01*
X726739D01*
Y48528D01*
X726831D01*
Y48436D01*
X726739D01*
Y48344D01*
X726831D01*
Y48160D01*
X726923D01*
Y47976D01*
X727015D01*
Y47792D01*
X727107D01*
Y47608D01*
X727199D01*
Y47516D01*
X727291D01*
Y47240D01*
X727383D01*
Y47148D01*
X727475D01*
Y47056D01*
X727567D01*
Y46872D01*
X727475D01*
Y46780D01*
X727567D01*
Y46872D01*
X727751D01*
Y46596D01*
X727843D01*
Y46505D01*
X727935D01*
Y46413D01*
X728027D01*
Y46321D01*
X728119D01*
Y46228D01*
X728303D01*
Y46045D01*
X728487D01*
Y45953D01*
X728671D01*
Y45861D01*
X728763D01*
Y45769D01*
X728855D01*
Y45677D01*
X729131D01*
Y45585D01*
X729407D01*
Y45493D01*
X729683D01*
Y45309D01*
X729775D01*
Y45401D01*
X730051D01*
Y45309D01*
X730694D01*
Y45217D01*
X730786D01*
Y45309D01*
X730970D01*
Y45401D01*
X731062D01*
Y45309D01*
X731338D01*
Y45401D01*
X731430D01*
Y45309D01*
X731522D01*
Y45217D01*
X731614D01*
Y45309D01*
X731706D01*
Y45401D01*
X731798D01*
Y45309D01*
X732074D01*
Y45401D01*
X732166D01*
Y45309D01*
X732350D01*
Y45217D01*
X732442D01*
Y45401D01*
X732534D01*
Y45309D01*
X732810D01*
Y45401D01*
X732902D01*
Y45309D01*
X732994D01*
Y45401D01*
X733362D01*
Y45309D01*
X733454D01*
Y45493D01*
X733822D01*
Y45585D01*
X734098D01*
Y45677D01*
X734282D01*
Y45769D01*
X734558D01*
Y45861D01*
X734834D01*
Y45953D01*
X734926D01*
Y46045D01*
X735202D01*
Y46228D01*
X735386D01*
Y46321D01*
X735478D01*
Y46413D01*
X735570D01*
Y46505D01*
X735662D01*
Y46596D01*
X735846D01*
Y46780D01*
X735938D01*
Y46872D01*
X736122D01*
Y47056D01*
X736214D01*
Y47148D01*
X736306D01*
Y47332D01*
X736398D01*
Y47424D01*
X736490D01*
Y47608D01*
X736582D01*
Y47792D01*
X736674D01*
Y47884D01*
X736766D01*
Y47976D01*
X736674D01*
Y48160D01*
X736766D01*
Y48252D01*
X736858D01*
Y48712D01*
X736950D01*
Y49080D01*
X737042D01*
Y49356D01*
X737134D01*
Y49448D01*
X737042D01*
Y49908D01*
X737134D01*
Y50184D01*
X737042D01*
Y50276D01*
X737134D01*
Y50552D01*
X737042D01*
Y55519D01*
X737226D01*
Y55611D01*
X737134D01*
Y55703D01*
X737226D01*
Y55795D01*
X737134D01*
Y55887D01*
X737226D01*
Y55979D01*
X737134D01*
Y56071D01*
X737226D01*
Y56163D01*
X737134D01*
Y56255D01*
X737226D01*
Y56347D01*
X737134D01*
Y56439D01*
X737226D01*
Y56531D01*
X737134D01*
Y56623D01*
X737226D01*
Y56715D01*
X737134D01*
Y56807D01*
X737042D01*
Y57359D01*
X737134D01*
Y57543D01*
X737042D01*
Y58371D01*
X737134D01*
Y58463D01*
X737042D01*
Y58739D01*
X737134D01*
Y58831D01*
X736950D01*
Y59015D01*
X737042D01*
Y59107D01*
X736950D01*
Y59291D01*
X736858D01*
Y59567D01*
X736766D01*
Y59751D01*
X736858D01*
Y59843D01*
X736674D01*
Y59935D01*
X736766D01*
Y60027D01*
X736674D01*
Y60119D01*
X736582D01*
Y60395D01*
X736490D01*
Y60671D01*
X736398D01*
Y60763D01*
X736306D01*
Y60855D01*
X736214D01*
Y61038D01*
X736122D01*
Y61130D01*
X736030D01*
Y61315D01*
X735938D01*
Y61406D01*
X735846D01*
Y61498D01*
X735754D01*
Y61683D01*
X735478D01*
Y61775D01*
X735386D01*
Y61866D01*
X735202D01*
Y61958D01*
X735110D01*
Y62050D01*
X734834D01*
Y62142D01*
X734742D01*
Y62234D01*
X734558D01*
Y62326D01*
X734282D01*
Y62418D01*
X734006D01*
Y62510D01*
X733822D01*
Y62418D01*
X733730D01*
Y62602D01*
X733362D01*
Y62510D01*
X733270D01*
Y62602D01*
X733178D01*
Y62694D01*
X733086D01*
Y62602D01*
X732994D01*
Y62694D01*
X732902D01*
Y62602D01*
X732810D01*
Y62694D01*
X732534D01*
Y62602D01*
X732442D01*
Y62694D01*
X732166D01*
Y62602D01*
X732074D01*
Y62694D01*
X731890D01*
Y62786D01*
X731798D01*
Y62694D01*
X731706D01*
Y62786D01*
X731614D01*
Y62694D01*
X731522D01*
Y62786D01*
X731430D01*
Y62602D01*
D02*
G37*
G36*
X740261Y64994D02*
X740169D01*
Y64810D01*
X740261D01*
Y64718D01*
X740169D01*
Y64626D01*
X740261D01*
Y64534D01*
X740169D01*
Y64442D01*
X740261D01*
Y64350D01*
X740169D01*
Y64074D01*
X740261D01*
Y63982D01*
X740169D01*
Y63890D01*
X740261D01*
Y63798D01*
X740169D01*
Y63706D01*
X740261D01*
Y63614D01*
X740169D01*
Y63338D01*
X740261D01*
Y63246D01*
X740169D01*
Y63154D01*
X740261D01*
Y63062D01*
X740169D01*
Y62970D01*
X740261D01*
Y62878D01*
X740169D01*
Y62602D01*
X740261D01*
Y62510D01*
X740169D01*
Y62326D01*
X738881D01*
Y62050D01*
X738973D01*
Y61958D01*
X738881D01*
Y61683D01*
X738973D01*
Y61590D01*
X738881D01*
Y61315D01*
X738973D01*
Y61223D01*
X738881D01*
Y60947D01*
X738973D01*
Y60855D01*
X738881D01*
Y60579D01*
X738973D01*
Y60487D01*
X738881D01*
Y60211D01*
X738973D01*
Y60119D01*
X738881D01*
Y59843D01*
X738973D01*
Y59751D01*
X738881D01*
Y59659D01*
X740169D01*
Y59567D01*
X740261D01*
Y59383D01*
X740169D01*
Y59291D01*
X740261D01*
Y59199D01*
X740169D01*
Y58923D01*
X740261D01*
Y58831D01*
X740169D01*
Y58739D01*
X740261D01*
Y58647D01*
X740169D01*
Y58555D01*
X740261D01*
Y58463D01*
X740169D01*
Y58187D01*
X740261D01*
Y58095D01*
X740169D01*
Y58003D01*
X740261D01*
Y57911D01*
X740169D01*
Y57819D01*
X740261D01*
Y57727D01*
X740169D01*
Y57451D01*
X740261D01*
Y57359D01*
X740169D01*
Y57267D01*
X740261D01*
Y57175D01*
X740169D01*
Y57083D01*
X740261D01*
Y56991D01*
X740169D01*
Y56715D01*
X740261D01*
Y56623D01*
X740169D01*
Y56531D01*
X740261D01*
Y56439D01*
X740169D01*
Y56347D01*
X740261D01*
Y56255D01*
X740169D01*
Y55979D01*
X740261D01*
Y55887D01*
X740169D01*
Y55795D01*
X740261D01*
Y55703D01*
X740169D01*
Y55611D01*
X740261D01*
Y55519D01*
X740169D01*
Y55243D01*
X740261D01*
Y55151D01*
X740169D01*
Y55059D01*
X740261D01*
Y54967D01*
X740169D01*
Y54875D01*
X740261D01*
Y54783D01*
X740169D01*
Y54507D01*
X740261D01*
Y54415D01*
X740169D01*
Y54323D01*
X740261D01*
Y54232D01*
X740169D01*
Y54139D01*
X740261D01*
Y54047D01*
X740169D01*
Y53772D01*
X740261D01*
Y53679D01*
X740169D01*
Y53587D01*
X740261D01*
Y53495D01*
X740169D01*
Y53404D01*
X740261D01*
Y53312D01*
X740169D01*
Y53036D01*
X740261D01*
Y52944D01*
X740169D01*
Y52852D01*
X740261D01*
Y52760D01*
X740169D01*
Y52668D01*
X740261D01*
Y52576D01*
X740169D01*
Y52300D01*
X740261D01*
Y52208D01*
X740169D01*
Y52116D01*
X740261D01*
Y52024D01*
X740169D01*
Y51932D01*
X740261D01*
Y51840D01*
X740169D01*
Y51564D01*
X740261D01*
Y51472D01*
X740169D01*
Y51380D01*
X740261D01*
Y51288D01*
X740169D01*
Y51196D01*
X740261D01*
Y51104D01*
X740169D01*
Y50828D01*
X740261D01*
Y50736D01*
X740169D01*
Y50644D01*
X740261D01*
Y50552D01*
X740169D01*
Y50460D01*
X740261D01*
Y50368D01*
X740169D01*
Y50092D01*
X740261D01*
Y50000D01*
X740169D01*
Y49908D01*
X740261D01*
Y49816D01*
X740169D01*
Y49724D01*
X740261D01*
Y49632D01*
X740169D01*
Y49448D01*
X740261D01*
Y48988D01*
X740077D01*
Y48620D01*
X740169D01*
Y48344D01*
X740077D01*
Y48252D01*
X739985D01*
Y48160D01*
X739893D01*
Y48068D01*
X739709D01*
Y48160D01*
X739617D01*
Y48068D01*
X739525D01*
Y47976D01*
X739249D01*
Y48068D01*
X739157D01*
Y47976D01*
X739065D01*
Y48068D01*
X739157D01*
Y48160D01*
X739065D01*
Y48068D01*
X738973D01*
Y47976D01*
X738697D01*
Y47884D01*
X738789D01*
Y47792D01*
X738697D01*
Y47700D01*
X738789D01*
Y47608D01*
X738697D01*
Y47516D01*
X738789D01*
Y47424D01*
X738697D01*
Y47332D01*
X738789D01*
Y47240D01*
X738697D01*
Y47148D01*
X738789D01*
Y47056D01*
X738697D01*
Y46964D01*
X738789D01*
Y46872D01*
X738697D01*
Y46780D01*
X738789D01*
Y46688D01*
X738697D01*
Y46596D01*
X738789D01*
Y46505D01*
X738697D01*
Y46413D01*
X738789D01*
Y46321D01*
X738697D01*
Y46228D01*
X738789D01*
Y46136D01*
X738697D01*
Y46045D01*
X738789D01*
Y45953D01*
X738697D01*
Y45861D01*
X738789D01*
Y45769D01*
X738697D01*
Y45677D01*
X738789D01*
Y45585D01*
X738697D01*
Y45493D01*
X738789D01*
Y45401D01*
X738697D01*
Y45309D01*
X738789D01*
Y45217D01*
X738881D01*
Y45309D01*
X738973D01*
Y45217D01*
X739065D01*
Y45309D01*
X739157D01*
Y45217D01*
X739249D01*
Y45309D01*
X739341D01*
Y45217D01*
X739433D01*
Y45309D01*
X739525D01*
Y45217D01*
X739617D01*
Y45309D01*
X739709D01*
Y45217D01*
X739801D01*
Y45309D01*
X739893D01*
Y45217D01*
X739985D01*
Y45309D01*
X740077D01*
Y45217D01*
X740169D01*
Y45309D01*
X740261D01*
Y45217D01*
X740353D01*
Y45309D01*
X740445D01*
Y45217D01*
X740537D01*
Y45309D01*
X740629D01*
Y45217D01*
X740721D01*
Y45309D01*
X740813D01*
Y45217D01*
X740905D01*
Y45309D01*
X740997D01*
Y45217D01*
X741089D01*
Y45309D01*
X741181D01*
Y45217D01*
X741273D01*
Y45309D01*
X741365D01*
Y45217D01*
X741457D01*
Y45309D01*
X741641D01*
Y45401D01*
X741733D01*
Y45309D01*
X742377D01*
Y45401D01*
X742469D01*
Y45309D01*
X742561D01*
Y45401D01*
X742929D01*
Y45493D01*
X743205D01*
Y45585D01*
X743481D01*
Y45677D01*
X743665D01*
Y45769D01*
X743757D01*
Y45861D01*
X743941D01*
Y45953D01*
X744033D01*
Y46045D01*
X744125D01*
Y46136D01*
X744217D01*
Y46228D01*
X744401D01*
Y46413D01*
X744493D01*
Y46596D01*
X744585D01*
Y46688D01*
X744677D01*
Y46964D01*
X744861D01*
Y47056D01*
X744769D01*
Y47332D01*
X744861D01*
Y47884D01*
X745045D01*
Y47976D01*
X744953D01*
Y48160D01*
X744861D01*
Y51472D01*
X744953D01*
Y51564D01*
X745045D01*
Y51656D01*
X744953D01*
Y51748D01*
X745045D01*
Y51840D01*
X744953D01*
Y51932D01*
X745045D01*
Y52024D01*
X744953D01*
Y52116D01*
X745045D01*
Y52208D01*
X744953D01*
Y52300D01*
X745045D01*
Y52392D01*
X744953D01*
Y52484D01*
X745045D01*
Y52576D01*
X744953D01*
Y52668D01*
X745045D01*
Y52760D01*
X744953D01*
Y52852D01*
X745045D01*
Y52944D01*
X744953D01*
Y53036D01*
X745045D01*
Y53128D01*
X744953D01*
Y53220D01*
X745045D01*
Y53312D01*
X744953D01*
Y53404D01*
X745045D01*
Y53495D01*
X744953D01*
Y53587D01*
X745045D01*
Y53679D01*
X744953D01*
Y53772D01*
X745045D01*
Y53864D01*
X744953D01*
Y53955D01*
X745045D01*
Y54047D01*
X744953D01*
Y54139D01*
X745045D01*
Y54232D01*
X744953D01*
Y54323D01*
X745045D01*
Y54415D01*
X744953D01*
Y54507D01*
X745045D01*
Y54599D01*
X744953D01*
Y54691D01*
X745045D01*
Y54783D01*
X744953D01*
Y58187D01*
X745045D01*
Y58279D01*
X744953D01*
Y58371D01*
X745045D01*
Y58463D01*
X744953D01*
Y58555D01*
X745045D01*
Y58647D01*
X744953D01*
Y58739D01*
X745045D01*
Y58831D01*
X744953D01*
Y58923D01*
X745045D01*
Y59015D01*
X744953D01*
Y59107D01*
X745045D01*
Y59199D01*
X744953D01*
Y59291D01*
X745045D01*
Y59383D01*
X744953D01*
Y59659D01*
X745964D01*
Y59751D01*
X746056D01*
Y59843D01*
X745964D01*
Y59935D01*
X746056D01*
Y60027D01*
X745964D01*
Y60119D01*
X746056D01*
Y60211D01*
X745964D01*
Y60303D01*
X746056D01*
Y60395D01*
X745964D01*
Y60487D01*
X746056D01*
Y60579D01*
X745964D01*
Y60671D01*
X746056D01*
Y60763D01*
X745964D01*
Y60855D01*
X746056D01*
Y60947D01*
X745964D01*
Y61038D01*
X746056D01*
Y61130D01*
X745964D01*
Y61223D01*
X746056D01*
Y61315D01*
X745964D01*
Y61406D01*
X746056D01*
Y61498D01*
X745964D01*
Y61590D01*
X746056D01*
Y61683D01*
X745964D01*
Y61775D01*
X746056D01*
Y61866D01*
X745964D01*
Y61958D01*
X746056D01*
Y62050D01*
X745964D01*
Y62142D01*
X746056D01*
Y62234D01*
X745964D01*
Y62326D01*
X744953D01*
Y62418D01*
X745045D01*
Y62510D01*
X744953D01*
Y62602D01*
X745045D01*
Y62694D01*
X744953D01*
Y62786D01*
X745045D01*
Y62878D01*
X744953D01*
Y62970D01*
X745045D01*
Y63062D01*
X744953D01*
Y63154D01*
X745045D01*
Y63246D01*
X744953D01*
Y63338D01*
X745045D01*
Y63430D01*
X744953D01*
Y63522D01*
X745045D01*
Y63614D01*
X744953D01*
Y63706D01*
X745045D01*
Y63798D01*
X744953D01*
Y63890D01*
X745045D01*
Y63982D01*
X744953D01*
Y64074D01*
X745045D01*
Y64166D01*
X744953D01*
Y64258D01*
X745045D01*
Y64350D01*
X744953D01*
Y64442D01*
X745045D01*
Y64534D01*
X744953D01*
Y64626D01*
X745045D01*
Y64718D01*
X744953D01*
Y64810D01*
X745045D01*
Y64902D01*
X744953D01*
Y65086D01*
X744861D01*
Y64994D01*
X744769D01*
Y65086D01*
X744677D01*
Y64994D01*
X744585D01*
Y65086D01*
X744493D01*
Y64994D01*
X744401D01*
Y65086D01*
X744309D01*
Y64994D01*
X744217D01*
Y65086D01*
X744125D01*
Y64994D01*
X744033D01*
Y65086D01*
X743941D01*
Y64994D01*
X743849D01*
Y65086D01*
X743757D01*
Y64994D01*
X743665D01*
Y65086D01*
X743573D01*
Y64994D01*
X743481D01*
Y65086D01*
X743389D01*
Y64994D01*
X743297D01*
Y65086D01*
X743205D01*
Y64994D01*
X743113D01*
Y65086D01*
X743021D01*
Y64994D01*
X742929D01*
Y65086D01*
X742837D01*
Y64994D01*
X742745D01*
Y65086D01*
X742653D01*
Y64994D01*
X742561D01*
Y65086D01*
X742469D01*
Y64994D01*
X742377D01*
Y65086D01*
X742285D01*
Y64994D01*
X742193D01*
Y65086D01*
X742101D01*
Y64994D01*
X742009D01*
Y65086D01*
X741917D01*
Y64994D01*
X741825D01*
Y65086D01*
X741733D01*
Y64994D01*
X741641D01*
Y65086D01*
X741549D01*
Y64994D01*
X741457D01*
Y65086D01*
X741365D01*
Y64994D01*
X741273D01*
Y65086D01*
X741181D01*
Y64994D01*
X741089D01*
Y65086D01*
X740997D01*
Y64994D01*
X740905D01*
Y65086D01*
X740813D01*
Y64994D01*
X740721D01*
Y65086D01*
X740629D01*
Y64994D01*
X740537D01*
Y65086D01*
X740445D01*
Y64994D01*
X740353D01*
Y65086D01*
X740261D01*
Y64994D01*
D02*
G37*
G36*
X750748Y62786D02*
X750472D01*
Y62878D01*
X750012D01*
Y62786D01*
X749920D01*
Y62694D01*
X749828D01*
Y62786D01*
X749644D01*
Y62694D01*
X749552D01*
Y62786D01*
X749460D01*
Y62602D01*
X749368D01*
Y62694D01*
X749276D01*
Y62602D01*
X749092D01*
Y62510D01*
X748908D01*
Y62418D01*
X748816D01*
Y62326D01*
X748724D01*
Y62234D01*
X748632D01*
Y62142D01*
X748540D01*
Y62050D01*
X748356D01*
Y61866D01*
X748264D01*
Y61775D01*
X748172D01*
Y61498D01*
X748080D01*
Y61406D01*
X747896D01*
Y61315D01*
X747988D01*
Y61223D01*
X747896D01*
Y60947D01*
X747804D01*
Y60763D01*
X747896D01*
Y60671D01*
X747804D01*
Y60487D01*
X747712D01*
Y60303D01*
X747804D01*
Y60211D01*
X747712D01*
Y60119D01*
X747620D01*
Y59475D01*
X747712D01*
Y59107D01*
X747620D01*
Y59015D01*
X747528D01*
Y58923D01*
X747620D01*
Y58831D01*
X747528D01*
Y58739D01*
X747620D01*
Y58371D01*
X747712D01*
Y58279D01*
X747620D01*
Y58003D01*
X747712D01*
Y57911D01*
X747620D01*
Y57635D01*
X747712D01*
Y57543D01*
X747620D01*
Y57267D01*
X747712D01*
Y57175D01*
X747620D01*
Y56899D01*
X747712D01*
Y56807D01*
X747620D01*
Y56531D01*
X747712D01*
Y56439D01*
X747620D01*
Y56163D01*
X747712D01*
Y56071D01*
X747620D01*
Y55795D01*
X747712D01*
Y55703D01*
X747620D01*
Y55427D01*
X747712D01*
Y55335D01*
X747620D01*
Y55059D01*
X747712D01*
Y54967D01*
X747620D01*
Y54691D01*
X747712D01*
Y54599D01*
X747620D01*
Y54323D01*
X747712D01*
Y54232D01*
X747620D01*
Y53955D01*
X747712D01*
Y53864D01*
X747620D01*
Y53587D01*
X747712D01*
Y53495D01*
X747620D01*
Y53220D01*
X747712D01*
Y53128D01*
X747620D01*
Y52852D01*
X747712D01*
Y52760D01*
X747620D01*
Y52484D01*
X747712D01*
Y52392D01*
X747620D01*
Y52116D01*
X747712D01*
Y52024D01*
X747620D01*
Y51748D01*
X747712D01*
Y51656D01*
X747620D01*
Y51380D01*
X747712D01*
Y51288D01*
X747620D01*
Y51012D01*
X747712D01*
Y50920D01*
X747620D01*
Y50644D01*
X747712D01*
Y50552D01*
X747620D01*
Y50276D01*
X747712D01*
Y50184D01*
X747620D01*
Y49908D01*
X747712D01*
Y49816D01*
X747620D01*
Y49540D01*
X747712D01*
Y49448D01*
X747620D01*
Y49172D01*
X747712D01*
Y49080D01*
X747620D01*
Y48804D01*
X747712D01*
Y48712D01*
X747620D01*
Y48436D01*
X747712D01*
Y48344D01*
X747620D01*
Y48068D01*
X747712D01*
Y47976D01*
X747620D01*
Y47700D01*
X747712D01*
Y47608D01*
X747620D01*
Y47332D01*
X747712D01*
Y47240D01*
X747620D01*
Y46964D01*
X747712D01*
Y46872D01*
X747620D01*
Y46596D01*
X747712D01*
Y46505D01*
X747620D01*
Y46228D01*
X747712D01*
Y46136D01*
X747620D01*
Y45861D01*
X747712D01*
Y45769D01*
X747620D01*
Y45493D01*
X747712D01*
Y45401D01*
X747620D01*
Y45217D01*
X747712D01*
Y45309D01*
X747804D01*
Y45217D01*
X747896D01*
Y45309D01*
X747988D01*
Y45217D01*
X748080D01*
Y45309D01*
X748172D01*
Y45217D01*
X748264D01*
Y45309D01*
X748356D01*
Y45217D01*
X748448D01*
Y45309D01*
X748540D01*
Y45217D01*
X748632D01*
Y45309D01*
X748724D01*
Y45217D01*
X748816D01*
Y45309D01*
X748908D01*
Y45217D01*
X749000D01*
Y45309D01*
X749092D01*
Y45217D01*
X749184D01*
Y45309D01*
X749276D01*
Y45217D01*
X749368D01*
Y45309D01*
X749460D01*
Y45217D01*
X749552D01*
Y45309D01*
X749644D01*
Y45217D01*
X749736D01*
Y45309D01*
X749828D01*
Y45217D01*
X749920D01*
Y45309D01*
X750012D01*
Y45217D01*
X750104D01*
Y45309D01*
X750196D01*
Y45217D01*
X750288D01*
Y45309D01*
X750380D01*
Y45217D01*
X750472D01*
Y45309D01*
X750564D01*
Y45217D01*
X750656D01*
Y45309D01*
X750748D01*
Y45217D01*
X750840D01*
Y45309D01*
X750932D01*
Y45217D01*
X751024D01*
Y45309D01*
X751116D01*
Y45217D01*
X751208D01*
Y45309D01*
X751300D01*
Y45217D01*
X751392D01*
Y45309D01*
X751484D01*
Y45217D01*
X751576D01*
Y45309D01*
X751668D01*
Y45217D01*
X751760D01*
Y45309D01*
X751852D01*
Y45217D01*
X751944D01*
Y45309D01*
X752036D01*
Y45217D01*
X752128D01*
Y45309D01*
X752220D01*
Y45217D01*
X752312D01*
Y57543D01*
X752404D01*
Y58095D01*
X752496D01*
Y58187D01*
X752404D01*
Y59383D01*
X752496D01*
Y59567D01*
X752404D01*
Y59659D01*
X752496D01*
Y59843D01*
X752680D01*
Y59935D01*
X752772D01*
Y60027D01*
X753047D01*
Y60119D01*
X753139D01*
Y59935D01*
X753324D01*
Y60027D01*
X753416D01*
Y59935D01*
X753507D01*
Y59751D01*
X753599D01*
Y59659D01*
X753783D01*
Y59475D01*
X753691D01*
Y59383D01*
X753875D01*
Y58831D01*
X753783D01*
Y58555D01*
X753875D01*
Y58463D01*
X753783D01*
Y58279D01*
X753875D01*
Y58003D01*
X753783D01*
Y57911D01*
X753875D01*
Y57727D01*
X753783D01*
Y57635D01*
X753875D01*
Y57267D01*
X753967D01*
Y57175D01*
X753875D01*
Y56899D01*
X753967D01*
Y56807D01*
X753875D01*
Y56531D01*
X753967D01*
Y56439D01*
X753875D01*
Y56163D01*
X753967D01*
Y56071D01*
X753875D01*
Y55795D01*
X753967D01*
Y55703D01*
X753875D01*
Y55427D01*
X753967D01*
Y55335D01*
X753875D01*
Y55059D01*
X753967D01*
Y54967D01*
X753875D01*
Y54691D01*
X753967D01*
Y54599D01*
X753875D01*
Y54323D01*
X753967D01*
Y54232D01*
X753875D01*
Y53955D01*
X753967D01*
Y53864D01*
X753875D01*
Y53587D01*
X753967D01*
Y53495D01*
X753875D01*
Y53220D01*
X753967D01*
Y53128D01*
X753875D01*
Y52852D01*
X753967D01*
Y52760D01*
X753875D01*
Y52484D01*
X753967D01*
Y52392D01*
X753875D01*
Y52116D01*
X753967D01*
Y52024D01*
X753875D01*
Y51748D01*
X753967D01*
Y51656D01*
X753875D01*
Y51380D01*
X753967D01*
Y51288D01*
X753875D01*
Y51012D01*
X753967D01*
Y50920D01*
X753875D01*
Y50644D01*
X753967D01*
Y50552D01*
X753875D01*
Y50276D01*
X753967D01*
Y50184D01*
X753875D01*
Y49908D01*
X753967D01*
Y49816D01*
X753875D01*
Y49540D01*
X753967D01*
Y49448D01*
X753875D01*
Y49172D01*
X753967D01*
Y49080D01*
X753875D01*
Y48804D01*
X753967D01*
Y48712D01*
X753875D01*
Y48436D01*
X753967D01*
Y48344D01*
X753875D01*
Y48068D01*
X753967D01*
Y47976D01*
X753875D01*
Y47700D01*
X753967D01*
Y47608D01*
X753875D01*
Y47332D01*
X753967D01*
Y47240D01*
X753875D01*
Y46964D01*
X753967D01*
Y46872D01*
X753875D01*
Y46596D01*
X753967D01*
Y46505D01*
X753875D01*
Y46228D01*
X753967D01*
Y46136D01*
X753875D01*
Y45861D01*
X753967D01*
Y45769D01*
X753875D01*
Y45493D01*
X753967D01*
Y45401D01*
X753875D01*
Y45217D01*
X753967D01*
Y45309D01*
X754059D01*
Y45217D01*
X754151D01*
Y45309D01*
X754243D01*
Y45217D01*
X754335D01*
Y45309D01*
X754427D01*
Y45217D01*
X754519D01*
Y45309D01*
X754611D01*
Y45217D01*
X754703D01*
Y45309D01*
X754795D01*
Y45217D01*
X754887D01*
Y45309D01*
X754979D01*
Y45217D01*
X755071D01*
Y45309D01*
X755163D01*
Y45217D01*
X755255D01*
Y45309D01*
X755347D01*
Y45217D01*
X755439D01*
Y45309D01*
X755531D01*
Y45217D01*
X755623D01*
Y45309D01*
X755715D01*
Y45217D01*
X755807D01*
Y45309D01*
X755899D01*
Y45217D01*
X755991D01*
Y45309D01*
X756083D01*
Y45217D01*
X756175D01*
Y45309D01*
X756267D01*
Y45217D01*
X756359D01*
Y45309D01*
X756451D01*
Y45217D01*
X756543D01*
Y45309D01*
X756635D01*
Y45217D01*
X756727D01*
Y45309D01*
X756819D01*
Y45217D01*
X756911D01*
Y45309D01*
X757003D01*
Y45217D01*
X757095D01*
Y45309D01*
X757187D01*
Y45217D01*
X757279D01*
Y45309D01*
X757371D01*
Y45217D01*
X757463D01*
Y45309D01*
X757555D01*
Y45217D01*
X757647D01*
Y45309D01*
X757739D01*
Y45217D01*
X757831D01*
Y45309D01*
X757923D01*
Y45217D01*
X758015D01*
Y45309D01*
X758107D01*
Y45217D01*
X758199D01*
Y45309D01*
X758291D01*
Y45217D01*
X758383D01*
Y45309D01*
X758475D01*
Y45217D01*
X758567D01*
Y45309D01*
X758659D01*
Y45401D01*
X758567D01*
Y45493D01*
X758659D01*
Y45585D01*
X758567D01*
Y45677D01*
X758659D01*
Y45769D01*
X758567D01*
Y45861D01*
X758659D01*
Y45953D01*
X758567D01*
Y46045D01*
X758659D01*
Y46136D01*
X758567D01*
Y46228D01*
X758659D01*
Y46321D01*
X758567D01*
Y46413D01*
X758659D01*
Y46505D01*
X758567D01*
Y46596D01*
X758659D01*
Y46688D01*
X758567D01*
Y46780D01*
X758659D01*
Y46872D01*
X758567D01*
Y46964D01*
X758659D01*
Y47056D01*
X758567D01*
Y47148D01*
X758659D01*
Y47240D01*
X758567D01*
Y47332D01*
X758659D01*
Y47424D01*
X758567D01*
Y47516D01*
X758659D01*
Y47608D01*
X758567D01*
Y47700D01*
X758659D01*
Y47792D01*
X758567D01*
Y47884D01*
X758659D01*
Y47976D01*
X758567D01*
Y48068D01*
X758659D01*
Y48160D01*
X758567D01*
Y48252D01*
X758659D01*
Y48344D01*
X758567D01*
Y48436D01*
X758659D01*
Y48528D01*
X758567D01*
Y48620D01*
X758659D01*
Y48712D01*
X758567D01*
Y48804D01*
X758659D01*
Y48896D01*
X758567D01*
Y48988D01*
X758659D01*
Y49080D01*
X758567D01*
Y49172D01*
X758659D01*
Y49264D01*
X758567D01*
Y49356D01*
X758659D01*
Y49448D01*
X758567D01*
Y49540D01*
X758659D01*
Y49632D01*
X758567D01*
Y49724D01*
X758659D01*
Y49816D01*
X758567D01*
Y49908D01*
X758659D01*
Y50000D01*
X758567D01*
Y50092D01*
X758659D01*
Y50184D01*
X758567D01*
Y50276D01*
X758659D01*
Y50368D01*
X758567D01*
Y50460D01*
X758659D01*
Y50552D01*
X758567D01*
Y50644D01*
X758659D01*
Y50736D01*
X758567D01*
Y50828D01*
X758659D01*
Y50920D01*
X758567D01*
Y51012D01*
X758659D01*
Y51104D01*
X758567D01*
Y51196D01*
X758659D01*
Y51288D01*
X758567D01*
Y51380D01*
X758659D01*
Y51472D01*
X758567D01*
Y51564D01*
X758659D01*
Y51656D01*
X758567D01*
Y51748D01*
X758659D01*
Y51840D01*
X758567D01*
Y51932D01*
X758659D01*
Y52024D01*
X758567D01*
Y52116D01*
X758659D01*
Y52208D01*
X758567D01*
Y52300D01*
X758659D01*
Y52392D01*
X758567D01*
Y52484D01*
X758659D01*
Y52576D01*
X758567D01*
Y52668D01*
X758659D01*
Y52760D01*
X758567D01*
Y52852D01*
X758659D01*
Y52944D01*
X758567D01*
Y53036D01*
X758659D01*
Y53128D01*
X758567D01*
Y53220D01*
X758659D01*
Y53312D01*
X758567D01*
Y53404D01*
X758659D01*
Y53495D01*
X758567D01*
Y53587D01*
X758659D01*
Y53679D01*
X758567D01*
Y53772D01*
X758659D01*
Y53864D01*
X758567D01*
Y53955D01*
X758659D01*
Y54047D01*
X758567D01*
Y54139D01*
X758659D01*
Y54232D01*
X758567D01*
Y54323D01*
X758659D01*
Y54415D01*
X758567D01*
Y54507D01*
X758659D01*
Y54599D01*
X758567D01*
Y54691D01*
X758659D01*
Y54783D01*
X758567D01*
Y54875D01*
X758659D01*
Y54967D01*
X758567D01*
Y55059D01*
X758659D01*
Y55151D01*
X758567D01*
Y55243D01*
X758659D01*
Y55335D01*
X758567D01*
Y55427D01*
X758659D01*
Y55519D01*
X758567D01*
Y55611D01*
X758659D01*
Y55703D01*
X758567D01*
Y55795D01*
X758659D01*
Y55887D01*
X758567D01*
Y55979D01*
X758659D01*
Y56071D01*
X758567D01*
Y56163D01*
X758659D01*
Y56255D01*
X758567D01*
Y56347D01*
X758659D01*
Y56439D01*
X758567D01*
Y56531D01*
X758659D01*
Y56623D01*
X758567D01*
Y56715D01*
X758659D01*
Y56807D01*
X758567D01*
Y56899D01*
X758659D01*
Y56991D01*
X758567D01*
Y57083D01*
X758659D01*
Y57175D01*
X758567D01*
Y57267D01*
X758659D01*
Y57359D01*
X758567D01*
Y57451D01*
X758659D01*
Y57543D01*
X758567D01*
Y57635D01*
X758659D01*
Y57727D01*
X758567D01*
Y57819D01*
X758659D01*
Y57911D01*
X758567D01*
Y58003D01*
X758659D01*
Y58095D01*
X758567D01*
Y58187D01*
X758659D01*
Y58279D01*
X758567D01*
Y58371D01*
X758659D01*
Y58463D01*
X758567D01*
Y58555D01*
X758659D01*
Y58647D01*
X758567D01*
Y58739D01*
X758659D01*
Y58831D01*
X758567D01*
Y58923D01*
X758659D01*
Y59015D01*
X758567D01*
Y59107D01*
X758659D01*
Y59199D01*
X758567D01*
Y59291D01*
X758659D01*
Y59383D01*
X758567D01*
Y59475D01*
X758659D01*
Y59567D01*
X758567D01*
Y59659D01*
X758659D01*
Y59751D01*
X758567D01*
Y59843D01*
X758659D01*
Y59935D01*
X758567D01*
Y60027D01*
X758659D01*
Y60119D01*
X758567D01*
Y60211D01*
X758659D01*
Y60303D01*
X758567D01*
Y60395D01*
X758659D01*
Y60487D01*
X758567D01*
Y60579D01*
X758659D01*
Y60671D01*
X758567D01*
Y60763D01*
X758659D01*
Y60855D01*
X758567D01*
Y60947D01*
X758659D01*
Y61038D01*
X758567D01*
Y61130D01*
X758659D01*
Y61223D01*
X758567D01*
Y61315D01*
X758659D01*
Y61406D01*
X758567D01*
Y61498D01*
X758659D01*
Y61590D01*
X758567D01*
Y61683D01*
X758659D01*
Y61775D01*
X758567D01*
Y61866D01*
X758659D01*
Y61958D01*
X758567D01*
Y62050D01*
X758659D01*
Y62142D01*
X758567D01*
Y62234D01*
X758659D01*
Y62326D01*
X758567D01*
Y62418D01*
X758659D01*
Y62510D01*
X758567D01*
Y62602D01*
X758659D01*
Y62694D01*
X758567D01*
Y62786D01*
X758475D01*
Y62694D01*
X758383D01*
Y62786D01*
X758291D01*
Y62694D01*
X758199D01*
Y62786D01*
X758107D01*
Y62694D01*
X758015D01*
Y62786D01*
X757923D01*
Y62694D01*
X757831D01*
Y62786D01*
X757739D01*
Y62694D01*
X757647D01*
Y62786D01*
X757555D01*
Y62694D01*
X757463D01*
Y62786D01*
X757371D01*
Y62694D01*
X757279D01*
Y62786D01*
X757003D01*
Y62694D01*
X756911D01*
Y62786D01*
X756819D01*
Y62694D01*
X756727D01*
Y62786D01*
X756635D01*
Y62694D01*
X756543D01*
Y62786D01*
X756451D01*
Y62694D01*
X756359D01*
Y62786D01*
X756267D01*
Y62694D01*
X756175D01*
Y62786D01*
X756083D01*
Y62694D01*
X755991D01*
Y62786D01*
X755899D01*
Y62694D01*
X755807D01*
Y62786D01*
X755531D01*
Y62694D01*
X755439D01*
Y62786D01*
X755347D01*
Y62694D01*
X755255D01*
Y62786D01*
X755163D01*
Y62694D01*
X755071D01*
Y62786D01*
X754979D01*
Y62694D01*
X754887D01*
Y62786D01*
X754795D01*
Y62694D01*
X754703D01*
Y62786D01*
X754611D01*
Y62694D01*
X754519D01*
Y62786D01*
X754427D01*
Y62694D01*
X754335D01*
Y62786D01*
X754059D01*
Y62694D01*
X753967D01*
Y62786D01*
X753691D01*
Y62418D01*
X753783D01*
Y62326D01*
X753875D01*
Y62050D01*
X753783D01*
Y61958D01*
X753875D01*
Y61315D01*
X753967D01*
Y61223D01*
X753875D01*
Y61130D01*
X753783D01*
Y61223D01*
X753691D01*
Y61315D01*
X753599D01*
Y61498D01*
X753691D01*
Y61590D01*
X753507D01*
Y61498D01*
X753416D01*
Y61683D01*
X753507D01*
Y61775D01*
X753324D01*
Y61866D01*
X753232D01*
Y61958D01*
X753139D01*
Y62050D01*
X753047D01*
Y62142D01*
X752955D01*
Y62234D01*
X752772D01*
Y62326D01*
X752588D01*
Y62418D01*
X752496D01*
Y62510D01*
X752312D01*
Y62602D01*
X752128D01*
Y62694D01*
X752036D01*
Y62602D01*
X751944D01*
Y62694D01*
X751668D01*
Y62786D01*
X751576D01*
Y62878D01*
X751300D01*
Y62786D01*
X751116D01*
Y62878D01*
X751024D01*
Y62970D01*
X750932D01*
Y62878D01*
X750840D01*
Y62970D01*
X750748D01*
Y62786D01*
D02*
G37*
G36*
X760315Y45217D02*
X760406D01*
Y45309D01*
X760499D01*
Y45217D01*
X760591D01*
Y45309D01*
X760683D01*
Y45217D01*
X760775D01*
Y45309D01*
X760866D01*
Y45217D01*
X760958D01*
Y45309D01*
X761050D01*
Y45217D01*
X761142D01*
Y45309D01*
X761234D01*
Y45217D01*
X761326D01*
Y45309D01*
X761418D01*
Y45217D01*
X761510D01*
Y45309D01*
X761602D01*
Y45217D01*
X761694D01*
Y45309D01*
X761786D01*
Y45217D01*
X761878D01*
Y45309D01*
X761970D01*
Y45217D01*
X762062D01*
Y45309D01*
X762154D01*
Y45217D01*
X762246D01*
Y45309D01*
X762338D01*
Y45217D01*
X762430D01*
Y45309D01*
X762522D01*
Y45217D01*
X762614D01*
Y45309D01*
X762706D01*
Y45217D01*
X762798D01*
Y45309D01*
X762890D01*
Y45217D01*
X762982D01*
Y45309D01*
X763074D01*
Y45217D01*
X763166D01*
Y45309D01*
X763258D01*
Y45217D01*
X763350D01*
Y45309D01*
X763442D01*
Y45217D01*
X763534D01*
Y45309D01*
X763626D01*
Y45217D01*
X763718D01*
Y45309D01*
X763810D01*
Y45217D01*
X763902D01*
Y45309D01*
X763994D01*
Y45217D01*
X764086D01*
Y45309D01*
X764178D01*
Y45217D01*
X764270D01*
Y45309D01*
X764362D01*
Y45217D01*
X764454D01*
Y45309D01*
X764546D01*
Y45217D01*
X764638D01*
Y45309D01*
X764730D01*
Y45217D01*
X764822D01*
Y45309D01*
X764914D01*
Y45217D01*
X765006D01*
Y45309D01*
X765098D01*
Y45217D01*
X765190D01*
Y45309D01*
X765282D01*
Y45217D01*
X765374D01*
Y45309D01*
X765466D01*
Y45401D01*
X765558D01*
Y46045D01*
X765466D01*
Y46136D01*
X765558D01*
Y47516D01*
X765466D01*
Y47608D01*
X765558D01*
Y48988D01*
X765466D01*
Y49080D01*
X765558D01*
Y50460D01*
X765466D01*
Y50552D01*
X765558D01*
Y51932D01*
X765466D01*
Y52024D01*
X765558D01*
Y53404D01*
X765466D01*
Y53495D01*
X765558D01*
Y54875D01*
X765466D01*
Y54967D01*
X765558D01*
Y56347D01*
X765466D01*
Y56439D01*
X765558D01*
Y57819D01*
X765466D01*
Y57911D01*
X765558D01*
Y59291D01*
X765466D01*
Y59383D01*
X765558D01*
Y60763D01*
X765466D01*
Y60855D01*
X765558D01*
Y62234D01*
X765466D01*
Y62326D01*
X765558D01*
Y62786D01*
X765466D01*
Y62694D01*
X765374D01*
Y62786D01*
X765282D01*
Y62694D01*
X765190D01*
Y62786D01*
X765098D01*
Y62694D01*
X765006D01*
Y62786D01*
X764914D01*
Y62694D01*
X764822D01*
Y62786D01*
X764730D01*
Y62694D01*
X764638D01*
Y62786D01*
X764362D01*
Y62694D01*
X764270D01*
Y62786D01*
X764178D01*
Y62694D01*
X764086D01*
Y62786D01*
X763994D01*
Y62694D01*
X763902D01*
Y62786D01*
X763810D01*
Y62694D01*
X763718D01*
Y62786D01*
X763626D01*
Y62694D01*
X763534D01*
Y62786D01*
X763442D01*
Y62694D01*
X763350D01*
Y62786D01*
X763258D01*
Y62694D01*
X763166D01*
Y62786D01*
X762890D01*
Y62694D01*
X762798D01*
Y62786D01*
X762706D01*
Y62694D01*
X762614D01*
Y62786D01*
X762522D01*
Y62694D01*
X762430D01*
Y62786D01*
X762338D01*
Y62694D01*
X762246D01*
Y62786D01*
X762154D01*
Y62694D01*
X762062D01*
Y62786D01*
X761970D01*
Y62694D01*
X761878D01*
Y62786D01*
X761786D01*
Y62694D01*
X761694D01*
Y62786D01*
X761418D01*
Y62694D01*
X761326D01*
Y62786D01*
X761234D01*
Y62694D01*
X761142D01*
Y62786D01*
X761050D01*
Y62694D01*
X760958D01*
Y62786D01*
X760866D01*
Y62694D01*
X760775D01*
Y62786D01*
X760683D01*
Y62694D01*
X760591D01*
Y62786D01*
X760499D01*
Y62694D01*
X760406D01*
Y62786D01*
X760315D01*
Y45217D01*
D02*
G37*
G36*
Y63890D02*
X765558D01*
Y65178D01*
X765466D01*
Y65270D01*
X765558D01*
Y66650D01*
X765282D01*
Y66558D01*
X765190D01*
Y66650D01*
X765098D01*
Y66558D01*
X765006D01*
Y66650D01*
X764914D01*
Y66558D01*
X764822D01*
Y66650D01*
X764730D01*
Y66558D01*
X764638D01*
Y66650D01*
X764546D01*
Y66558D01*
X764454D01*
Y66650D01*
X764362D01*
Y66558D01*
X764270D01*
Y66650D01*
X764178D01*
Y66558D01*
X764086D01*
Y66650D01*
X763994D01*
Y66558D01*
X763902D01*
Y66650D01*
X763810D01*
Y66558D01*
X763718D01*
Y66650D01*
X763626D01*
Y66558D01*
X763534D01*
Y66650D01*
X763442D01*
Y66558D01*
X763350D01*
Y66650D01*
X763258D01*
Y66558D01*
X763166D01*
Y66650D01*
X763074D01*
Y66558D01*
X762982D01*
Y66650D01*
X762890D01*
Y66558D01*
X762798D01*
Y66650D01*
X762706D01*
Y66558D01*
X762614D01*
Y66650D01*
X762522D01*
Y66558D01*
X762430D01*
Y66650D01*
X762338D01*
Y66558D01*
X762246D01*
Y66650D01*
X762154D01*
Y66558D01*
X762062D01*
Y66650D01*
X761970D01*
Y66558D01*
X761878D01*
Y66650D01*
X761786D01*
Y66558D01*
X761694D01*
Y66650D01*
X761602D01*
Y66558D01*
X761510D01*
Y66650D01*
X761418D01*
Y66558D01*
X761326D01*
Y66650D01*
X761234D01*
Y66558D01*
X761142D01*
Y66650D01*
X761050D01*
Y66558D01*
X760958D01*
Y66650D01*
X760866D01*
Y66558D01*
X760775D01*
Y66650D01*
X760683D01*
Y66558D01*
X760591D01*
Y66650D01*
X760499D01*
Y66558D01*
X760406D01*
Y66650D01*
X760315D01*
Y63890D01*
D02*
G37*
G36*
X766938Y66282D02*
X767030D01*
Y66006D01*
X767122D01*
Y65822D01*
X767030D01*
Y65730D01*
X767214D01*
Y65546D01*
X767122D01*
Y65454D01*
X767306D01*
Y65270D01*
X767398D01*
Y65178D01*
X767306D01*
Y64994D01*
X767398D01*
Y64902D01*
X767490D01*
Y64626D01*
X767582D01*
Y64534D01*
X767490D01*
Y64442D01*
X767582D01*
Y64350D01*
X767674D01*
Y63982D01*
X767766D01*
Y63706D01*
X767858D01*
Y63522D01*
X767950D01*
Y63246D01*
X768042D01*
Y62878D01*
X768133D01*
Y62694D01*
X768225D01*
Y62418D01*
X768317D01*
Y62326D01*
X768225D01*
Y62234D01*
X768317D01*
Y62142D01*
X768410D01*
Y61958D01*
X768317D01*
Y61866D01*
X768502D01*
Y61590D01*
X768594D01*
Y61406D01*
X768686D01*
Y61223D01*
X768594D01*
Y61130D01*
X768686D01*
Y61038D01*
X768777D01*
Y60763D01*
X768869D01*
Y60671D01*
X768961D01*
Y60579D01*
X768869D01*
Y60395D01*
X768961D01*
Y60119D01*
X769053D01*
Y59843D01*
X769145D01*
Y59659D01*
X769237D01*
Y59383D01*
X769329D01*
Y59015D01*
X769421D01*
Y58831D01*
X769513D01*
Y58647D01*
X769605D01*
Y58371D01*
X769513D01*
Y58279D01*
X769697D01*
Y58095D01*
X769605D01*
Y58003D01*
X769789D01*
Y57727D01*
X769881D01*
Y57543D01*
X769973D01*
Y57359D01*
X769881D01*
Y57267D01*
X769973D01*
Y57175D01*
X770065D01*
Y56991D01*
X769973D01*
Y56899D01*
X770065D01*
Y56715D01*
X769881D01*
Y56623D01*
X769973D01*
Y56531D01*
X769881D01*
Y56439D01*
X769789D01*
Y56347D01*
X769881D01*
Y56163D01*
X769789D01*
Y56071D01*
X769697D01*
Y55979D01*
X769789D01*
Y55795D01*
X769697D01*
Y55703D01*
X769605D01*
Y55427D01*
X769513D01*
Y55335D01*
X769605D01*
Y55243D01*
X769513D01*
Y54967D01*
X769421D01*
Y54691D01*
X769329D01*
Y54415D01*
X769237D01*
Y54047D01*
X769145D01*
Y53772D01*
X769053D01*
Y53679D01*
X769145D01*
Y53587D01*
X768961D01*
Y53312D01*
X768869D01*
Y53128D01*
X768961D01*
Y53036D01*
X768869D01*
Y52944D01*
X768777D01*
Y52852D01*
X768869D01*
Y52760D01*
X768777D01*
Y52392D01*
X768686D01*
Y52208D01*
X768594D01*
Y52116D01*
X768686D01*
Y52024D01*
X768594D01*
Y51840D01*
X768502D01*
Y51656D01*
X768317D01*
Y51564D01*
X768410D01*
Y51196D01*
X768317D01*
Y50920D01*
X768225D01*
Y50644D01*
X768133D01*
Y50368D01*
X768042D01*
Y50092D01*
X767950D01*
Y49816D01*
X767858D01*
Y49540D01*
X767766D01*
Y49448D01*
X767858D01*
Y49356D01*
X767766D01*
Y49264D01*
X767674D01*
Y49172D01*
X767766D01*
Y49080D01*
X767674D01*
Y48712D01*
X767490D01*
Y48620D01*
X767582D01*
Y48436D01*
X767490D01*
Y48252D01*
X767398D01*
Y47884D01*
X767306D01*
Y47608D01*
X767214D01*
Y47332D01*
X767122D01*
Y46964D01*
X767030D01*
Y46688D01*
X766938D01*
Y46413D01*
X766846D01*
Y46136D01*
X766754D01*
Y45769D01*
X766662D01*
Y45493D01*
X766570D01*
Y45217D01*
X766662D01*
Y45309D01*
X766754D01*
Y45217D01*
X766846D01*
Y45309D01*
X766938D01*
Y45217D01*
X767030D01*
Y45309D01*
X767122D01*
Y45217D01*
X767214D01*
Y45309D01*
X767306D01*
Y45217D01*
X767398D01*
Y45309D01*
X767490D01*
Y45217D01*
X767582D01*
Y45309D01*
X767674D01*
Y45217D01*
X767766D01*
Y45309D01*
X767858D01*
Y45217D01*
X767950D01*
Y45309D01*
X768042D01*
Y45217D01*
X768133D01*
Y45309D01*
X768225D01*
Y45217D01*
X768317D01*
Y45309D01*
X768410D01*
Y45217D01*
X768502D01*
Y45309D01*
X768594D01*
Y45217D01*
X768686D01*
Y45309D01*
X768777D01*
Y45217D01*
X768869D01*
Y45309D01*
X768961D01*
Y45217D01*
X769053D01*
Y45309D01*
X769145D01*
Y45217D01*
X769237D01*
Y45309D01*
X769329D01*
Y45217D01*
X769421D01*
Y45309D01*
X769513D01*
Y45217D01*
X769605D01*
Y45309D01*
X769697D01*
Y45217D01*
X769789D01*
Y45309D01*
X769881D01*
Y45217D01*
X769973D01*
Y45309D01*
X770065D01*
Y45217D01*
X770157D01*
Y45309D01*
X770249D01*
Y45217D01*
X770341D01*
Y45309D01*
X770433D01*
Y45217D01*
X770525D01*
Y45309D01*
X770617D01*
Y45217D01*
X770709D01*
Y45309D01*
X770801D01*
Y45217D01*
X770893D01*
Y45309D01*
X770985D01*
Y45217D01*
X771077D01*
Y45309D01*
X771169D01*
Y45217D01*
X771261D01*
Y45309D01*
X771353D01*
Y45217D01*
X771445D01*
Y45309D01*
X771537D01*
Y45217D01*
X771629D01*
Y45309D01*
X771721D01*
Y45217D01*
X771813D01*
Y45309D01*
X771905D01*
Y45217D01*
X771997D01*
Y45309D01*
X772089D01*
Y45217D01*
X772181D01*
Y45401D01*
X772273D01*
Y45769D01*
X772365D01*
Y46045D01*
X772457D01*
Y46413D01*
X772549D01*
Y46872D01*
X772641D01*
Y46964D01*
X772549D01*
Y47056D01*
X772641D01*
Y47148D01*
X772733D01*
Y47516D01*
X772825D01*
Y47608D01*
X772733D01*
Y47792D01*
X772825D01*
Y47884D01*
X772917D01*
Y47976D01*
X772825D01*
Y48068D01*
X772917D01*
Y48528D01*
X773101D01*
Y48712D01*
X773009D01*
Y48896D01*
X773101D01*
Y49264D01*
X773193D01*
Y49632D01*
X773285D01*
Y49908D01*
X773377D01*
Y50368D01*
X773469D01*
Y50736D01*
X773561D01*
Y51012D01*
X773745D01*
Y51104D01*
X773653D01*
Y51380D01*
X773745D01*
Y51748D01*
X773837D01*
Y52116D01*
X773929D01*
Y52300D01*
X773837D01*
Y52392D01*
X774021D01*
Y52576D01*
X773929D01*
Y52668D01*
X774021D01*
Y52944D01*
X774113D01*
Y53036D01*
X774021D01*
Y53128D01*
X774113D01*
Y53220D01*
X774205D01*
Y53679D01*
X774297D01*
Y53864D01*
X774389D01*
Y53955D01*
X774297D01*
Y54047D01*
X774389D01*
Y54323D01*
X774573D01*
Y45309D01*
X774665D01*
Y45217D01*
X774757D01*
Y45309D01*
X774849D01*
Y45217D01*
X774941D01*
Y45309D01*
X775033D01*
Y45217D01*
X775125D01*
Y45309D01*
X775217D01*
Y45217D01*
X775309D01*
Y45309D01*
X775401D01*
Y45217D01*
X775493D01*
Y45309D01*
X775585D01*
Y45217D01*
X775676D01*
Y45309D01*
X775769D01*
Y45217D01*
X775861D01*
Y45309D01*
X775953D01*
Y45217D01*
X776044D01*
Y45309D01*
X776136D01*
Y45217D01*
X776228D01*
Y45309D01*
X776320D01*
Y45217D01*
X776413D01*
Y45309D01*
X776504D01*
Y45217D01*
X776596D01*
Y45309D01*
X776688D01*
Y45217D01*
X776780D01*
Y45309D01*
X776872D01*
Y45217D01*
X776964D01*
Y45309D01*
X777056D01*
Y45217D01*
X777148D01*
Y45309D01*
X777240D01*
Y45217D01*
X777332D01*
Y45309D01*
X777424D01*
Y45217D01*
X777516D01*
Y45309D01*
X777608D01*
Y45217D01*
X777700D01*
Y45309D01*
X777792D01*
Y45217D01*
X777884D01*
Y45309D01*
X777976D01*
Y45217D01*
X778068D01*
Y45309D01*
X778160D01*
Y45217D01*
X778252D01*
Y45309D01*
X778344D01*
Y45217D01*
X778436D01*
Y45309D01*
X778528D01*
Y45217D01*
X778620D01*
Y45309D01*
X778712D01*
Y45217D01*
X778804D01*
Y45309D01*
X778896D01*
Y45217D01*
X778988D01*
Y45309D01*
X779080D01*
Y45217D01*
X779172D01*
Y45309D01*
X779264D01*
Y45217D01*
X779356D01*
Y45309D01*
X779448D01*
Y45217D01*
X779540D01*
Y45309D01*
X779632D01*
Y45217D01*
X779724D01*
Y45309D01*
X779816D01*
Y45217D01*
X779908D01*
Y45401D01*
X780000D01*
Y45493D01*
X779908D01*
Y45585D01*
X780000D01*
Y45677D01*
X779908D01*
Y45769D01*
X780000D01*
Y45861D01*
X779908D01*
Y45953D01*
X780000D01*
Y46045D01*
X779908D01*
Y46136D01*
X780000D01*
Y46228D01*
X779908D01*
Y46321D01*
X780000D01*
Y46413D01*
X779908D01*
Y46505D01*
X780000D01*
Y46596D01*
X779908D01*
Y46688D01*
X780000D01*
Y46780D01*
X779908D01*
Y46872D01*
X780000D01*
Y46964D01*
X779908D01*
Y47056D01*
X780000D01*
Y47148D01*
X779908D01*
Y47240D01*
X780000D01*
Y47332D01*
X779908D01*
Y47424D01*
X780000D01*
Y47516D01*
X779908D01*
Y47608D01*
X780000D01*
Y47700D01*
X779908D01*
Y47792D01*
X780000D01*
Y47884D01*
X779908D01*
Y47976D01*
X780000D01*
Y48068D01*
X779908D01*
Y48160D01*
X780000D01*
Y48252D01*
X779908D01*
Y48344D01*
X780000D01*
Y48436D01*
X779908D01*
Y48528D01*
X780000D01*
Y48620D01*
X779908D01*
Y48712D01*
X780000D01*
Y48804D01*
X779908D01*
Y48896D01*
X780000D01*
Y48988D01*
X779908D01*
Y49080D01*
X780000D01*
Y49172D01*
X779908D01*
Y49264D01*
X780000D01*
Y49356D01*
X779908D01*
Y49448D01*
X780000D01*
Y49540D01*
X779908D01*
Y49632D01*
X780000D01*
Y49724D01*
X779908D01*
Y49816D01*
X780000D01*
Y49908D01*
X779908D01*
Y50000D01*
X780000D01*
Y50092D01*
X779908D01*
Y50184D01*
X780000D01*
Y50276D01*
X779908D01*
Y50368D01*
X780000D01*
Y50460D01*
X779908D01*
Y50552D01*
X780000D01*
Y50644D01*
X779908D01*
Y50736D01*
X780000D01*
Y50828D01*
X779908D01*
Y50920D01*
X780000D01*
Y51012D01*
X779908D01*
Y51104D01*
X780000D01*
Y51196D01*
X779908D01*
Y51288D01*
X780000D01*
Y51380D01*
X779908D01*
Y51472D01*
X780000D01*
Y51564D01*
X779908D01*
Y51656D01*
X780000D01*
Y51748D01*
X779908D01*
Y51840D01*
X780000D01*
Y51932D01*
X779908D01*
Y52024D01*
X780000D01*
Y52116D01*
X779908D01*
Y52208D01*
X780000D01*
Y52300D01*
X779908D01*
Y52392D01*
X780000D01*
Y52484D01*
X779908D01*
Y52576D01*
X780000D01*
Y52668D01*
X779908D01*
Y52760D01*
X780000D01*
Y52852D01*
X779908D01*
Y52944D01*
X780000D01*
Y53036D01*
X779908D01*
Y53128D01*
X780000D01*
Y53220D01*
X779908D01*
Y53312D01*
X780000D01*
Y53404D01*
X779908D01*
Y53495D01*
X780000D01*
Y53587D01*
X779908D01*
Y53679D01*
X780000D01*
Y53772D01*
X779908D01*
Y53864D01*
X780000D01*
Y53955D01*
X779908D01*
Y54047D01*
X780000D01*
Y54139D01*
X779908D01*
Y54232D01*
X780000D01*
Y54323D01*
X779908D01*
Y54415D01*
X780000D01*
Y54507D01*
X779908D01*
Y54599D01*
X780000D01*
Y54691D01*
X779908D01*
Y54783D01*
X780000D01*
Y54875D01*
X779908D01*
Y54967D01*
X780000D01*
Y55059D01*
X779908D01*
Y55151D01*
X780000D01*
Y55243D01*
X779908D01*
Y55335D01*
X780000D01*
Y55427D01*
X779908D01*
Y55519D01*
X780000D01*
Y55611D01*
X779908D01*
Y55703D01*
X780000D01*
Y55795D01*
X779908D01*
Y55887D01*
X780000D01*
Y55979D01*
X779908D01*
Y56071D01*
X780000D01*
Y56163D01*
X779908D01*
Y56255D01*
X780000D01*
Y56347D01*
X779908D01*
Y56439D01*
X780000D01*
Y56531D01*
X779908D01*
Y56623D01*
X780000D01*
Y56715D01*
X779908D01*
Y56807D01*
X780000D01*
Y56899D01*
X779908D01*
Y56991D01*
X780000D01*
Y57083D01*
X779908D01*
Y57175D01*
X780000D01*
Y57267D01*
X779908D01*
Y57359D01*
X780000D01*
Y57451D01*
X779908D01*
Y57543D01*
X780000D01*
Y57635D01*
X779908D01*
Y57727D01*
X780000D01*
Y57819D01*
X779908D01*
Y57911D01*
X780000D01*
Y58003D01*
X779908D01*
Y58095D01*
X780000D01*
Y58187D01*
X779908D01*
Y58279D01*
X780000D01*
Y58371D01*
X779908D01*
Y58463D01*
X780000D01*
Y58555D01*
X779908D01*
Y58647D01*
X780000D01*
Y58739D01*
X779908D01*
Y58831D01*
X780000D01*
Y58923D01*
X779908D01*
Y59015D01*
X780000D01*
Y59107D01*
X779908D01*
Y59199D01*
X780000D01*
Y59291D01*
X779908D01*
Y59383D01*
X780000D01*
Y59475D01*
X779908D01*
Y59567D01*
X780000D01*
Y59659D01*
X779908D01*
Y59751D01*
X780000D01*
Y59843D01*
X779908D01*
Y59935D01*
X780000D01*
Y60027D01*
X779908D01*
Y60119D01*
X780000D01*
Y60211D01*
X779908D01*
Y60303D01*
X780000D01*
Y60395D01*
X779908D01*
Y60487D01*
X780000D01*
Y60579D01*
X779908D01*
Y60671D01*
X780000D01*
Y60763D01*
X779908D01*
Y60855D01*
X780000D01*
Y60947D01*
X779908D01*
Y61038D01*
X780000D01*
Y61130D01*
X779908D01*
Y61223D01*
X780000D01*
Y61315D01*
X779908D01*
Y61406D01*
X780000D01*
Y61498D01*
X779908D01*
Y61590D01*
X780000D01*
Y61683D01*
X779908D01*
Y61775D01*
X780000D01*
Y61866D01*
X779908D01*
Y61958D01*
X780000D01*
Y62050D01*
X779908D01*
Y62142D01*
X780000D01*
Y62234D01*
X779908D01*
Y62326D01*
X780000D01*
Y62418D01*
X779908D01*
Y62510D01*
X780000D01*
Y62602D01*
X779908D01*
Y62694D01*
X780000D01*
Y62786D01*
X779908D01*
Y62878D01*
X780000D01*
Y62970D01*
X779908D01*
Y63062D01*
X780000D01*
Y63154D01*
X779908D01*
Y63246D01*
X780000D01*
Y63338D01*
X779908D01*
Y63430D01*
X780000D01*
Y63522D01*
X779908D01*
Y63614D01*
X780000D01*
Y63706D01*
X779908D01*
Y63798D01*
X780000D01*
Y63890D01*
X779908D01*
Y63982D01*
X780000D01*
Y64074D01*
X779908D01*
Y64166D01*
X780000D01*
Y64258D01*
X779908D01*
Y64350D01*
X780000D01*
Y64442D01*
X779908D01*
Y64534D01*
X780000D01*
Y64626D01*
X779908D01*
Y64718D01*
X780000D01*
Y64810D01*
X779908D01*
Y64902D01*
X780000D01*
Y64994D01*
X779908D01*
Y65086D01*
X780000D01*
Y65178D01*
X779908D01*
Y65270D01*
X780000D01*
Y65362D01*
X779908D01*
Y65454D01*
X780000D01*
Y65546D01*
X779908D01*
Y65638D01*
X780000D01*
Y65730D01*
X779908D01*
Y65822D01*
X780000D01*
Y65914D01*
X779908D01*
Y66006D01*
X780000D01*
Y66098D01*
X779908D01*
Y66190D01*
X780000D01*
Y66282D01*
X779908D01*
Y66374D01*
X780000D01*
Y66466D01*
X779908D01*
Y66650D01*
X779816D01*
Y66558D01*
X779724D01*
Y66650D01*
X779632D01*
Y66558D01*
X779540D01*
Y66650D01*
X779448D01*
Y66558D01*
X779356D01*
Y66650D01*
X779264D01*
Y66558D01*
X779172D01*
Y66650D01*
X779080D01*
Y66558D01*
X778988D01*
Y66650D01*
X778896D01*
Y66558D01*
X778804D01*
Y66650D01*
X778712D01*
Y66558D01*
X778620D01*
Y66650D01*
X778528D01*
Y66558D01*
X778436D01*
Y66650D01*
X778344D01*
Y66558D01*
X778252D01*
Y66650D01*
X778160D01*
Y66558D01*
X778068D01*
Y66650D01*
X777976D01*
Y66558D01*
X777884D01*
Y66650D01*
X777792D01*
Y66558D01*
X777700D01*
Y66650D01*
X777608D01*
Y66558D01*
X777516D01*
Y66650D01*
X777424D01*
Y66558D01*
X777332D01*
Y66650D01*
X777240D01*
Y66558D01*
X777148D01*
Y66650D01*
X777056D01*
Y66558D01*
X776964D01*
Y66650D01*
X776872D01*
Y66558D01*
X776780D01*
Y66650D01*
X776688D01*
Y66558D01*
X776596D01*
Y66650D01*
X776504D01*
Y66558D01*
X776413D01*
Y66650D01*
X776320D01*
Y66558D01*
X776228D01*
Y66650D01*
X776136D01*
Y66558D01*
X776044D01*
Y66650D01*
X775953D01*
Y66558D01*
X775861D01*
Y66650D01*
X775769D01*
Y66558D01*
X775676D01*
Y66650D01*
X775585D01*
Y66558D01*
X775493D01*
Y66650D01*
X775401D01*
Y66558D01*
X775309D01*
Y66650D01*
X775217D01*
Y66558D01*
X775125D01*
Y66650D01*
X775033D01*
Y66558D01*
X774941D01*
Y66650D01*
X774849D01*
Y66558D01*
X774757D01*
Y66650D01*
X774665D01*
Y66558D01*
X774573D01*
Y58463D01*
X774297D01*
Y58555D01*
X774389D01*
Y58647D01*
X774297D01*
Y58739D01*
X774389D01*
Y58831D01*
X774297D01*
Y58923D01*
X774205D01*
Y59475D01*
X774021D01*
Y59659D01*
X774113D01*
Y59751D01*
X773929D01*
Y59843D01*
X774021D01*
Y60027D01*
X773837D01*
Y60395D01*
X773929D01*
Y60487D01*
X773745D01*
Y60671D01*
X773837D01*
Y60763D01*
X773745D01*
Y60855D01*
X773653D01*
Y61130D01*
X773561D01*
Y61315D01*
X773469D01*
Y61406D01*
X773561D01*
Y61498D01*
X773469D01*
Y61775D01*
X773377D01*
Y62050D01*
X773285D01*
Y62234D01*
X773377D01*
Y62326D01*
X773193D01*
Y62510D01*
X773285D01*
Y62602D01*
X773101D01*
Y62786D01*
X773193D01*
Y62878D01*
X773009D01*
Y63062D01*
X773101D01*
Y63154D01*
X772917D01*
Y63338D01*
X773009D01*
Y63430D01*
X772825D01*
Y63522D01*
X772917D01*
Y63706D01*
X772733D01*
Y63890D01*
X772825D01*
Y63982D01*
X772733D01*
Y64074D01*
X772641D01*
Y64166D01*
X772733D01*
Y64258D01*
X772641D01*
Y64534D01*
X772549D01*
Y64994D01*
X772457D01*
Y65178D01*
X772365D01*
Y65454D01*
X772273D01*
Y65822D01*
X772181D01*
Y66098D01*
X772089D01*
Y66282D01*
X771997D01*
Y66650D01*
X771905D01*
Y66558D01*
X771813D01*
Y66650D01*
X771721D01*
Y66558D01*
X771629D01*
Y66650D01*
X771537D01*
Y66558D01*
X771445D01*
Y66650D01*
X771353D01*
Y66558D01*
X771261D01*
Y66650D01*
X771169D01*
Y66558D01*
X771077D01*
Y66650D01*
X770985D01*
Y66558D01*
X770893D01*
Y66650D01*
X770801D01*
Y66558D01*
X770709D01*
Y66650D01*
X770617D01*
Y66558D01*
X770525D01*
Y66650D01*
X770433D01*
Y66558D01*
X770341D01*
Y66650D01*
X770249D01*
Y66558D01*
X770157D01*
Y66650D01*
X770065D01*
Y66558D01*
X769973D01*
Y66650D01*
X769881D01*
Y66558D01*
X769789D01*
Y66650D01*
X769697D01*
Y66558D01*
X769605D01*
Y66650D01*
X769513D01*
Y66558D01*
X769421D01*
Y66650D01*
X769329D01*
Y66558D01*
X769237D01*
Y66650D01*
X769145D01*
Y66558D01*
X769053D01*
Y66650D01*
X768961D01*
Y66558D01*
X768869D01*
Y66650D01*
X768777D01*
Y66558D01*
X768686D01*
Y66650D01*
X768594D01*
Y66558D01*
X768502D01*
Y66650D01*
X768410D01*
Y66558D01*
X768317D01*
Y66650D01*
X768225D01*
Y66558D01*
X768133D01*
Y66650D01*
X768042D01*
Y66558D01*
X767950D01*
Y66650D01*
X767858D01*
Y66558D01*
X767766D01*
Y66650D01*
X767674D01*
Y66558D01*
X767582D01*
Y66650D01*
X767490D01*
Y66558D01*
X767398D01*
Y66650D01*
X767306D01*
Y66558D01*
X767214D01*
Y66650D01*
X767122D01*
Y66558D01*
X767030D01*
Y66650D01*
X766938D01*
Y66282D01*
D02*
G37*
G36*
X784415Y66466D02*
X784323D01*
Y66282D01*
X784231D01*
Y66190D01*
X784323D01*
Y66006D01*
X784139D01*
Y65914D01*
X784231D01*
Y65454D01*
X784139D01*
Y64994D01*
X784047D01*
Y64258D01*
X783956D01*
Y63798D01*
X784047D01*
Y63706D01*
X783864D01*
Y63338D01*
X783956D01*
Y63246D01*
X783864D01*
Y63062D01*
X783772D01*
Y62878D01*
X783864D01*
Y62694D01*
X783772D01*
Y62510D01*
X783680D01*
Y62418D01*
X783772D01*
Y62510D01*
X783864D01*
Y62418D01*
X783772D01*
Y62142D01*
X783680D01*
Y62050D01*
X783772D01*
Y61958D01*
X783680D01*
Y61498D01*
X783587D01*
Y61315D01*
X783495D01*
Y61130D01*
X783587D01*
Y60855D01*
X783403D01*
Y60763D01*
X783495D01*
Y60671D01*
X783403D01*
Y60579D01*
X783495D01*
Y60395D01*
X783311D01*
Y60303D01*
X783495D01*
Y60211D01*
X783311D01*
Y60119D01*
X783403D01*
Y59659D01*
X783311D01*
Y59107D01*
X783220D01*
Y58923D01*
X783128D01*
Y58831D01*
X783220D01*
Y58647D01*
X783036D01*
Y58555D01*
X783128D01*
Y58463D01*
X783036D01*
Y58371D01*
X783128D01*
Y58095D01*
X783036D01*
Y58003D01*
X783128D01*
Y57819D01*
X783036D01*
Y57359D01*
X782852D01*
Y57267D01*
X782944D01*
Y56807D01*
X782852D01*
Y56255D01*
X782760D01*
Y55611D01*
X782668D01*
Y55519D01*
X782760D01*
Y55335D01*
X782668D01*
Y55059D01*
X782576D01*
Y54691D01*
X782668D01*
Y54599D01*
X782576D01*
Y54415D01*
X782484D01*
Y54232D01*
X782576D01*
Y54139D01*
X782484D01*
Y53864D01*
X782392D01*
Y53772D01*
X782484D01*
Y53587D01*
X782392D01*
Y53404D01*
X782484D01*
Y53312D01*
X782392D01*
Y52760D01*
X782208D01*
Y52576D01*
X782300D01*
Y52300D01*
X782208D01*
Y52208D01*
X782116D01*
Y52116D01*
X782208D01*
Y52024D01*
X782116D01*
Y51932D01*
X782208D01*
Y51748D01*
X782116D01*
Y51656D01*
X782208D01*
Y51564D01*
X782116D01*
Y51288D01*
X782024D01*
Y51196D01*
X782116D01*
Y51012D01*
X782024D01*
Y50460D01*
X781840D01*
Y50368D01*
X781932D01*
Y50000D01*
X781748D01*
Y49908D01*
X781840D01*
Y49816D01*
X781748D01*
Y49724D01*
X781840D01*
Y49172D01*
X781748D01*
Y48712D01*
X781656D01*
Y48160D01*
X781564D01*
Y47792D01*
X781656D01*
Y47700D01*
X781564D01*
Y47516D01*
X781472D01*
Y47240D01*
X781380D01*
Y47148D01*
X781472D01*
Y46780D01*
X781380D01*
Y46505D01*
X781472D01*
Y46413D01*
X781288D01*
Y46136D01*
X781380D01*
Y45953D01*
X781196D01*
Y45861D01*
X781288D01*
Y45769D01*
X781196D01*
Y45585D01*
X781288D01*
Y45401D01*
X781196D01*
Y45309D01*
X781288D01*
Y45217D01*
X781380D01*
Y45309D01*
X781472D01*
Y45217D01*
X781564D01*
Y45309D01*
X781656D01*
Y45217D01*
X781748D01*
Y45309D01*
X781840D01*
Y45217D01*
X781932D01*
Y45309D01*
X782024D01*
Y45217D01*
X782116D01*
Y45309D01*
X782208D01*
Y45217D01*
X782300D01*
Y45309D01*
X782392D01*
Y45217D01*
X782484D01*
Y45309D01*
X782576D01*
Y45217D01*
X782668D01*
Y45309D01*
X782760D01*
Y45217D01*
X782852D01*
Y45309D01*
X782944D01*
Y45217D01*
X783036D01*
Y45309D01*
X783128D01*
Y45217D01*
X783220D01*
Y45309D01*
X783311D01*
Y45217D01*
X783403D01*
Y45309D01*
X783495D01*
Y45217D01*
X783587D01*
Y45309D01*
X783680D01*
Y45217D01*
X783772D01*
Y45309D01*
X783864D01*
Y45217D01*
X783956D01*
Y45309D01*
X784047D01*
Y45217D01*
X784139D01*
Y45309D01*
X784231D01*
Y45217D01*
X784323D01*
Y45309D01*
X784415D01*
Y45217D01*
X784507D01*
Y45309D01*
X784599D01*
Y45217D01*
X784691D01*
Y45309D01*
X784783D01*
Y45217D01*
X784875D01*
Y45309D01*
X784967D01*
Y45217D01*
X785059D01*
Y45309D01*
X785151D01*
Y45217D01*
X785243D01*
Y45309D01*
X785335D01*
Y45217D01*
X785427D01*
Y45309D01*
X785519D01*
Y45217D01*
X785611D01*
Y45309D01*
X785703D01*
Y45217D01*
X785795D01*
Y45309D01*
X785887D01*
Y45217D01*
X785979D01*
Y45309D01*
X786071D01*
Y45217D01*
X786163D01*
Y45309D01*
X786255D01*
Y45217D01*
X786347D01*
Y45309D01*
X786439D01*
Y45217D01*
X786531D01*
Y45309D01*
X786623D01*
Y45217D01*
X786715D01*
Y45309D01*
X786807D01*
Y45769D01*
X786899D01*
Y45861D01*
X786991D01*
Y45953D01*
X786899D01*
Y46045D01*
X786991D01*
Y46136D01*
X786899D01*
Y46228D01*
X786991D01*
Y46321D01*
X786899D01*
Y46780D01*
X786991D01*
Y46872D01*
X786899D01*
Y47240D01*
X786991D01*
Y47424D01*
X787083D01*
Y47516D01*
X786991D01*
Y47792D01*
X787083D01*
Y47884D01*
X787175D01*
Y47976D01*
X786991D01*
Y48344D01*
X787083D01*
Y48436D01*
X787175D01*
Y48528D01*
X787083D01*
Y48804D01*
X787175D01*
Y48896D01*
X787083D01*
Y49172D01*
X787175D01*
Y49080D01*
X787267D01*
Y49172D01*
X787359D01*
Y49080D01*
X787451D01*
Y49172D01*
X787543D01*
Y49080D01*
X787451D01*
Y48988D01*
X787543D01*
Y49080D01*
X787635D01*
Y49172D01*
X787727D01*
Y49080D01*
X787819D01*
Y49172D01*
X787911D01*
Y49080D01*
X787819D01*
Y48988D01*
X787911D01*
Y49080D01*
X788003D01*
Y49172D01*
X788095D01*
Y49080D01*
X788187D01*
Y49172D01*
X788279D01*
Y49080D01*
X788187D01*
Y48988D01*
X788279D01*
Y49080D01*
X788371D01*
Y49172D01*
X788463D01*
Y49080D01*
X788555D01*
Y49172D01*
X788647D01*
Y49080D01*
X788555D01*
Y48988D01*
X788647D01*
Y49080D01*
X788739D01*
Y49172D01*
X788831D01*
Y49080D01*
X788923D01*
Y49172D01*
X789015D01*
Y49080D01*
X788923D01*
Y48988D01*
X789015D01*
Y49080D01*
X789107D01*
Y49172D01*
X789199D01*
Y49080D01*
X789107D01*
Y48988D01*
X789199D01*
Y48896D01*
X789291D01*
Y48620D01*
X789199D01*
Y48528D01*
X789291D01*
Y47976D01*
X789383D01*
Y47608D01*
X789291D01*
Y47516D01*
X789383D01*
Y46596D01*
X789475D01*
Y46228D01*
X789383D01*
Y46136D01*
X789475D01*
Y46045D01*
X789383D01*
Y45953D01*
X789475D01*
Y45861D01*
X789383D01*
Y45769D01*
X789475D01*
Y45677D01*
X789567D01*
Y45217D01*
X789659D01*
Y45309D01*
X789751D01*
Y45217D01*
X789843D01*
Y45309D01*
X789935D01*
Y45217D01*
X790027D01*
Y45309D01*
X790119D01*
Y45217D01*
X790211D01*
Y45309D01*
X790303D01*
Y45217D01*
X790395D01*
Y45309D01*
X790487D01*
Y45217D01*
X790579D01*
Y45309D01*
X790671D01*
Y45217D01*
X790763D01*
Y45309D01*
X790854D01*
Y45217D01*
X790947D01*
Y45309D01*
X791039D01*
Y45217D01*
X791131D01*
Y45309D01*
X791223D01*
Y45217D01*
X791314D01*
Y45309D01*
X791406D01*
Y45217D01*
X791498D01*
Y45309D01*
X791590D01*
Y45217D01*
X791682D01*
Y45309D01*
X791774D01*
Y45217D01*
X791866D01*
Y45309D01*
X791958D01*
Y45217D01*
X792050D01*
Y45309D01*
X792142D01*
Y45217D01*
X792234D01*
Y45309D01*
X792326D01*
Y45217D01*
X792418D01*
Y45309D01*
X792510D01*
Y45217D01*
X792602D01*
Y45309D01*
X792694D01*
Y45217D01*
X792786D01*
Y45309D01*
X792878D01*
Y45217D01*
X792970D01*
Y45309D01*
X793062D01*
Y45217D01*
X793154D01*
Y45309D01*
X793246D01*
Y45217D01*
X793338D01*
Y45309D01*
X793430D01*
Y45217D01*
X793522D01*
Y45309D01*
X793614D01*
Y45217D01*
X793706D01*
Y45309D01*
X793798D01*
Y45217D01*
X793890D01*
Y45309D01*
X793982D01*
Y45217D01*
X794074D01*
Y45309D01*
X794166D01*
Y45217D01*
X794258D01*
Y45309D01*
X794350D01*
Y45217D01*
X794442D01*
Y45309D01*
X794534D01*
Y45217D01*
X794626D01*
Y45309D01*
X794718D01*
Y45217D01*
X794810D01*
Y45309D01*
X794902D01*
Y45217D01*
X794994D01*
Y45309D01*
X795086D01*
Y45217D01*
X795178D01*
Y45401D01*
X795086D01*
Y45585D01*
X795178D01*
Y45677D01*
X794994D01*
Y45769D01*
X795086D01*
Y46136D01*
X794994D01*
Y46321D01*
X794902D01*
Y46413D01*
X794994D01*
Y46780D01*
X794902D01*
Y47240D01*
X794810D01*
Y47884D01*
X794902D01*
Y47976D01*
X794718D01*
Y48068D01*
X794810D01*
Y48252D01*
X794718D01*
Y48804D01*
X794626D01*
Y49356D01*
X794534D01*
Y49540D01*
X794626D01*
Y49632D01*
X794534D01*
Y49908D01*
X794442D01*
Y50092D01*
X794534D01*
Y50184D01*
X794442D01*
Y50460D01*
X794534D01*
Y50552D01*
X794442D01*
Y50644D01*
X794534D01*
Y50736D01*
X794350D01*
Y51104D01*
X794442D01*
Y51196D01*
X794350D01*
Y51380D01*
X794258D01*
Y51564D01*
X794350D01*
Y51656D01*
X794258D01*
Y51932D01*
X794166D01*
Y52116D01*
X794258D01*
Y52208D01*
X794166D01*
Y52392D01*
X794258D01*
Y52484D01*
X794074D01*
Y52576D01*
X794166D01*
Y52760D01*
X794074D01*
Y53036D01*
X794166D01*
Y53128D01*
X794074D01*
Y53220D01*
X794166D01*
Y53312D01*
X793982D01*
Y53587D01*
X794074D01*
Y53864D01*
X793982D01*
Y53955D01*
X793890D01*
Y54047D01*
X793982D01*
Y54323D01*
X793890D01*
Y54691D01*
X793982D01*
Y54783D01*
X793798D01*
Y54967D01*
X793890D01*
Y55151D01*
X793798D01*
Y55427D01*
X793706D01*
Y55519D01*
X793798D01*
Y55703D01*
X793706D01*
Y55795D01*
X793798D01*
Y55887D01*
X793706D01*
Y56439D01*
X793614D01*
Y57083D01*
X793522D01*
Y57267D01*
X793614D01*
Y57359D01*
X793522D01*
Y57635D01*
X793614D01*
Y57727D01*
X793522D01*
Y57911D01*
X793430D01*
Y58463D01*
X793338D01*
Y58739D01*
X793430D01*
Y58831D01*
X793338D01*
Y59015D01*
X793246D01*
Y59567D01*
X793338D01*
Y59659D01*
X793154D01*
Y59751D01*
X793246D01*
Y59935D01*
X793154D01*
Y60211D01*
X793246D01*
Y60303D01*
X793154D01*
Y60487D01*
X793062D01*
Y60671D01*
X793154D01*
Y60763D01*
X793062D01*
Y60855D01*
X793154D01*
Y60947D01*
X793062D01*
Y61038D01*
X792970D01*
Y61315D01*
X793062D01*
Y61406D01*
X792970D01*
Y61498D01*
X793062D01*
Y61590D01*
X792970D01*
Y61683D01*
X792878D01*
Y61775D01*
X792970D01*
Y61958D01*
X792878D01*
Y62142D01*
X792970D01*
Y62418D01*
X792878D01*
Y62510D01*
X792786D01*
Y62786D01*
X792878D01*
Y62878D01*
X792786D01*
Y63062D01*
X792694D01*
Y63246D01*
X792786D01*
Y63614D01*
X792694D01*
Y63706D01*
X792602D01*
Y63982D01*
X792694D01*
Y64166D01*
X792602D01*
Y64534D01*
X792510D01*
Y64626D01*
X792602D01*
Y64810D01*
X792694D01*
Y64902D01*
X792602D01*
Y64994D01*
X792510D01*
Y65178D01*
X792418D01*
Y65270D01*
X792510D01*
Y65454D01*
X792418D01*
Y66098D01*
X792510D01*
Y66190D01*
X792326D01*
Y66558D01*
X792234D01*
Y66650D01*
X792142D01*
Y66558D01*
X792050D01*
Y66650D01*
X791958D01*
Y66558D01*
X791866D01*
Y66650D01*
X791774D01*
Y66558D01*
X791682D01*
Y66650D01*
X791590D01*
Y66558D01*
X791498D01*
Y66650D01*
X791406D01*
Y66558D01*
X791314D01*
Y66650D01*
X791223D01*
Y66558D01*
X791131D01*
Y66650D01*
X791039D01*
Y66558D01*
X790947D01*
Y66650D01*
X790854D01*
Y66558D01*
X790763D01*
Y66650D01*
X790671D01*
Y66558D01*
X790579D01*
Y66650D01*
X790487D01*
Y66558D01*
X790395D01*
Y66650D01*
X790303D01*
Y66558D01*
X790211D01*
Y66650D01*
X790119D01*
Y66558D01*
X790027D01*
Y66650D01*
X789935D01*
Y66558D01*
X789843D01*
Y66650D01*
X789751D01*
Y66558D01*
X789659D01*
Y66650D01*
X789567D01*
Y66558D01*
X789475D01*
Y66650D01*
X789383D01*
Y66558D01*
X789291D01*
Y66650D01*
X789199D01*
Y66558D01*
X789107D01*
Y66650D01*
X789015D01*
Y66558D01*
X788923D01*
Y66650D01*
X788831D01*
Y66558D01*
X788739D01*
Y66650D01*
X788647D01*
Y66558D01*
X788555D01*
Y66650D01*
X788463D01*
Y66558D01*
X788371D01*
Y66650D01*
X788279D01*
Y66558D01*
X788187D01*
Y66650D01*
X788095D01*
Y66558D01*
X788003D01*
Y66650D01*
X787911D01*
Y66558D01*
X787819D01*
Y66650D01*
X787727D01*
Y66558D01*
X787635D01*
Y66650D01*
X787543D01*
Y66558D01*
X787451D01*
Y66650D01*
X787359D01*
Y66558D01*
X787267D01*
Y66650D01*
X787175D01*
Y66558D01*
X787083D01*
Y66650D01*
X786991D01*
Y66558D01*
X786899D01*
Y66650D01*
X786807D01*
Y66558D01*
X786715D01*
Y66650D01*
X786623D01*
Y66558D01*
X786531D01*
Y66650D01*
X786439D01*
Y66558D01*
X786347D01*
Y66650D01*
X786255D01*
Y66558D01*
X786163D01*
Y66650D01*
X786071D01*
Y66558D01*
X785979D01*
Y66650D01*
X785887D01*
Y66558D01*
X785795D01*
Y66650D01*
X785703D01*
Y66558D01*
X785611D01*
Y66650D01*
X785519D01*
Y66558D01*
X785427D01*
Y66650D01*
X785335D01*
Y66558D01*
X785243D01*
Y66650D01*
X785151D01*
Y66558D01*
X785059D01*
Y66650D01*
X784967D01*
Y66558D01*
X784875D01*
Y66650D01*
X784783D01*
Y66558D01*
X784691D01*
Y66650D01*
X784599D01*
Y66558D01*
X784507D01*
Y66650D01*
X784415D01*
Y66466D01*
D02*
G37*
G36*
X796558Y66190D02*
X796650D01*
Y66098D01*
X796558D01*
Y65822D01*
X796650D01*
Y65730D01*
X796558D01*
Y65454D01*
X796466D01*
Y65362D01*
X796558D01*
Y65086D01*
X796650D01*
Y64994D01*
X796558D01*
Y64718D01*
X796650D01*
Y64626D01*
X796558D01*
Y64350D01*
X796650D01*
Y64258D01*
X796558D01*
Y63982D01*
X796466D01*
Y63890D01*
X796558D01*
Y63614D01*
X796650D01*
Y63522D01*
X796558D01*
Y63246D01*
X796650D01*
Y63154D01*
X796558D01*
Y62878D01*
X796650D01*
Y62786D01*
X796558D01*
Y62510D01*
X796466D01*
Y62418D01*
X796558D01*
Y62142D01*
X796650D01*
Y62050D01*
X796558D01*
Y61775D01*
X796650D01*
Y61683D01*
X796558D01*
Y61406D01*
X796650D01*
Y61315D01*
X796558D01*
Y61038D01*
X796466D01*
Y60947D01*
X796558D01*
Y60671D01*
X796650D01*
Y60579D01*
X796558D01*
Y60303D01*
X796650D01*
Y60211D01*
X796558D01*
Y59935D01*
X796650D01*
Y59843D01*
X796558D01*
Y59567D01*
X796466D01*
Y59475D01*
X796558D01*
Y59199D01*
X796650D01*
Y59107D01*
X796558D01*
Y58831D01*
X796650D01*
Y58739D01*
X796558D01*
Y58463D01*
X796650D01*
Y58371D01*
X796558D01*
Y58095D01*
X796466D01*
Y58003D01*
X796558D01*
Y57727D01*
X796650D01*
Y57635D01*
X796558D01*
Y57359D01*
X796650D01*
Y57267D01*
X796558D01*
Y56991D01*
X796650D01*
Y56899D01*
X796558D01*
Y56623D01*
X796466D01*
Y56531D01*
X796558D01*
Y56255D01*
X796650D01*
Y56163D01*
X796558D01*
Y55887D01*
X796650D01*
Y55795D01*
X796558D01*
Y55519D01*
X796650D01*
Y55427D01*
X796558D01*
Y55151D01*
X796466D01*
Y55059D01*
X796558D01*
Y54783D01*
X796650D01*
Y54691D01*
X796558D01*
Y54415D01*
X796650D01*
Y54323D01*
X796558D01*
Y54047D01*
X796650D01*
Y53955D01*
X796558D01*
Y53679D01*
X796466D01*
Y53587D01*
X796558D01*
Y53312D01*
X796650D01*
Y53220D01*
X796558D01*
Y52944D01*
X796650D01*
Y52852D01*
X796558D01*
Y52576D01*
X796650D01*
Y52484D01*
X796558D01*
Y52208D01*
X796466D01*
Y52116D01*
X796558D01*
Y51840D01*
X796650D01*
Y51748D01*
X796558D01*
Y51472D01*
X796650D01*
Y51380D01*
X796558D01*
Y51104D01*
X796650D01*
Y51012D01*
X796558D01*
Y50736D01*
X796466D01*
Y50644D01*
X796558D01*
Y50368D01*
X796650D01*
Y50276D01*
X796558D01*
Y50000D01*
X796650D01*
Y49908D01*
X796558D01*
Y49632D01*
X796650D01*
Y49540D01*
X796558D01*
Y49264D01*
X796466D01*
Y49172D01*
X796558D01*
Y48896D01*
X796650D01*
Y48804D01*
X796558D01*
Y48528D01*
X796650D01*
Y48436D01*
X796558D01*
Y48160D01*
X796650D01*
Y48068D01*
X796558D01*
Y47792D01*
X796466D01*
Y47700D01*
X796558D01*
Y47424D01*
X796650D01*
Y47332D01*
X796558D01*
Y47056D01*
X796650D01*
Y46964D01*
X796558D01*
Y46688D01*
X796650D01*
Y46596D01*
X796558D01*
Y46321D01*
X796466D01*
Y46228D01*
X796558D01*
Y45953D01*
X796650D01*
Y45861D01*
X796558D01*
Y45585D01*
X796650D01*
Y45493D01*
X796558D01*
Y45217D01*
X796650D01*
Y45309D01*
X796742D01*
Y45217D01*
X796834D01*
Y45309D01*
X796926D01*
Y45217D01*
X797018D01*
Y45309D01*
X797110D01*
Y45217D01*
X797202D01*
Y45309D01*
X797294D01*
Y45217D01*
X797386D01*
Y45309D01*
X797478D01*
Y45217D01*
X797570D01*
Y45309D01*
X797662D01*
Y45217D01*
X797754D01*
Y45309D01*
X797846D01*
Y45217D01*
X797938D01*
Y45309D01*
X798030D01*
Y45217D01*
X798122D01*
Y45309D01*
X798214D01*
Y45217D01*
X798306D01*
Y45309D01*
X798398D01*
Y45217D01*
X798490D01*
Y45309D01*
X798581D01*
Y45217D01*
X798673D01*
Y45309D01*
X798765D01*
Y45217D01*
X798857D01*
Y45309D01*
X798950D01*
Y45217D01*
X799042D01*
Y45309D01*
X799134D01*
Y45217D01*
X799225D01*
Y45309D01*
X799317D01*
Y45217D01*
X799409D01*
Y45309D01*
X799501D01*
Y45217D01*
X799593D01*
Y45309D01*
X799685D01*
Y45217D01*
X799777D01*
Y45309D01*
X799869D01*
Y45217D01*
X799961D01*
Y45309D01*
X800053D01*
Y45217D01*
X800145D01*
Y45309D01*
X800237D01*
Y45217D01*
X800329D01*
Y45309D01*
X800421D01*
Y45217D01*
X800513D01*
Y45309D01*
X800605D01*
Y45217D01*
X800697D01*
Y45309D01*
X800789D01*
Y45217D01*
X800881D01*
Y45309D01*
X800973D01*
Y45217D01*
X801065D01*
Y45309D01*
X801157D01*
Y45217D01*
X801249D01*
Y45309D01*
X801341D01*
Y45217D01*
X801433D01*
Y45309D01*
X801525D01*
Y45401D01*
X801433D01*
Y46045D01*
X801525D01*
Y46136D01*
X801433D01*
Y46780D01*
X801525D01*
Y46872D01*
X801433D01*
Y47516D01*
X801525D01*
Y47608D01*
X801433D01*
Y48252D01*
X801525D01*
Y48344D01*
X801433D01*
Y48988D01*
X801525D01*
Y49080D01*
X801433D01*
Y49724D01*
X801525D01*
Y49816D01*
X801433D01*
Y50460D01*
X801525D01*
Y50552D01*
X801433D01*
Y51196D01*
X801525D01*
Y51288D01*
X801433D01*
Y51932D01*
X801525D01*
Y52024D01*
X801433D01*
Y52668D01*
X801525D01*
Y52760D01*
X801433D01*
Y53404D01*
X801525D01*
Y53495D01*
X801433D01*
Y54139D01*
X801525D01*
Y54232D01*
X801433D01*
Y54875D01*
X801525D01*
Y54967D01*
X801433D01*
Y55611D01*
X801525D01*
Y55703D01*
X801433D01*
Y56347D01*
X801525D01*
Y56439D01*
X801433D01*
Y57083D01*
X801525D01*
Y57175D01*
X801433D01*
Y57819D01*
X801525D01*
Y57911D01*
X801433D01*
Y59291D01*
X801341D01*
Y59475D01*
X801525D01*
Y59015D01*
X801617D01*
Y58831D01*
X801525D01*
Y58739D01*
X801617D01*
Y58371D01*
X801709D01*
Y58095D01*
X801617D01*
Y58003D01*
X801709D01*
Y57911D01*
X801617D01*
Y57819D01*
X801801D01*
Y57359D01*
X801893D01*
Y56807D01*
X801985D01*
Y56715D01*
X801893D01*
Y56623D01*
X801985D01*
Y56347D01*
X801893D01*
Y56255D01*
X801985D01*
Y56163D01*
X802077D01*
Y55887D01*
X801985D01*
Y55795D01*
X802077D01*
Y55703D01*
X801985D01*
Y55611D01*
X802169D01*
Y55427D01*
X802077D01*
Y55335D01*
X802169D01*
Y55151D01*
X802261D01*
Y54415D01*
X802353D01*
Y54232D01*
X802261D01*
Y54047D01*
X802353D01*
Y53955D01*
X802445D01*
Y53679D01*
X802353D01*
Y53587D01*
X802445D01*
Y53404D01*
X802537D01*
Y53312D01*
X802445D01*
Y53220D01*
X802537D01*
Y53128D01*
X802445D01*
Y52944D01*
X802629D01*
Y52852D01*
X802537D01*
Y52760D01*
X802629D01*
Y52668D01*
X802537D01*
Y52484D01*
X802629D01*
Y52392D01*
X802537D01*
Y52300D01*
X802629D01*
Y52024D01*
X802537D01*
Y51932D01*
X802629D01*
Y51748D01*
X802721D01*
Y51380D01*
X802813D01*
Y50828D01*
X802905D01*
Y50644D01*
X802813D01*
Y50552D01*
X802905D01*
Y50184D01*
X802997D01*
Y49632D01*
X803089D01*
Y49080D01*
X803181D01*
Y48712D01*
X803089D01*
Y48620D01*
X803181D01*
Y48528D01*
X803089D01*
Y48436D01*
X803273D01*
Y48252D01*
X803181D01*
Y48160D01*
X803273D01*
Y48068D01*
X803365D01*
Y47976D01*
X803273D01*
Y47884D01*
X803365D01*
Y47516D01*
X803457D01*
Y47332D01*
X803365D01*
Y47240D01*
X803457D01*
Y46872D01*
X803549D01*
Y46505D01*
X803457D01*
Y46413D01*
X803549D01*
Y46228D01*
X803641D01*
Y46136D01*
X803549D01*
Y45769D01*
X803733D01*
Y45677D01*
X803641D01*
Y45585D01*
X803733D01*
Y45401D01*
X803641D01*
Y45309D01*
X803733D01*
Y45217D01*
X803825D01*
Y45309D01*
X803917D01*
Y45217D01*
X804009D01*
Y45309D01*
X804101D01*
Y45217D01*
X804193D01*
Y45309D01*
X804285D01*
Y45217D01*
X804377D01*
Y45309D01*
X804469D01*
Y45217D01*
X804561D01*
Y45309D01*
X804653D01*
Y45217D01*
X804745D01*
Y45309D01*
X804837D01*
Y45217D01*
X804929D01*
Y45309D01*
X805021D01*
Y45217D01*
X805113D01*
Y45309D01*
X805205D01*
Y45217D01*
X805297D01*
Y45309D01*
X805389D01*
Y45217D01*
X805481D01*
Y45309D01*
X805573D01*
Y45217D01*
X805665D01*
Y45309D01*
X805757D01*
Y45217D01*
X805849D01*
Y45309D01*
X805941D01*
Y45217D01*
X806033D01*
Y45309D01*
X806124D01*
Y45217D01*
X806217D01*
Y45309D01*
X806309D01*
Y45217D01*
X806401D01*
Y45309D01*
X806492D01*
Y45217D01*
X806584D01*
Y45309D01*
X806676D01*
Y45217D01*
X806768D01*
Y45309D01*
X806860D01*
Y45217D01*
X806952D01*
Y45309D01*
X807044D01*
Y45401D01*
X807136D01*
Y45861D01*
X807228D01*
Y46413D01*
X807412D01*
Y46505D01*
X807320D01*
Y47056D01*
X807412D01*
Y47332D01*
X807320D01*
Y47424D01*
X807412D01*
Y47516D01*
X807504D01*
Y47792D01*
X807412D01*
Y47884D01*
X807504D01*
Y48068D01*
X807596D01*
Y48160D01*
X807504D01*
Y48344D01*
X807596D01*
Y48436D01*
X807688D01*
Y48712D01*
X807596D01*
Y48804D01*
X807688D01*
Y49264D01*
X807780D01*
Y49356D01*
X807688D01*
Y49540D01*
X807872D01*
Y49816D01*
X807780D01*
Y50000D01*
X807872D01*
Y50092D01*
X807964D01*
Y50184D01*
X807872D01*
Y50552D01*
X807964D01*
Y51104D01*
X808056D01*
Y51564D01*
X808148D01*
Y51656D01*
X808240D01*
Y51748D01*
X808148D01*
Y52024D01*
X808240D01*
Y52116D01*
X808332D01*
Y52208D01*
X808240D01*
Y52760D01*
X808332D01*
Y53128D01*
X808424D01*
Y53679D01*
X808516D01*
Y54139D01*
X808608D01*
Y54783D01*
X808700D01*
Y54875D01*
X808608D01*
Y54967D01*
X808700D01*
Y55059D01*
X808608D01*
Y55151D01*
X808700D01*
Y55243D01*
X808792D01*
Y55519D01*
X808700D01*
Y55611D01*
X808792D01*
Y55795D01*
X808884D01*
Y55979D01*
X808792D01*
Y56163D01*
X808884D01*
Y56347D01*
X808976D01*
Y56439D01*
X808884D01*
Y56531D01*
X808976D01*
Y56715D01*
X808884D01*
Y56807D01*
X808976D01*
Y57175D01*
X809068D01*
Y57359D01*
X809160D01*
Y57635D01*
X809068D01*
Y57727D01*
X809160D01*
Y57819D01*
X809252D01*
Y57911D01*
X809160D01*
Y58187D01*
X809252D01*
Y58279D01*
X809160D01*
Y58463D01*
X809252D01*
Y58647D01*
X809344D01*
Y58739D01*
X809252D01*
Y58831D01*
X809344D01*
Y59199D01*
X809528D01*
Y45309D01*
X809620D01*
Y45217D01*
X809712D01*
Y45309D01*
X809804D01*
Y45217D01*
X809896D01*
Y45309D01*
X809988D01*
Y45217D01*
X810080D01*
Y45309D01*
X810172D01*
Y45217D01*
X810264D01*
Y45309D01*
X810356D01*
Y45217D01*
X810448D01*
Y45309D01*
X810540D01*
Y45217D01*
X810632D01*
Y45309D01*
X810724D01*
Y45217D01*
X810816D01*
Y45309D01*
X810908D01*
Y45217D01*
X811000D01*
Y45309D01*
X811092D01*
Y45217D01*
X811184D01*
Y45309D01*
X811276D01*
Y45217D01*
X811368D01*
Y45309D01*
X811460D01*
Y45217D01*
X811552D01*
Y45309D01*
X811644D01*
Y45217D01*
X811736D01*
Y45309D01*
X811828D01*
Y45217D01*
X811920D01*
Y45309D01*
X812012D01*
Y45217D01*
X812104D01*
Y45309D01*
X812196D01*
Y45217D01*
X812288D01*
Y45309D01*
X812380D01*
Y45217D01*
X812472D01*
Y45309D01*
X812564D01*
Y45217D01*
X812656D01*
Y45309D01*
X812748D01*
Y45217D01*
X812840D01*
Y45309D01*
X812932D01*
Y45217D01*
X813024D01*
Y45309D01*
X813116D01*
Y45217D01*
X813208D01*
Y45309D01*
X813300D01*
Y45217D01*
X813392D01*
Y45309D01*
X813484D01*
Y45217D01*
X813576D01*
Y45309D01*
X813668D01*
Y45217D01*
X813760D01*
Y45309D01*
X813851D01*
Y45217D01*
X813943D01*
Y45309D01*
X814035D01*
Y45217D01*
X814128D01*
Y45309D01*
X814220D01*
Y66558D01*
X814128D01*
Y66650D01*
X814035D01*
Y66558D01*
X813943D01*
Y66650D01*
X813851D01*
Y66558D01*
X813760D01*
Y66650D01*
X813668D01*
Y66558D01*
X813576D01*
Y66650D01*
X813484D01*
Y66558D01*
X813392D01*
Y66650D01*
X813300D01*
Y66558D01*
X813208D01*
Y66650D01*
X813116D01*
Y66558D01*
X813024D01*
Y66650D01*
X812932D01*
Y66558D01*
X812840D01*
Y66650D01*
X812748D01*
Y66558D01*
X812656D01*
Y66650D01*
X812564D01*
Y66558D01*
X812472D01*
Y66650D01*
X812380D01*
Y66558D01*
X812288D01*
Y66650D01*
X812196D01*
Y66558D01*
X812104D01*
Y66650D01*
X812012D01*
Y66558D01*
X811920D01*
Y66650D01*
X811828D01*
Y66558D01*
X811736D01*
Y66650D01*
X811644D01*
Y66558D01*
X811552D01*
Y66650D01*
X811460D01*
Y66558D01*
X811368D01*
Y66650D01*
X811276D01*
Y66558D01*
X811184D01*
Y66650D01*
X811092D01*
Y66558D01*
X811000D01*
Y66650D01*
X810908D01*
Y66558D01*
X810816D01*
Y66650D01*
X810724D01*
Y66558D01*
X810632D01*
Y66650D01*
X810540D01*
Y66558D01*
X810448D01*
Y66650D01*
X810356D01*
Y66558D01*
X810264D01*
Y66650D01*
X810172D01*
Y66558D01*
X810080D01*
Y66650D01*
X809988D01*
Y66558D01*
X809896D01*
Y66650D01*
X809804D01*
Y66558D01*
X809712D01*
Y66650D01*
X809620D01*
Y66558D01*
X809528D01*
Y66650D01*
X809436D01*
Y66558D01*
X809344D01*
Y66650D01*
X809252D01*
Y66558D01*
X809160D01*
Y66650D01*
X809068D01*
Y66558D01*
X808976D01*
Y66650D01*
X808884D01*
Y66558D01*
X808792D01*
Y66650D01*
X808700D01*
Y66558D01*
X808608D01*
Y66650D01*
X808516D01*
Y66558D01*
X808424D01*
Y66650D01*
X808332D01*
Y66558D01*
X808240D01*
Y66650D01*
X808148D01*
Y66558D01*
X808056D01*
Y66650D01*
X807964D01*
Y66558D01*
X807872D01*
Y66650D01*
X807780D01*
Y66558D01*
X807688D01*
Y66650D01*
X807596D01*
Y66558D01*
X807504D01*
Y66650D01*
X807412D01*
Y66558D01*
X807320D01*
Y66650D01*
X807228D01*
Y66558D01*
X807136D01*
Y66650D01*
X807044D01*
Y66558D01*
X806860D01*
Y66006D01*
X806768D01*
Y65454D01*
X806676D01*
Y65270D01*
X806584D01*
Y65178D01*
X806676D01*
Y64810D01*
X806584D01*
Y64166D01*
X806492D01*
Y63614D01*
X806401D01*
Y63246D01*
X806492D01*
Y63154D01*
X806309D01*
Y63062D01*
X806217D01*
Y62970D01*
X806309D01*
Y62786D01*
X806401D01*
Y62694D01*
X806309D01*
Y62326D01*
X806217D01*
Y62142D01*
X806309D01*
Y61866D01*
X806217D01*
Y61775D01*
X806124D01*
Y61498D01*
X806217D01*
Y61315D01*
X806124D01*
Y61223D01*
X806033D01*
Y61130D01*
X806124D01*
Y60763D01*
X805941D01*
Y60671D01*
X806124D01*
Y60579D01*
X805941D01*
Y60395D01*
X806033D01*
Y60303D01*
X805941D01*
Y60211D01*
X806033D01*
Y60027D01*
X805941D01*
Y59475D01*
X805849D01*
Y59383D01*
X805757D01*
Y59199D01*
X805849D01*
Y59015D01*
X805757D01*
Y58831D01*
X805665D01*
Y58739D01*
X805757D01*
Y58463D01*
X805665D01*
Y58279D01*
X805757D01*
Y58187D01*
X805573D01*
Y58095D01*
X805665D01*
Y57911D01*
X805573D01*
Y57819D01*
X805665D01*
Y57635D01*
X805573D01*
Y57083D01*
X805481D01*
Y56807D01*
X805389D01*
Y56715D01*
X805297D01*
Y56899D01*
X805389D01*
Y56991D01*
X805297D01*
Y57083D01*
X805389D01*
Y57175D01*
X805205D01*
Y57359D01*
X805297D01*
Y57451D01*
X805205D01*
Y57543D01*
X805297D01*
Y57727D01*
X805205D01*
Y57635D01*
X805113D01*
Y57727D01*
X805205D01*
Y57911D01*
X805113D01*
Y58095D01*
X805205D01*
Y58187D01*
X805113D01*
Y58371D01*
X805205D01*
Y58463D01*
X805021D01*
Y58647D01*
X805113D01*
Y58923D01*
X804929D01*
Y59015D01*
X805021D01*
Y59107D01*
X804929D01*
Y59199D01*
X805021D01*
Y59291D01*
X804929D01*
Y60027D01*
X804837D01*
Y60579D01*
X804745D01*
Y61130D01*
X804837D01*
Y61223D01*
X804745D01*
Y61406D01*
X804653D01*
Y62142D01*
X804561D01*
Y62786D01*
X804469D01*
Y62970D01*
X804561D01*
Y63062D01*
X804469D01*
Y63430D01*
X804561D01*
Y63522D01*
X804469D01*
Y63798D01*
X804377D01*
Y64074D01*
X804469D01*
Y64166D01*
X804377D01*
Y64442D01*
X804285D01*
Y64718D01*
X804377D01*
Y64810D01*
X804285D01*
Y65086D01*
X804193D01*
Y65822D01*
X804101D01*
Y65914D01*
X804193D01*
Y66098D01*
X804101D01*
Y66282D01*
X804193D01*
Y66650D01*
X804101D01*
Y66558D01*
X804009D01*
Y66650D01*
X803917D01*
Y66558D01*
X803825D01*
Y66650D01*
X803733D01*
Y66558D01*
X803641D01*
Y66650D01*
X803549D01*
Y66558D01*
X803457D01*
Y66650D01*
X803365D01*
Y66558D01*
X803273D01*
Y66650D01*
X803181D01*
Y66558D01*
X803089D01*
Y66650D01*
X802997D01*
Y66558D01*
X802905D01*
Y66650D01*
X802813D01*
Y66558D01*
X802721D01*
Y66650D01*
X802629D01*
Y66558D01*
X802537D01*
Y66650D01*
X802445D01*
Y66558D01*
X802353D01*
Y66650D01*
X802261D01*
Y66558D01*
X802169D01*
Y66650D01*
X802077D01*
Y66558D01*
X801985D01*
Y66650D01*
X801893D01*
Y66558D01*
X801801D01*
Y66650D01*
X801709D01*
Y66558D01*
X801617D01*
Y66650D01*
X801525D01*
Y66558D01*
X801433D01*
Y66650D01*
X801341D01*
Y66558D01*
X801249D01*
Y66650D01*
X801157D01*
Y66558D01*
X801065D01*
Y66650D01*
X800973D01*
Y66558D01*
X800881D01*
Y66650D01*
X800789D01*
Y66558D01*
X800697D01*
Y66650D01*
X800605D01*
Y66558D01*
X800513D01*
Y66650D01*
X800421D01*
Y66558D01*
X800329D01*
Y66650D01*
X800237D01*
Y66558D01*
X800145D01*
Y66650D01*
X800053D01*
Y66558D01*
X799961D01*
Y66650D01*
X799869D01*
Y66558D01*
X799777D01*
Y66650D01*
X799685D01*
Y66558D01*
X799593D01*
Y66650D01*
X799501D01*
Y66558D01*
X799409D01*
Y66650D01*
X799317D01*
Y66558D01*
X799225D01*
Y66650D01*
X799134D01*
Y66558D01*
X799042D01*
Y66650D01*
X798950D01*
Y66558D01*
X798857D01*
Y66650D01*
X798765D01*
Y66558D01*
X798673D01*
Y66650D01*
X798581D01*
Y66558D01*
X798490D01*
Y66650D01*
X798398D01*
Y66558D01*
X798306D01*
Y66650D01*
X798214D01*
Y66558D01*
X798122D01*
Y66650D01*
X798030D01*
Y66558D01*
X797938D01*
Y66650D01*
X797846D01*
Y66558D01*
X797754D01*
Y66650D01*
X797662D01*
Y66558D01*
X797570D01*
Y66650D01*
X797478D01*
Y66558D01*
X797386D01*
Y66650D01*
X797294D01*
Y66558D01*
X797202D01*
Y66650D01*
X797110D01*
Y66558D01*
X797018D01*
Y66650D01*
X796926D01*
Y66558D01*
X796834D01*
Y66650D01*
X796742D01*
Y66558D01*
X796650D01*
Y66650D01*
X796558D01*
Y66190D01*
D02*
G37*
%LPC*%
G36*
X696751Y48712D02*
X696843D01*
Y48620D01*
X696751D01*
Y48712D01*
D02*
G37*
G36*
X709445Y53587D02*
X709721D01*
Y53495D01*
Y53404D01*
X709997D01*
Y53312D01*
Y53220D01*
X710089D01*
Y53128D01*
Y53036D01*
X710273D01*
Y52944D01*
Y52852D01*
X710457D01*
Y52760D01*
X710549D01*
Y52668D01*
X710641D01*
Y52576D01*
Y52484D01*
X710733D01*
Y52392D01*
X710825D01*
Y52300D01*
Y52208D01*
X710917D01*
Y52116D01*
Y52024D01*
Y51932D01*
X711009D01*
Y51840D01*
Y51748D01*
Y51656D01*
Y51564D01*
X711101D01*
Y51472D01*
Y51380D01*
X711009D01*
Y51288D01*
X711101D01*
Y51196D01*
Y51104D01*
Y51012D01*
X711009D01*
Y50920D01*
X711193D01*
Y50828D01*
Y50736D01*
Y50644D01*
Y50552D01*
Y50460D01*
Y50368D01*
X711101D01*
Y50276D01*
X711193D01*
Y50184D01*
X711101D01*
Y50092D01*
X711193D01*
Y50000D01*
X711101D01*
Y49908D01*
X711193D01*
Y49816D01*
X711101D01*
Y49724D01*
X711193D01*
Y49632D01*
X711101D01*
Y49540D01*
X711193D01*
Y49448D01*
X711101D01*
Y49356D01*
X711193D01*
Y49264D01*
X711101D01*
Y49172D01*
X711193D01*
Y49080D01*
Y48988D01*
Y48896D01*
X711101D01*
Y48804D01*
Y48712D01*
Y48620D01*
Y48528D01*
X711009D01*
Y48436D01*
Y48344D01*
X710917D01*
Y48252D01*
X710825D01*
Y48160D01*
X710733D01*
Y48068D01*
X710549D01*
Y47976D01*
X709997D01*
Y48068D01*
Y48160D01*
X709905D01*
Y48068D01*
X709813D01*
Y48160D01*
Y48252D01*
X709629D01*
Y48344D01*
Y48436D01*
X709721D01*
Y48528D01*
X709537D01*
Y48620D01*
Y48712D01*
X709629D01*
Y48804D01*
Y48896D01*
X709537D01*
Y48804D01*
X709445D01*
Y48896D01*
Y48988D01*
Y49080D01*
Y49172D01*
Y49264D01*
Y49356D01*
Y49448D01*
Y49540D01*
Y49632D01*
Y49724D01*
Y49816D01*
Y49908D01*
Y50000D01*
Y50092D01*
Y50184D01*
Y50276D01*
Y50368D01*
Y50460D01*
Y50552D01*
Y50644D01*
Y50736D01*
Y50828D01*
Y50920D01*
Y51012D01*
Y51104D01*
Y51196D01*
Y51288D01*
Y51380D01*
Y51472D01*
Y51564D01*
Y51656D01*
Y51748D01*
Y51840D01*
Y51932D01*
Y52024D01*
Y52116D01*
Y52208D01*
Y52300D01*
Y52392D01*
Y52484D01*
Y52576D01*
Y52668D01*
Y52760D01*
Y52852D01*
Y52944D01*
Y53036D01*
Y53128D01*
Y53220D01*
Y53312D01*
Y53404D01*
Y53495D01*
Y53587D01*
D02*
G37*
G36*
X731614Y60027D02*
X731798D01*
Y59935D01*
X731982D01*
Y59843D01*
X732074D01*
Y59935D01*
X732166D01*
Y59843D01*
X732258D01*
Y59751D01*
X732350D01*
Y59659D01*
Y59567D01*
Y59475D01*
Y59383D01*
X732442D01*
Y59291D01*
Y59199D01*
X732350D01*
Y59107D01*
Y59015D01*
X732442D01*
Y58923D01*
Y58831D01*
X732350D01*
Y58739D01*
X732442D01*
Y58647D01*
Y58555D01*
Y58463D01*
X732350D01*
Y58371D01*
X732442D01*
Y58279D01*
Y58187D01*
Y58095D01*
X732350D01*
Y58003D01*
X732442D01*
Y57911D01*
Y57819D01*
Y57727D01*
X732350D01*
Y57635D01*
X732442D01*
Y57543D01*
Y57451D01*
Y57359D01*
X732350D01*
Y57267D01*
X732442D01*
Y57175D01*
Y57083D01*
Y56991D01*
X732350D01*
Y56899D01*
X732442D01*
Y56807D01*
Y56715D01*
Y56623D01*
X732350D01*
Y56531D01*
Y56439D01*
X732258D01*
Y56531D01*
X732166D01*
Y56623D01*
X732074D01*
Y56531D01*
X731982D01*
Y56439D01*
X731890D01*
Y56531D01*
X731982D01*
Y56623D01*
X731890D01*
Y56531D01*
X731798D01*
Y56623D01*
X731706D01*
Y56531D01*
X731614D01*
Y56439D01*
X731522D01*
Y56531D01*
X731430D01*
Y56623D01*
X731338D01*
Y56531D01*
X731246D01*
Y56439D01*
X731154D01*
Y56531D01*
X731246D01*
Y56623D01*
X731154D01*
Y56531D01*
X731062D01*
Y56623D01*
X730970D01*
Y56715D01*
X731062D01*
Y56807D01*
X730970D01*
Y56899D01*
X731062D01*
Y56991D01*
X730970D01*
Y57083D01*
X731062D01*
Y57175D01*
X730970D01*
Y57267D01*
X731062D01*
Y57359D01*
X730970D01*
Y57451D01*
X731062D01*
Y57543D01*
X730970D01*
Y57635D01*
X731062D01*
Y57727D01*
X730970D01*
Y57819D01*
X731062D01*
Y57911D01*
X730970D01*
Y58003D01*
X731062D01*
Y58095D01*
X730970D01*
Y58187D01*
X731062D01*
Y58279D01*
X730970D01*
Y58371D01*
X731062D01*
Y58463D01*
X730970D01*
Y58555D01*
X731062D01*
Y58647D01*
X730970D01*
Y58739D01*
Y58831D01*
Y58923D01*
Y59015D01*
X731062D01*
Y59107D01*
Y59199D01*
X731154D01*
Y59291D01*
X730970D01*
Y59383D01*
X731062D01*
Y59475D01*
Y59567D01*
Y59659D01*
Y59751D01*
X731154D01*
Y59843D01*
X731338D01*
Y59935D01*
X731614D01*
Y60027D01*
D02*
G37*
G36*
X792786Y62326D02*
X792878D01*
Y62234D01*
X792786D01*
Y62326D01*
D02*
G37*
G36*
X788003Y61775D02*
X788187D01*
Y61683D01*
Y61590D01*
Y61498D01*
Y61406D01*
Y61315D01*
X788279D01*
Y61223D01*
Y61130D01*
Y61038D01*
Y60947D01*
Y60855D01*
Y60763D01*
Y60671D01*
X788187D01*
Y60579D01*
X788371D01*
Y60487D01*
Y60395D01*
Y60303D01*
X788279D01*
Y60211D01*
X788371D01*
Y60119D01*
Y60027D01*
X788279D01*
Y59935D01*
X788463D01*
Y59843D01*
Y59751D01*
X788371D01*
Y59659D01*
X788463D01*
Y59567D01*
Y59475D01*
Y59383D01*
X788371D01*
Y59291D01*
X788463D01*
Y59199D01*
Y59107D01*
Y59015D01*
X788555D01*
Y58923D01*
Y58831D01*
Y58739D01*
X788463D01*
Y58647D01*
Y58555D01*
Y58463D01*
X788555D01*
Y58371D01*
X788647D01*
Y58279D01*
Y58187D01*
X788555D01*
Y58095D01*
X788647D01*
Y58003D01*
Y57911D01*
X788555D01*
Y57819D01*
X788647D01*
Y57727D01*
X788739D01*
Y57635D01*
Y57543D01*
X788555D01*
Y57451D01*
X788647D01*
Y57359D01*
X788739D01*
Y57267D01*
X788647D01*
Y57175D01*
X788831D01*
Y57083D01*
X788739D01*
Y56991D01*
Y56899D01*
X788647D01*
Y56807D01*
X788831D01*
Y56715D01*
Y56623D01*
Y56531D01*
X788739D01*
Y56439D01*
Y56347D01*
X788831D01*
Y56255D01*
Y56163D01*
X788923D01*
Y56071D01*
Y55979D01*
X788831D01*
Y55887D01*
Y55795D01*
Y55703D01*
Y55611D01*
X788923D01*
Y55519D01*
X789015D01*
Y55427D01*
X788923D01*
Y55335D01*
Y55243D01*
Y55151D01*
X789015D01*
Y55059D01*
Y54967D01*
Y54875D01*
Y54783D01*
Y54691D01*
Y54599D01*
Y54507D01*
Y54415D01*
Y54323D01*
X789107D01*
Y54232D01*
Y54139D01*
X789015D01*
Y54047D01*
X789107D01*
Y53955D01*
Y53864D01*
Y53772D01*
Y53679D01*
Y53587D01*
Y53495D01*
Y53404D01*
X789199D01*
Y53312D01*
Y53220D01*
Y53128D01*
X789107D01*
Y53036D01*
X789199D01*
Y52944D01*
Y52852D01*
X789107D01*
Y52944D01*
X787267D01*
Y53036D01*
Y53128D01*
Y53220D01*
Y53312D01*
Y53404D01*
Y53495D01*
Y53587D01*
X787359D01*
Y53679D01*
X787267D01*
Y53772D01*
Y53864D01*
X787359D01*
Y53955D01*
Y54047D01*
Y54139D01*
Y54232D01*
Y54323D01*
Y54415D01*
Y54507D01*
Y54599D01*
X787451D01*
Y54691D01*
Y54783D01*
Y54875D01*
X787543D01*
Y54967D01*
X787451D01*
Y55059D01*
Y55151D01*
Y55243D01*
Y55335D01*
Y55427D01*
X787543D01*
Y55519D01*
Y55611D01*
Y55703D01*
X787451D01*
Y55795D01*
Y55887D01*
X787543D01*
Y55979D01*
Y56071D01*
Y56163D01*
X787451D01*
Y56255D01*
X787635D01*
Y56347D01*
Y56439D01*
X787543D01*
Y56531D01*
X787635D01*
Y56623D01*
Y56715D01*
Y56807D01*
X787543D01*
Y56899D01*
X787635D01*
Y56991D01*
Y57083D01*
Y57175D01*
X787727D01*
Y57267D01*
Y57359D01*
Y57451D01*
X787635D01*
Y57543D01*
Y57635D01*
X787727D01*
Y57727D01*
X787819D01*
Y57819D01*
Y57911D01*
Y58003D01*
Y58095D01*
Y58187D01*
X787727D01*
Y58279D01*
Y58371D01*
Y58463D01*
X787819D01*
Y58555D01*
X787911D01*
Y58647D01*
X787819D01*
Y58739D01*
Y58831D01*
Y58923D01*
X787911D01*
Y59015D01*
X787819D01*
Y59107D01*
Y59199D01*
Y59291D01*
Y59383D01*
Y59475D01*
X787911D01*
Y59567D01*
Y59659D01*
X787819D01*
Y59751D01*
X787911D01*
Y59843D01*
X787819D01*
Y59935D01*
X787911D01*
Y60027D01*
X788003D01*
Y60119D01*
Y60211D01*
X787911D01*
Y60303D01*
Y60395D01*
Y60487D01*
X788003D01*
Y60579D01*
X788095D01*
Y60671D01*
X787911D01*
Y60763D01*
Y60855D01*
Y60947D01*
X788003D01*
Y61038D01*
Y61130D01*
X788095D01*
Y61223D01*
X788003D01*
Y61315D01*
Y61406D01*
Y61498D01*
X788095D01*
Y61590D01*
X788003D01*
Y61683D01*
Y61775D01*
D02*
G37*
%LPD*%
M02*
