G04*
G04 #@! TF.GenerationSoftware,Altium Limited,Altium Designer,18.1.9 (240)*
G04*
G04 Layer_Color=8388736*
%FSLAX44Y44*%
%MOMM*%
G71*
G01*
G75*
%ADD24R,1.2000X1.6000*%
%ADD25R,0.7000X1.4000*%
%ADD26R,1.5000X0.9000*%
%ADD27R,0.9000X1.5000*%
%ADD28R,7.2000X8.2000*%
%ADD29R,3.7000X1.8000*%
%ADD30R,1.1000X1.5000*%
%ADD31R,1.5000X1.1000*%
%ADD32R,1.1500X2.8000*%
%ADD33R,5.7000X7.3000*%
%ADD34C,1.9000*%
%ADD35C,1.8000*%
%ADD36R,3.4000X1.5000*%
%ADD37R,1.5000X3.4000*%
%ADD38R,1.5000X3.9000*%
%ADD39R,2.2000X1.8000*%
%ADD40O,2.2000X1.8000*%
%ADD41C,3.8000*%
%ADD42C,1.7000*%
%ADD43C,3.4000*%
D24*
X960780Y601140D02*
D03*
X979780D02*
D03*
X970280Y623140D02*
D03*
X880516Y602664D02*
D03*
X899516D02*
D03*
X890016Y624664D02*
D03*
D25*
X919124Y111506D02*
D03*
X938124D02*
D03*
X798830Y313182D02*
D03*
X779830D02*
D03*
D26*
X922020Y670820D02*
D03*
Y655320D02*
D03*
X897890Y670820D02*
D03*
Y655320D02*
D03*
X917702Y616334D02*
D03*
Y600834D02*
D03*
X940054Y616080D02*
D03*
Y600580D02*
D03*
D27*
X853180Y666750D02*
D03*
X868680D02*
D03*
X832364Y313182D02*
D03*
X816864D02*
D03*
X885692Y111506D02*
D03*
X901192D02*
D03*
D28*
X969518Y472694D02*
D03*
D29*
X866518Y447694D02*
D03*
Y497694D02*
D03*
D30*
X292710Y742950D02*
D03*
X273710D02*
D03*
X330810D02*
D03*
X311810D02*
D03*
X923036Y408178D02*
D03*
X904036D02*
D03*
X944778D02*
D03*
X963778D02*
D03*
D31*
X604520Y589280D02*
D03*
Y608280D02*
D03*
X865632Y216052D02*
D03*
Y235052D02*
D03*
X770382Y215290D02*
D03*
Y234290D02*
D03*
X604520Y547420D02*
D03*
Y566420D02*
D03*
D32*
X841442Y274876D02*
D03*
X795842D02*
D03*
D33*
X818642Y214376D02*
D03*
D34*
X205740Y55570D02*
D03*
X231140D02*
D03*
X256540D02*
D03*
X281940D02*
D03*
X307340D02*
D03*
X383540D02*
D03*
X408940D02*
D03*
X434340D02*
D03*
X459740D02*
D03*
X485140D02*
D03*
Y461970D02*
D03*
X459740D02*
D03*
X434340D02*
D03*
X408940D02*
D03*
X383540D02*
D03*
X307340D02*
D03*
X281940D02*
D03*
X256540D02*
D03*
X231140D02*
D03*
X205740D02*
D03*
Y436570D02*
D03*
X231140D02*
D03*
X256540D02*
D03*
X281940D02*
D03*
X307340D02*
D03*
X205740Y411170D02*
D03*
X231140D02*
D03*
X256540D02*
D03*
X281940D02*
D03*
X307340D02*
D03*
X205740Y385770D02*
D03*
X231140D02*
D03*
X256540D02*
D03*
X281940D02*
D03*
X307340D02*
D03*
X205740Y360370D02*
D03*
X231140D02*
D03*
X256540D02*
D03*
X281940D02*
D03*
X307340D02*
D03*
X205740Y334970D02*
D03*
X231140D02*
D03*
X256540D02*
D03*
X281940D02*
D03*
X307340D02*
D03*
X205740Y309570D02*
D03*
X231140D02*
D03*
X256540D02*
D03*
X281940D02*
D03*
X307340D02*
D03*
X205740Y284170D02*
D03*
X231140D02*
D03*
X256540D02*
D03*
X281940D02*
D03*
X307340D02*
D03*
X205740Y258770D02*
D03*
X231140D02*
D03*
X256540D02*
D03*
X281940D02*
D03*
X307340D02*
D03*
X205740Y233370D02*
D03*
X231140D02*
D03*
X256540D02*
D03*
X281940D02*
D03*
X307340D02*
D03*
X205740Y207970D02*
D03*
X231140D02*
D03*
X256540D02*
D03*
X281940D02*
D03*
X307340D02*
D03*
X205740Y182570D02*
D03*
X231140D02*
D03*
X256540D02*
D03*
X281940D02*
D03*
X307340D02*
D03*
X205740Y157170D02*
D03*
X231140D02*
D03*
X256540D02*
D03*
X281940D02*
D03*
X307340D02*
D03*
X205740Y131770D02*
D03*
X231140D02*
D03*
X256540D02*
D03*
X281940D02*
D03*
X307340D02*
D03*
X205740Y106370D02*
D03*
X231140D02*
D03*
X256540D02*
D03*
X281940D02*
D03*
X307340D02*
D03*
X205740Y80970D02*
D03*
X231140D02*
D03*
X256540D02*
D03*
X281940D02*
D03*
X307340D02*
D03*
X383540Y436570D02*
D03*
X408940D02*
D03*
X434340D02*
D03*
X459740D02*
D03*
X485140D02*
D03*
X383540Y411170D02*
D03*
X408940D02*
D03*
X434340D02*
D03*
X459740D02*
D03*
X485140D02*
D03*
X383540Y385770D02*
D03*
X408940D02*
D03*
X434340D02*
D03*
X459740D02*
D03*
X485140D02*
D03*
X383540Y360370D02*
D03*
X408940D02*
D03*
X434340D02*
D03*
X459740D02*
D03*
X485140D02*
D03*
X383540Y334970D02*
D03*
X408940D02*
D03*
X434340D02*
D03*
X459740D02*
D03*
X485140D02*
D03*
X383540Y309570D02*
D03*
X408940D02*
D03*
X434340D02*
D03*
X459740D02*
D03*
X485140D02*
D03*
X383540Y284170D02*
D03*
X408940D02*
D03*
X434340D02*
D03*
X459740D02*
D03*
X485140D02*
D03*
X383540Y258770D02*
D03*
X408940D02*
D03*
X434340D02*
D03*
X459740D02*
D03*
X485140D02*
D03*
X383540Y233370D02*
D03*
X408940D02*
D03*
X434340D02*
D03*
X459740D02*
D03*
X485140D02*
D03*
X383540Y207970D02*
D03*
X408940D02*
D03*
X434340D02*
D03*
X459740D02*
D03*
X485140D02*
D03*
X383540Y182570D02*
D03*
X408940D02*
D03*
X434340D02*
D03*
X459740D02*
D03*
X485140D02*
D03*
X383540Y157170D02*
D03*
X408940D02*
D03*
X434340D02*
D03*
X459740D02*
D03*
X485140D02*
D03*
X383540Y131770D02*
D03*
X408940D02*
D03*
X434340D02*
D03*
X459740D02*
D03*
X485140D02*
D03*
X383540Y106370D02*
D03*
X408940D02*
D03*
X434340D02*
D03*
X459740D02*
D03*
X485140D02*
D03*
X383540Y80970D02*
D03*
X408940D02*
D03*
X434340D02*
D03*
X459740D02*
D03*
X485140D02*
D03*
D35*
X154940Y436570D02*
D03*
Y411170D02*
D03*
Y385770D02*
D03*
Y360370D02*
D03*
Y334970D02*
D03*
Y309570D02*
D03*
Y284170D02*
D03*
Y258770D02*
D03*
Y233370D02*
D03*
Y207970D02*
D03*
Y182570D02*
D03*
Y157170D02*
D03*
Y131770D02*
D03*
Y106370D02*
D03*
Y80970D02*
D03*
X535940D02*
D03*
Y106370D02*
D03*
Y131770D02*
D03*
Y157170D02*
D03*
Y182570D02*
D03*
Y207970D02*
D03*
Y233370D02*
D03*
Y258770D02*
D03*
Y284170D02*
D03*
Y309570D02*
D03*
Y334970D02*
D03*
Y360370D02*
D03*
Y385770D02*
D03*
Y411170D02*
D03*
Y436570D02*
D03*
X882650Y542290D02*
D03*
X908050D02*
D03*
X933450D02*
D03*
X958850D02*
D03*
Y567690D02*
D03*
X933450D02*
D03*
X908050D02*
D03*
X882650D02*
D03*
D36*
X935200Y377200D02*
D03*
D37*
X965200Y330200D02*
D03*
D38*
X905200D02*
D03*
D39*
X41910Y302768D02*
D03*
X825500Y363220D02*
D03*
D40*
X41910Y328168D02*
D03*
Y353568D02*
D03*
Y378968D02*
D03*
Y404368D02*
D03*
Y429768D02*
D03*
Y455168D02*
D03*
Y480568D02*
D03*
Y505968D02*
D03*
Y531368D02*
D03*
X16510Y302768D02*
D03*
Y328168D02*
D03*
Y353568D02*
D03*
Y378968D02*
D03*
Y404368D02*
D03*
Y429768D02*
D03*
Y455168D02*
D03*
Y480568D02*
D03*
Y505968D02*
D03*
Y531368D02*
D03*
X825500Y744220D02*
D03*
X673100D02*
D03*
Y718820D02*
D03*
Y693420D02*
D03*
Y668020D02*
D03*
Y642620D02*
D03*
Y617220D02*
D03*
Y591820D02*
D03*
Y566420D02*
D03*
Y541020D02*
D03*
Y515620D02*
D03*
Y490220D02*
D03*
Y464820D02*
D03*
Y439420D02*
D03*
Y414020D02*
D03*
Y388620D02*
D03*
Y363220D02*
D03*
X825500Y718820D02*
D03*
Y693420D02*
D03*
Y668020D02*
D03*
Y642620D02*
D03*
Y617220D02*
D03*
Y591820D02*
D03*
Y566420D02*
D03*
Y541020D02*
D03*
Y515620D02*
D03*
Y490220D02*
D03*
Y464820D02*
D03*
Y439420D02*
D03*
Y414020D02*
D03*
Y388620D02*
D03*
D41*
X896824Y243556D02*
D03*
Y149556D02*
D03*
X992124Y262556D02*
D03*
Y130556D02*
D03*
X896824Y196556D02*
D03*
D42*
X318770Y548616D02*
D03*
Y574016D02*
D03*
Y599416D02*
D03*
Y624816D02*
D03*
Y650216D02*
D03*
Y675616D02*
D03*
X293370Y523216D02*
D03*
Y548616D02*
D03*
Y574016D02*
D03*
Y599416D02*
D03*
Y624816D02*
D03*
Y650216D02*
D03*
Y675616D02*
D03*
Y701016D02*
D03*
X267970Y523216D02*
D03*
Y548616D02*
D03*
Y675616D02*
D03*
Y701016D02*
D03*
X242570Y523216D02*
D03*
Y548616D02*
D03*
Y675616D02*
D03*
Y701016D02*
D03*
X217170Y523216D02*
D03*
Y548616D02*
D03*
Y675616D02*
D03*
Y701016D02*
D03*
X191770Y523216D02*
D03*
Y548616D02*
D03*
Y675616D02*
D03*
Y701016D02*
D03*
X166370Y523216D02*
D03*
Y548616D02*
D03*
Y574016D02*
D03*
Y599416D02*
D03*
Y624816D02*
D03*
Y650216D02*
D03*
Y675616D02*
D03*
Y701016D02*
D03*
X140970Y548616D02*
D03*
Y574016D02*
D03*
Y599416D02*
D03*
Y624816D02*
D03*
Y650216D02*
D03*
Y675616D02*
D03*
X408940Y522986D02*
D03*
X434340D02*
D03*
X459740D02*
D03*
X485140D02*
D03*
X510540D02*
D03*
X535940D02*
D03*
X383540Y548386D02*
D03*
X408940D02*
D03*
X434340D02*
D03*
X459740D02*
D03*
X485140D02*
D03*
X510540D02*
D03*
X535940D02*
D03*
X561340D02*
D03*
X383540Y573786D02*
D03*
X408940D02*
D03*
X535940D02*
D03*
X561340D02*
D03*
X383540Y599186D02*
D03*
X408940D02*
D03*
X535940D02*
D03*
X561340D02*
D03*
X383540Y624586D02*
D03*
X408940D02*
D03*
X535940D02*
D03*
X561340D02*
D03*
X383540Y649986D02*
D03*
X408940D02*
D03*
X535940D02*
D03*
X561340D02*
D03*
X383540Y675386D02*
D03*
X408940D02*
D03*
X434340D02*
D03*
X459740D02*
D03*
X485140D02*
D03*
X510540D02*
D03*
X535940D02*
D03*
X561340D02*
D03*
X408940Y700786D02*
D03*
X434340D02*
D03*
X459740D02*
D03*
X485140D02*
D03*
X510540D02*
D03*
X535940D02*
D03*
D43*
X38100Y749300D02*
D03*
Y38100D02*
D03*
X977900Y749300D02*
D03*
Y38100D02*
D03*
M02*
