G04*
G04 #@! TF.GenerationSoftware,Altium Limited,Altium Designer,18.1.9 (240)*
G04*
G04 Layer_Physical_Order=2*
G04 Layer_Color=32768*
%FSLAX44Y44*%
%MOMM*%
G71*
G01*
G75*
%ADD10C,0.2000*%
%ADD43C,3.4000*%
%ADD51R,1.3000X3.7000*%
%ADD58C,1.3000*%
%ADD59C,2.0000*%
%ADD60C,1.1000*%
%ADD61C,0.5000*%
D10*
X0Y0D02*
Y790000D01*
X1020000D01*
Y0D02*
Y790000D01*
X0Y0D02*
X1020000D01*
D43*
X38100Y749300D02*
D03*
Y38100D02*
D03*
X977900Y749300D02*
D03*
Y38100D02*
D03*
D51*
X905200Y330200D02*
D03*
D58*
X205740Y55570D02*
D03*
X231140D02*
D03*
X256540D02*
D03*
X281940D02*
D03*
X307340D02*
D03*
X383540D02*
D03*
X408940D02*
D03*
X434340D02*
D03*
X459740D02*
D03*
X485140D02*
D03*
Y461970D02*
D03*
X459740D02*
D03*
X434340D02*
D03*
X408940D02*
D03*
X383540D02*
D03*
X307340D02*
D03*
X281940D02*
D03*
X256540D02*
D03*
X231140D02*
D03*
X205740D02*
D03*
Y436570D02*
D03*
X231140D02*
D03*
X256540D02*
D03*
X281940D02*
D03*
X307340D02*
D03*
X205740Y411170D02*
D03*
X231140D02*
D03*
X256540D02*
D03*
X281940D02*
D03*
X307340D02*
D03*
X205740Y385770D02*
D03*
X231140D02*
D03*
X256540D02*
D03*
X281940D02*
D03*
X307340D02*
D03*
X205740Y360370D02*
D03*
X231140D02*
D03*
X256540D02*
D03*
X281940D02*
D03*
X307340D02*
D03*
X205740Y334970D02*
D03*
X231140D02*
D03*
X256540D02*
D03*
X281940D02*
D03*
X307340D02*
D03*
X205740Y309570D02*
D03*
X231140D02*
D03*
X256540D02*
D03*
X281940D02*
D03*
X307340D02*
D03*
X205740Y284170D02*
D03*
X231140D02*
D03*
X256540D02*
D03*
X281940D02*
D03*
X307340D02*
D03*
X205740Y258770D02*
D03*
X231140D02*
D03*
X256540D02*
D03*
X281940D02*
D03*
X307340D02*
D03*
X205740Y233370D02*
D03*
X231140D02*
D03*
X256540D02*
D03*
X281940D02*
D03*
X307340D02*
D03*
X205740Y207970D02*
D03*
X231140D02*
D03*
X256540D02*
D03*
X281940D02*
D03*
X307340D02*
D03*
X205740Y182570D02*
D03*
X231140D02*
D03*
X256540D02*
D03*
X281940D02*
D03*
X307340D02*
D03*
X205740Y157170D02*
D03*
X231140D02*
D03*
X256540D02*
D03*
X281940D02*
D03*
X307340D02*
D03*
X205740Y131770D02*
D03*
X231140D02*
D03*
X256540D02*
D03*
X281940D02*
D03*
X307340D02*
D03*
X205740Y106370D02*
D03*
X231140D02*
D03*
X256540D02*
D03*
X281940D02*
D03*
X307340D02*
D03*
X205740Y80970D02*
D03*
X231140D02*
D03*
X256540D02*
D03*
X281940D02*
D03*
X307340D02*
D03*
X383540Y436570D02*
D03*
X408940D02*
D03*
X434340D02*
D03*
X459740D02*
D03*
X485140D02*
D03*
X383540Y411170D02*
D03*
X408940D02*
D03*
X434340D02*
D03*
X459740D02*
D03*
X485140D02*
D03*
X383540Y385770D02*
D03*
X408940D02*
D03*
X434340D02*
D03*
X459740D02*
D03*
X485140D02*
D03*
X383540Y360370D02*
D03*
X408940D02*
D03*
X434340D02*
D03*
X459740D02*
D03*
X485140D02*
D03*
X383540Y334970D02*
D03*
X408940D02*
D03*
X434340D02*
D03*
X459740D02*
D03*
X485140D02*
D03*
X383540Y309570D02*
D03*
X408940D02*
D03*
X434340D02*
D03*
X459740D02*
D03*
X485140D02*
D03*
X383540Y284170D02*
D03*
X408940D02*
D03*
X434340D02*
D03*
X459740D02*
D03*
X485140D02*
D03*
X383540Y258770D02*
D03*
X408940D02*
D03*
X434340D02*
D03*
X459740D02*
D03*
X485140D02*
D03*
X383540Y233370D02*
D03*
X408940D02*
D03*
X434340D02*
D03*
X459740D02*
D03*
X485140D02*
D03*
X383540Y207970D02*
D03*
X408940D02*
D03*
X434340D02*
D03*
X459740D02*
D03*
X485140D02*
D03*
X383540Y182570D02*
D03*
X408940D02*
D03*
X434340D02*
D03*
X459740D02*
D03*
X485140D02*
D03*
X383540Y157170D02*
D03*
X408940D02*
D03*
X434340D02*
D03*
X459740D02*
D03*
X485140D02*
D03*
X383540Y131770D02*
D03*
X408940D02*
D03*
X434340D02*
D03*
X459740D02*
D03*
X485140D02*
D03*
X383540Y106370D02*
D03*
X408940D02*
D03*
X434340D02*
D03*
X459740D02*
D03*
X485140D02*
D03*
X383540Y80970D02*
D03*
X408940D02*
D03*
X434340D02*
D03*
X459740D02*
D03*
X485140D02*
D03*
X41910Y302768D02*
D03*
Y353568D02*
D03*
Y378968D02*
D03*
Y404368D02*
D03*
Y429768D02*
D03*
Y455168D02*
D03*
Y480568D02*
D03*
Y505968D02*
D03*
Y531368D02*
D03*
X16510Y302768D02*
D03*
Y328168D02*
D03*
Y353568D02*
D03*
Y378968D02*
D03*
Y404368D02*
D03*
Y429768D02*
D03*
Y455168D02*
D03*
Y480568D02*
D03*
Y505968D02*
D03*
Y531368D02*
D03*
X825500Y744220D02*
D03*
X673100D02*
D03*
Y718820D02*
D03*
Y693420D02*
D03*
Y668020D02*
D03*
Y642620D02*
D03*
Y617220D02*
D03*
Y591820D02*
D03*
Y566420D02*
D03*
Y541020D02*
D03*
Y515620D02*
D03*
Y490220D02*
D03*
Y464820D02*
D03*
Y439420D02*
D03*
Y414020D02*
D03*
Y363220D02*
D03*
X825500Y718820D02*
D03*
Y693420D02*
D03*
Y668020D02*
D03*
Y642620D02*
D03*
Y617220D02*
D03*
Y591820D02*
D03*
Y566420D02*
D03*
Y541020D02*
D03*
Y515620D02*
D03*
Y490220D02*
D03*
Y464820D02*
D03*
Y414020D02*
D03*
Y388620D02*
D03*
Y363220D02*
D03*
X882650Y542290D02*
D03*
X908050D02*
D03*
X933450D02*
D03*
X958850D02*
D03*
Y567690D02*
D03*
X933450D02*
D03*
X908050D02*
D03*
D59*
X896824Y243556D02*
D03*
Y149556D02*
D03*
X992124Y262556D02*
D03*
Y130556D02*
D03*
X896824Y196556D02*
D03*
D60*
X318770Y548616D02*
D03*
Y574016D02*
D03*
Y599416D02*
D03*
Y624816D02*
D03*
Y650216D02*
D03*
Y675616D02*
D03*
X293370Y523216D02*
D03*
Y548616D02*
D03*
Y574016D02*
D03*
Y599416D02*
D03*
Y624816D02*
D03*
Y650216D02*
D03*
Y675616D02*
D03*
Y701016D02*
D03*
X267970Y523216D02*
D03*
Y548616D02*
D03*
Y701016D02*
D03*
X242570Y523216D02*
D03*
Y548616D02*
D03*
Y675616D02*
D03*
Y701016D02*
D03*
X217170Y523216D02*
D03*
Y548616D02*
D03*
Y675616D02*
D03*
Y701016D02*
D03*
X191770Y523216D02*
D03*
Y548616D02*
D03*
Y675616D02*
D03*
X166370Y523216D02*
D03*
Y548616D02*
D03*
Y574016D02*
D03*
Y599416D02*
D03*
Y624816D02*
D03*
Y650216D02*
D03*
Y675616D02*
D03*
Y701016D02*
D03*
X140970Y548616D02*
D03*
Y574016D02*
D03*
Y599416D02*
D03*
Y624816D02*
D03*
Y650216D02*
D03*
Y675616D02*
D03*
X408940Y522986D02*
D03*
X434340D02*
D03*
X459740D02*
D03*
X485140D02*
D03*
X510540D02*
D03*
X535940D02*
D03*
X383540Y548386D02*
D03*
X408940D02*
D03*
X434340D02*
D03*
X459740D02*
D03*
X485140D02*
D03*
X510540D02*
D03*
X535940D02*
D03*
X561340D02*
D03*
X383540Y573786D02*
D03*
X408940D02*
D03*
X561340D02*
D03*
X383540Y599186D02*
D03*
X408940D02*
D03*
X535940D02*
D03*
X561340D02*
D03*
X383540Y624586D02*
D03*
X408940D02*
D03*
X535940D02*
D03*
X561340D02*
D03*
X383540Y649986D02*
D03*
X408940D02*
D03*
X535940D02*
D03*
X383540Y675386D02*
D03*
X408940D02*
D03*
X434340D02*
D03*
X459740D02*
D03*
X485140D02*
D03*
X510540D02*
D03*
X535940D02*
D03*
X561340D02*
D03*
X408940Y700786D02*
D03*
X434340D02*
D03*
X459740D02*
D03*
X485140D02*
D03*
X510540D02*
D03*
X535940D02*
D03*
D61*
X363728Y578612D02*
D03*
X86868Y559562D02*
D03*
X611124Y172466D02*
D03*
X628840Y208534D02*
D03*
X620014Y184404D02*
D03*
X637667Y232410D02*
D03*
X557276Y169926D02*
D03*
X573024Y195326D02*
D03*
X593535Y164084D02*
D03*
X602361Y153720D02*
D03*
X516890Y155194D02*
D03*
X576326Y144018D02*
D03*
X550164Y118364D02*
D03*
X572008Y221234D02*
D03*
X969518Y472694D02*
D03*
X952500Y452120D02*
D03*
X988060D02*
D03*
Y495300D02*
D03*
X952500D02*
D03*
X918210Y624840D02*
D03*
X939800D02*
D03*
X880110Y590550D02*
D03*
X861314Y652780D02*
D03*
X82042Y499110D02*
D03*
X90246Y585516D02*
D03*
X265176Y474980D02*
D03*
X294132Y473964D02*
D03*
X689356Y630428D02*
D03*
X390652Y516128D02*
D03*
X267716Y727202D02*
D03*
X98298Y635000D02*
D03*
X85622Y570738D02*
D03*
X91440Y546100D02*
D03*
X196342Y714502D02*
D03*
X939800Y655320D02*
D03*
X60452Y303022D02*
D03*
X580898Y592328D02*
D03*
X573024Y585470D02*
D03*
X548894Y535178D02*
D03*
X556006Y528320D02*
D03*
X896620Y684530D02*
D03*
X910590D02*
D03*
X923290D02*
D03*
X99060Y713740D02*
D03*
X100330Y671830D02*
D03*
X241300Y635000D02*
D03*
X424180Y605790D02*
D03*
X321334Y703580D02*
D03*
X314984Y697230D02*
D03*
X60960Y481330D02*
D03*
X105410Y641350D02*
D03*
X325120Y483870D02*
D03*
X361950Y610870D02*
D03*
X143510Y523240D02*
D03*
X82550Y530860D02*
D03*
X86360Y651510D02*
D03*
X82550Y515620D02*
D03*
M02*
