G04*
G04 #@! TF.GenerationSoftware,Altium Limited,Altium Designer,18.1.9 (240)*
G04*
G04 Layer_Color=65535*
%FSLAX44Y44*%
%MOMM*%
G71*
G01*
G75*
%ADD10C,0.2000*%
%ADD11C,0.1000*%
%ADD12C,0.2540*%
%ADD13C,0.1500*%
D10*
X755904Y325628D02*
G03*
X743204Y325628I-6350J0D01*
G01*
X180340Y30170D02*
X510540D01*
Y487370D01*
X180340Y30170D02*
Y487370D01*
X510540D01*
X899200Y285200D02*
Y308200D01*
Y285200D02*
X1043200D01*
Y379200D01*
X954200D02*
X1043200D01*
X899200D02*
X915200D01*
X899200Y353200D02*
Y379200D01*
X-85852Y290068D02*
X35560D01*
X22860D02*
X56134D01*
Y544068D01*
X-85852D02*
X56134D01*
X-85852Y290068D02*
Y544068D01*
X838962Y776732D02*
X838962Y325628D01*
X755904D02*
X839216D01*
X658114Y776732D02*
X838962D01*
X658114D02*
X658114Y325628D01*
X658368D02*
X743204D01*
X1018744Y129256D02*
X1051764D01*
X912064D02*
X967944D01*
X912064Y263876D02*
X967944D01*
X1051764Y129256D02*
Y263876D01*
X1018744D02*
X1051764D01*
X112268Y494514D02*
Y710414D01*
Y494514D02*
X347472D01*
Y729464D01*
X131318D02*
X347472D01*
X112268Y710414D02*
X131318Y729464D01*
X354838Y729488D02*
X570738D01*
X354838Y494284D02*
Y729488D01*
Y494284D02*
X589788D01*
Y710438D01*
X570738Y729488D02*
X589788Y710438D01*
X958342Y610616D02*
Y619252D01*
X969010Y600710D02*
X971550D01*
X958342Y619252D02*
X962660D01*
X977900D02*
X982218D01*
Y610616D02*
Y619252D01*
X878078Y612140D02*
Y620776D01*
X888746Y602234D02*
X891286D01*
X878078Y620776D02*
X882396D01*
X897636D02*
X901954D01*
Y612140D02*
Y620776D01*
X943356Y105410D02*
Y117348D01*
X913130Y103124D02*
X945896D01*
X913130Y120142D02*
X945896D01*
X913130Y103124D02*
Y120142D01*
X945896Y103124D02*
Y120142D01*
X774598Y307340D02*
Y319278D01*
X772058Y321564D02*
X804824D01*
X772058Y304546D02*
X804824D01*
Y321564D01*
X772058Y304546D02*
Y321564D01*
X847090Y527050D02*
X994410D01*
Y775970D01*
X847090D02*
X994410D01*
X847090Y527050D02*
Y775970D01*
X913130Y649100D02*
Y677040D01*
X930910D01*
Y649100D02*
Y677040D01*
X913130Y649100D02*
X930910D01*
X846960Y657860D02*
X874900D01*
X846960D02*
Y675640D01*
X874900D01*
Y657860D02*
Y675640D01*
X810644Y322072D02*
X838584D01*
Y304292D02*
Y322072D01*
X810644Y304292D02*
X838584D01*
X810644D02*
Y322072D01*
X889000Y649100D02*
Y677040D01*
X906780D01*
Y649100D02*
Y677040D01*
X889000Y649100D02*
X906780D01*
X908812Y594614D02*
Y622554D01*
X926592D01*
Y594614D02*
Y622554D01*
X908812Y594614D02*
X926592D01*
X879472Y102616D02*
X907412D01*
X879472D02*
Y120396D01*
X907412D01*
Y102616D02*
Y120396D01*
X931164Y594360D02*
Y622300D01*
X948944D01*
Y594360D02*
Y622300D01*
X931164Y594360D02*
X948944D01*
X925518Y422694D02*
X1010518D01*
Y522694D01*
X920518Y422694D02*
Y522694D01*
Y422694D02*
X925518D01*
X920518Y522694D02*
X1010518D01*
X265430Y753110D02*
X300990D01*
X265430Y732790D02*
Y753110D01*
Y732790D02*
X300990D01*
Y753110D01*
X614680Y581000D02*
Y616560D01*
X594360D02*
X614680D01*
X594360Y581000D02*
Y616560D01*
Y581000D02*
X614680D01*
X875792Y207772D02*
Y243332D01*
X855472D02*
X875792D01*
X855472Y207772D02*
Y243332D01*
Y207772D02*
X875792D01*
X780542Y207010D02*
Y242570D01*
X760222D02*
X780542D01*
X760222Y207010D02*
Y242570D01*
Y207010D02*
X780542D01*
X303530Y753110D02*
X339090D01*
X303530Y732790D02*
Y753110D01*
Y732790D02*
X339090D01*
Y753110D01*
X614680Y539140D02*
Y574700D01*
X594360D02*
X614680D01*
X594360Y539140D02*
Y574700D01*
Y539140D02*
X614680D01*
X895756Y418338D02*
X931316D01*
X895756Y398018D02*
Y418338D01*
Y398018D02*
X931316D01*
Y418338D01*
X936498Y398018D02*
X972058D01*
Y418338D01*
X936498D02*
X972058D01*
X936498Y398018D02*
Y418338D01*
X786142Y255876D02*
X851142D01*
Y173376D02*
Y255876D01*
X786142Y173376D02*
X851142D01*
X786142D02*
Y255876D01*
X548640Y432252D02*
X551972D01*
X550306D01*
Y442249D01*
X548640Y440583D01*
X563635Y442249D02*
X560303Y440583D01*
X556971Y437250D01*
Y433918D01*
X558637Y432252D01*
X561969D01*
X563635Y433918D01*
Y435584D01*
X561969Y437250D01*
X556971D01*
X548640Y406834D02*
X551972D01*
X550306D01*
Y416831D01*
X548640Y415164D01*
X556971Y416831D02*
X563635D01*
Y415164D01*
X556971Y408500D01*
Y406834D01*
X548640Y381416D02*
X551972D01*
X550306D01*
Y391412D01*
X548640Y389746D01*
X556971D02*
X558637Y391412D01*
X561969D01*
X563635Y389746D01*
Y388080D01*
X561969Y386414D01*
X563635Y384748D01*
Y383082D01*
X561969Y381416D01*
X558637D01*
X556971Y383082D01*
Y384748D01*
X558637Y386414D01*
X556971Y388080D01*
Y389746D01*
X558637Y386414D02*
X561969D01*
X548640Y355998D02*
X551972D01*
X550306D01*
Y365994D01*
X548640Y364328D01*
X556971Y357664D02*
X558637Y355998D01*
X561969D01*
X563635Y357664D01*
Y364328D01*
X561969Y365994D01*
X558637D01*
X556971Y364328D01*
Y362662D01*
X558637Y360996D01*
X563635D01*
X555304Y330579D02*
X548640D01*
X555304Y337244D01*
Y338910D01*
X553638Y340576D01*
X550306D01*
X548640Y338910D01*
X558637D02*
X560303Y340576D01*
X563635D01*
X565301Y338910D01*
Y332245D01*
X563635Y330579D01*
X560303D01*
X558637Y332245D01*
Y338910D01*
X555304Y305161D02*
X548640D01*
X555304Y311826D01*
Y313492D01*
X553638Y315158D01*
X550306D01*
X548640Y313492D01*
X558637Y305161D02*
X561969D01*
X560303D01*
Y315158D01*
X558637Y313492D01*
X555304Y152652D02*
X548640D01*
X555304Y159317D01*
Y160983D01*
X553638Y162649D01*
X550306D01*
X548640Y160983D01*
X558637Y162649D02*
X565301D01*
Y160983D01*
X558637Y154319D01*
Y152652D01*
X555304Y178071D02*
X548640D01*
X555304Y184735D01*
Y186401D01*
X553638Y188067D01*
X550306D01*
X548640Y186401D01*
X565301Y188067D02*
X561969Y186401D01*
X558637Y183069D01*
Y179737D01*
X560303Y178071D01*
X563635D01*
X565301Y179737D01*
Y181403D01*
X563635Y183069D01*
X558637D01*
X555304Y203489D02*
X548640D01*
X555304Y210153D01*
Y211819D01*
X553638Y213486D01*
X550306D01*
X548640Y211819D01*
X565301Y213486D02*
X558637D01*
Y208487D01*
X561969Y210153D01*
X563635D01*
X565301Y208487D01*
Y205155D01*
X563635Y203489D01*
X560303D01*
X558637Y205155D01*
X555304Y228907D02*
X548640D01*
X555304Y235571D01*
Y237237D01*
X553638Y238904D01*
X550306D01*
X548640Y237237D01*
X563635Y228907D02*
Y238904D01*
X558637Y233905D01*
X565301D01*
X555304Y254325D02*
X548640D01*
X555304Y260989D01*
Y262656D01*
X553638Y264322D01*
X550306D01*
X548640Y262656D01*
X558637D02*
X560303Y264322D01*
X563635D01*
X565301Y262656D01*
Y260989D01*
X563635Y259323D01*
X561969D01*
X563635D01*
X565301Y257657D01*
Y255991D01*
X563635Y254325D01*
X560303D01*
X558637Y255991D01*
X555304Y279743D02*
X548640D01*
X555304Y286408D01*
Y288074D01*
X553638Y289740D01*
X550306D01*
X548640Y288074D01*
X565301Y279743D02*
X558637D01*
X565301Y286408D01*
Y288074D01*
X563635Y289740D01*
X560303D01*
X558637Y288074D01*
X548640Y84729D02*
X550306Y86395D01*
X553638D01*
X555304Y84729D01*
Y83062D01*
X553638Y81396D01*
X551972D01*
X553638D01*
X555304Y79730D01*
Y78064D01*
X553638Y76398D01*
X550306D01*
X548640Y78064D01*
X558637Y84729D02*
X560303Y86395D01*
X563635D01*
X565301Y84729D01*
Y78064D01*
X563635Y76398D01*
X560303D01*
X558637Y78064D01*
Y84729D01*
X555304Y101816D02*
X548640D01*
X555304Y108481D01*
Y110147D01*
X553638Y111813D01*
X550306D01*
X548640Y110147D01*
X558637Y103482D02*
X560303Y101816D01*
X563635D01*
X565301Y103482D01*
Y110147D01*
X563635Y111813D01*
X560303D01*
X558637Y110147D01*
Y108481D01*
X560303Y106814D01*
X565301D01*
X555304Y127234D02*
X548640D01*
X555304Y133899D01*
Y135565D01*
X553638Y137231D01*
X550306D01*
X548640Y135565D01*
X558637D02*
X560303Y137231D01*
X563635D01*
X565301Y135565D01*
Y133899D01*
X563635Y132233D01*
X565301Y130567D01*
Y128900D01*
X563635Y127234D01*
X560303D01*
X558637Y128900D01*
Y130567D01*
X560303Y132233D01*
X558637Y133899D01*
Y135565D01*
X560303Y132233D02*
X563635D01*
X127000Y127234D02*
X130332D01*
X128666D01*
Y137231D01*
X127000Y135565D01*
X135331D02*
X136997Y137231D01*
X140329D01*
X141995Y135565D01*
Y133899D01*
X140329Y132233D01*
X138663D01*
X140329D01*
X141995Y130567D01*
Y128900D01*
X140329Y127234D01*
X136997D01*
X135331Y128900D01*
X127000Y101816D02*
X130332D01*
X128666D01*
Y111813D01*
X127000Y110147D01*
X140329Y101816D02*
Y111813D01*
X135331Y106814D01*
X141995D01*
X127000Y76398D02*
X130332D01*
X128666D01*
Y86395D01*
X127000Y84729D01*
X141995Y86395D02*
X135331D01*
Y81396D01*
X138663Y83062D01*
X140329D01*
X141995Y81396D01*
Y78064D01*
X140329Y76398D01*
X136997D01*
X135331Y78064D01*
Y289740D02*
X141995D01*
Y288074D01*
X135331Y281409D01*
Y279743D01*
Y262656D02*
X136997Y264322D01*
X140329D01*
X141995Y262656D01*
Y260989D01*
X140329Y259323D01*
X141995Y257657D01*
Y255991D01*
X140329Y254325D01*
X136997D01*
X135331Y255991D01*
Y257657D01*
X136997Y259323D01*
X135331Y260989D01*
Y262656D01*
X136997Y259323D02*
X140329D01*
X135331Y230573D02*
X136997Y228907D01*
X140329D01*
X141995Y230573D01*
Y237237D01*
X140329Y238904D01*
X136997D01*
X135331Y237237D01*
Y235571D01*
X136997Y233905D01*
X141995D01*
X127000Y203489D02*
X130332D01*
X128666D01*
Y213486D01*
X127000Y211819D01*
X135331D02*
X136997Y213486D01*
X140329D01*
X141995Y211819D01*
Y205155D01*
X140329Y203489D01*
X136997D01*
X135331Y205155D01*
Y211819D01*
X130332Y178071D02*
X133665D01*
X131998D01*
Y188067D01*
X130332Y186401D01*
X138663Y178071D02*
X141995D01*
X140329D01*
Y188067D01*
X138663Y186401D01*
X127000Y152652D02*
X130332D01*
X128666D01*
Y162649D01*
X127000Y160983D01*
X141995Y152652D02*
X135331D01*
X141995Y159317D01*
Y160983D01*
X140329Y162649D01*
X136997D01*
X135331Y160983D01*
X141995Y315158D02*
X138663Y313492D01*
X135331Y310160D01*
Y306827D01*
X136997Y305161D01*
X140329D01*
X141995Y306827D01*
Y308493D01*
X140329Y310160D01*
X135331D01*
X141995Y340576D02*
X135331D01*
Y335578D01*
X138663Y337244D01*
X140329D01*
X141995Y335578D01*
Y332245D01*
X140329Y330579D01*
X136997D01*
X135331Y332245D01*
X140329Y355998D02*
Y365994D01*
X135331Y360996D01*
X141995D01*
X135331Y389746D02*
X136997Y391412D01*
X140329D01*
X141995Y389746D01*
Y388080D01*
X140329Y386414D01*
X138663D01*
X140329D01*
X141995Y384748D01*
Y383082D01*
X140329Y381416D01*
X136997D01*
X135331Y383082D01*
X141995Y406834D02*
X135331D01*
X141995Y413498D01*
Y415164D01*
X140329Y416831D01*
X136997D01*
X135331Y415164D01*
X138663Y432252D02*
X141995D01*
X140329D01*
Y442249D01*
X138663Y440583D01*
X934720Y642620D02*
X944717D01*
Y637622D01*
X943051Y635956D01*
X939718D01*
X938052Y637622D01*
Y642620D01*
Y639288D02*
X934720Y635956D01*
X943051Y632623D02*
X944717Y630957D01*
Y627625D01*
X943051Y625959D01*
X941385D01*
X939718Y627625D01*
Y629291D01*
Y627625D01*
X938052Y625959D01*
X936386D01*
X934720Y627625D01*
Y630957D01*
X936386Y632623D01*
X748792Y318099D02*
Y308102D01*
X755456D01*
X765453D02*
X758789D01*
X765453Y314767D01*
Y316433D01*
X763787Y318099D01*
X760455D01*
X758789Y316433D01*
X924560Y98897D02*
Y88900D01*
X931225D01*
X934557D02*
X937889D01*
X936223D01*
Y98897D01*
X934557Y97231D01*
X889000Y88900D02*
Y98897D01*
X893998D01*
X895665Y97231D01*
Y93898D01*
X893998Y92232D01*
X889000D01*
X892332D02*
X895665Y88900D01*
X898997D02*
X902329D01*
X900663D01*
Y98897D01*
X898997Y97231D01*
X871057Y614680D02*
X862726D01*
X861060Y613014D01*
Y609682D01*
X862726Y608016D01*
X871057D01*
X869391Y604683D02*
X871057Y603017D01*
Y599685D01*
X869391Y598019D01*
X867725D01*
X866058Y599685D01*
X864392Y598019D01*
X862726D01*
X861060Y599685D01*
Y603017D01*
X862726Y604683D01*
X864392D01*
X866058Y603017D01*
X867725Y604683D01*
X869391D01*
X866058Y603017D02*
Y599685D01*
X964438Y643981D02*
Y635650D01*
X966104Y633984D01*
X969436D01*
X971103Y635650D01*
Y643981D01*
X974435D02*
X981099D01*
Y642315D01*
X974435Y635650D01*
Y633984D01*
X742696Y772759D02*
Y764428D01*
X744362Y762762D01*
X747694D01*
X749361Y764428D01*
Y772759D01*
X759357D02*
X756025Y771093D01*
X752693Y767760D01*
Y764428D01*
X754359Y762762D01*
X757691D01*
X759357Y764428D01*
Y766094D01*
X757691Y767760D01*
X752693D01*
X906780Y771997D02*
Y763666D01*
X908446Y762000D01*
X911778D01*
X913445Y763666D01*
Y771997D01*
X923441D02*
X916777D01*
Y766998D01*
X920109Y768664D01*
X921775D01*
X923441Y766998D01*
Y763666D01*
X921775Y762000D01*
X918443D01*
X916777Y763666D01*
Y518160D02*
X908446D01*
X906780Y516494D01*
Y513162D01*
X908446Y511496D01*
X916777D01*
X906780Y503165D02*
X916777D01*
X911778Y508163D01*
Y501499D01*
X551688Y743295D02*
Y734964D01*
X553354Y733298D01*
X556686D01*
X558353Y734964D01*
Y743295D01*
X561685Y741629D02*
X563351Y743295D01*
X566683D01*
X568349Y741629D01*
Y739962D01*
X566683Y738296D01*
X565017D01*
X566683D01*
X568349Y736630D01*
Y734964D01*
X566683Y733298D01*
X563351D01*
X561685Y734964D01*
X134112Y742787D02*
Y734456D01*
X135778Y732790D01*
X139110D01*
X140777Y734456D01*
Y742787D01*
X150773Y732790D02*
X144109D01*
X150773Y739454D01*
Y741121D01*
X149107Y742787D01*
X145775D01*
X144109Y741121D01*
X812800Y170017D02*
Y161686D01*
X814466Y160020D01*
X817798D01*
X819464Y161686D01*
Y170017D01*
X822797Y160020D02*
X826129D01*
X824463D01*
Y170017D01*
X822797Y168351D01*
X911860Y642620D02*
X921857D01*
Y637622D01*
X920191Y635956D01*
X916858D01*
X915192Y637622D01*
Y642620D01*
Y639288D02*
X911860Y635956D01*
X921857Y632623D02*
Y625959D01*
X920191D01*
X913526Y632623D01*
X911860D01*
X894080Y698500D02*
X904077D01*
Y693502D01*
X902411Y691835D01*
X899078D01*
X897412Y693502D01*
Y698500D01*
Y695168D02*
X894080Y691835D01*
X904077Y681839D02*
X902411Y685171D01*
X899078Y688503D01*
X895746D01*
X894080Y686837D01*
Y683505D01*
X895746Y681839D01*
X897412D01*
X899078Y683505D01*
Y688503D01*
X842524Y307594D02*
Y317591D01*
X847523D01*
X849189Y315925D01*
Y312592D01*
X847523Y310926D01*
X842524D01*
X845856D02*
X849189Y307594D01*
X859185Y317591D02*
X852521D01*
Y312592D01*
X855853Y314258D01*
X857519D01*
X859185Y312592D01*
Y309260D01*
X857519Y307594D01*
X854187D01*
X852521Y309260D01*
X853440Y680720D02*
Y690717D01*
X858438D01*
X860105Y689051D01*
Y685718D01*
X858438Y684052D01*
X853440D01*
X856772D02*
X860105Y680720D01*
X868435D02*
Y690717D01*
X863437Y685718D01*
X870101D01*
X914654Y697230D02*
X924651D01*
Y692232D01*
X922985Y690565D01*
X919652D01*
X917986Y692232D01*
Y697230D01*
Y693898D02*
X914654Y690565D01*
Y680569D02*
Y687233D01*
X921319Y680569D01*
X922985D01*
X924651Y682235D01*
Y685567D01*
X922985Y687233D01*
X44764Y286857D02*
X41432D01*
X43098D01*
Y278526D01*
X41432Y276860D01*
X39766D01*
X38100Y278526D01*
X53095Y276860D02*
Y286857D01*
X48097Y281858D01*
X54761D01*
X997264Y393537D02*
X993932D01*
X995598D01*
Y385206D01*
X993932Y383540D01*
X992266D01*
X990600Y385206D01*
X1007261Y383540D02*
X1000597D01*
X1007261Y390205D01*
Y391871D01*
X1005595Y393537D01*
X1002263D01*
X1000597Y391871D01*
X918524Y279237D02*
X915192D01*
X916858D01*
Y270906D01*
X915192Y269240D01*
X913526D01*
X911860Y270906D01*
X921857Y269240D02*
X925189D01*
X923523D01*
Y279237D01*
X921857Y277571D01*
X982025Y412191D02*
X980358Y413857D01*
X977026D01*
X975360Y412191D01*
Y405526D01*
X977026Y403860D01*
X980358D01*
X982025Y405526D01*
X985357Y412191D02*
X987023Y413857D01*
X990355D01*
X992021Y412191D01*
Y410524D01*
X990355Y408858D01*
X992021Y407192D01*
Y405526D01*
X990355Y403860D01*
X987023D01*
X985357Y405526D01*
Y407192D01*
X987023Y408858D01*
X985357Y410524D01*
Y412191D01*
X987023Y408858D02*
X990355D01*
X880424Y409651D02*
X878758Y411317D01*
X875426D01*
X873760Y409651D01*
Y402986D01*
X875426Y401320D01*
X878758D01*
X880424Y402986D01*
X883757Y411317D02*
X890421D01*
Y409651D01*
X883757Y402986D01*
Y401320D01*
X603199Y528260D02*
X604865Y529926D01*
Y533258D01*
X603199Y534924D01*
X596534D01*
X594868Y533258D01*
Y529926D01*
X596534Y528260D01*
X594868Y519929D02*
X604865D01*
X599866Y524927D01*
Y518263D01*
X349565Y741883D02*
X347898Y743549D01*
X344566D01*
X342900Y741883D01*
Y735218D01*
X344566Y733552D01*
X347898D01*
X349565Y735218D01*
X352897Y741883D02*
X354563Y743549D01*
X357895D01*
X359561Y741883D01*
Y740217D01*
X357895Y738550D01*
X356229D01*
X357895D01*
X359561Y736884D01*
Y735218D01*
X357895Y733552D01*
X354563D01*
X352897Y735218D01*
X771093Y195621D02*
X772759Y197287D01*
Y200620D01*
X771093Y202286D01*
X764428D01*
X762762Y200620D01*
Y197287D01*
X764428Y195621D01*
X772759Y185624D02*
X771093Y188957D01*
X767760Y192289D01*
X764428D01*
X762762Y190623D01*
Y187291D01*
X764428Y185624D01*
X766094D01*
X767760Y187291D01*
Y192289D01*
X868121Y194098D02*
X869787Y195764D01*
Y199096D01*
X868121Y200762D01*
X861456D01*
X859790Y199096D01*
Y195764D01*
X861456Y194098D01*
X869787Y184101D02*
Y190765D01*
X864788D01*
X866454Y187433D01*
Y185767D01*
X864788Y184101D01*
X861456D01*
X859790Y185767D01*
Y189099D01*
X861456Y190765D01*
X603199Y630876D02*
X604865Y632542D01*
Y635874D01*
X603199Y637540D01*
X596534D01*
X594868Y635874D01*
Y632542D01*
X596534Y630876D01*
X594868Y620879D02*
Y627543D01*
X601533Y620879D01*
X603199D01*
X604865Y622545D01*
Y625877D01*
X603199Y627543D01*
X254314Y742137D02*
X252648Y743803D01*
X249316D01*
X247650Y742137D01*
Y735472D01*
X249316Y733806D01*
X252648D01*
X254314Y735472D01*
X257647Y733806D02*
X260979D01*
X259313D01*
Y743803D01*
X257647Y742137D01*
D11*
X75100Y749300D02*
G03*
X75100Y749300I-37000J0D01*
G01*
Y38100D02*
G03*
X75100Y38100I-37000J0D01*
G01*
X1014900Y749300D02*
G03*
X1014900Y749300I-37000J0D01*
G01*
Y38100D02*
G03*
X1014900Y38100I-37000J0D01*
G01*
D12*
X62738Y293624D02*
X67816D01*
X65277D01*
Y308859D01*
X62738Y306320D01*
X586994Y51557D02*
Y41400D01*
X592072Y36322D01*
X597151Y41400D01*
Y51557D01*
X602229Y36322D02*
X607307D01*
X604768D01*
Y46479D01*
X602229D01*
X614925D02*
Y36322D01*
Y41400D01*
X617464Y43939D01*
X620003Y46479D01*
X622542D01*
X632699Y49018D02*
Y46479D01*
X630160D01*
X635238D01*
X632699D01*
Y38861D01*
X635238Y36322D01*
X642856Y46479D02*
Y38861D01*
X645395Y36322D01*
X653013D01*
Y46479D01*
X660630D02*
X665708D01*
X668248Y43939D01*
Y36322D01*
X660630D01*
X658091Y38861D01*
X660630Y41400D01*
X668248D01*
X673326Y36322D02*
X678404D01*
X675865D01*
Y51557D01*
X673326D01*
X711414Y49018D02*
X708875Y51557D01*
X703796D01*
X701257Y49018D01*
Y38861D01*
X703796Y36322D01*
X708875D01*
X711414Y38861D01*
X719031Y36322D02*
X724110D01*
X726649Y38861D01*
Y43939D01*
X724110Y46479D01*
X719031D01*
X716492Y43939D01*
Y38861D01*
X719031Y36322D01*
X731727D02*
Y46479D01*
X734266D01*
X736805Y43939D01*
Y36322D01*
Y43939D01*
X739345Y46479D01*
X741884Y43939D01*
Y36322D01*
X746962Y31244D02*
Y46479D01*
X754580D01*
X757119Y43939D01*
Y38861D01*
X754580Y36322D01*
X746962D01*
X764736D02*
X769815D01*
X772354Y38861D01*
Y43939D01*
X769815Y46479D01*
X764736D01*
X762197Y43939D01*
Y38861D01*
X764736Y36322D01*
X777432D02*
Y46479D01*
X785050D01*
X787589Y43939D01*
Y36322D01*
X800285D02*
X795207D01*
X792667Y38861D01*
Y43939D01*
X795207Y46479D01*
X800285D01*
X802824Y43939D01*
Y41400D01*
X792667D01*
X807903Y36322D02*
Y46479D01*
X815520D01*
X818059Y43939D01*
Y36322D01*
X825677Y49018D02*
Y46479D01*
X823138D01*
X828216D01*
X825677D01*
Y38861D01*
X828216Y36322D01*
X851069Y46479D02*
X856147Y36322D01*
X861225Y46479D01*
X866304Y36322D02*
X871382D01*
X868843D01*
Y51557D01*
X866304Y49018D01*
X878999Y36322D02*
X884078D01*
X881539D01*
Y46479D01*
X878999D01*
X891695Y49018D02*
X894235Y51557D01*
X899313D01*
X901852Y49018D01*
Y46479D01*
X899313Y43939D01*
X896774D01*
X899313D01*
X901852Y41400D01*
Y38861D01*
X899313Y36322D01*
X894235D01*
X891695Y38861D01*
D13*
X782574Y739140D02*
Y749137D01*
X789239Y739140D01*
Y749137D01*
X792571Y739140D02*
X799235Y745805D01*
X802568Y739140D02*
Y745805D01*
X805900Y749137D01*
X809232Y745805D01*
Y739140D01*
Y744138D01*
X802568D01*
X691896Y739394D02*
Y749391D01*
X698560Y739394D01*
Y749391D01*
X701893Y739394D02*
X708557Y746059D01*
X711890Y739394D02*
Y746059D01*
X715222Y749391D01*
X718554Y746059D01*
Y739394D01*
Y744392D01*
X711890D01*
M02*
