M48
;Layer_Color=9474304
;FILE_FORMAT=2:5
INCH,LZ
;TYPE=PLATED
T1F00S00C0.01181
T2F00S00C0.04331
;TYPE=NON_PLATED
T3F00S00C0.12598
%
T01
X0457541Y07288
X04654Y07417
X0457784Y0749784
X04732Y07497
X04725Y0741926
X04807Y07418
X0485368Y07469
X04858Y07549
X04986Y07508
X04989Y07619
X0497931Y07316
X04914Y0729
X05055Y07142
X0502Y0707677
X0520669
X05208Y07114
X04948Y06956
X0479941Y0680118
X0478633Y0672244
X0472441Y0661417
X0472874Y0644685
X0494095Y0665354
X04899Y07986
X04849
X04749Y079876
X04937Y0815
X04978Y08117
X0489144Y0850344
X04865Y08531
X04821Y08588
X0491Y0859842
X04891Y08679
X04865Y08926
X0482283Y0890256
X04825Y08982
X0472441Y0895374
X0501968Y0900591
X04464Y08771
X04414
X0437992Y0876968
X0427165Y0872342
X042815Y0852165
T02
X0430945Y0701653
Y0711654
Y0721654
Y0731653
Y0741653
Y0751653
Y0761654
Y0771654
X0440945
Y0761654
Y0751653
Y0741653
Y0731653
Y0721654
Y0711654
Y0701653
X0505748Y0726653
Y0736654
Y0746654
Y0756653
Y0766653
Y0776653
X0515748
Y0766653
Y0756653
Y0746654
Y0736654
Y0726653
Y0786654
X0505748
Y0796654
Y0806653
Y0816654
X0515748
Y0806653
Y0796654
X0440945Y0801653
X0430945
Y0811654
Y0821653
Y0831653
Y0841654
X0440945
Y0831653
Y0821653
Y0811654
Y0791653
X0430945
Y0781653
X0440945
T03
X042815Y0652559
Y08909
M30
